{"glyphs":{"0":{"ha":961,"x_min":0,"x_max":854,"o":"m 320 427 l 320 641 l 534 641 l 534 427 l 320 427 m 534 106 l 534 214 l 641 214 l 641 854 l 534 854 l 534 961 l 320 961 l 320 854 l 214 854 l 214 214 l 320 214 l 320 106 l 534 106 m 214 0 l 214 106 l 106 106 l 106 214 l 0 214 l 0 854 l 106 854 l 106 961 l 214 961 l 214 1068 l 641 1068 l 641 961 l 747 961 l 747 854 l 854 854 l 854 214 l 747 214 l 747 106 l 641 106 l 641 0 l 214 0 z "},"1":{"ha":961,"x_min":106,"x_max":747,"o":"m 106 0 l 106 106 l 320 106 l 320 747 l 106 747 l 106 854 l 214 854 l 214 961 l 320 961 l 320 1068 l 534 1068 l 534 106 l 747 106 l 747 0 l 106 0 z "},"2":{"ha":961,"x_min":0,"x_max":747,"o":"m 0 0 l 0 320 l 106 320 l 106 427 l 214 427 l 214 534 l 320 534 l 320 641 l 427 641 l 427 747 l 534 747 l 534 961 l 214 961 l 214 854 l 0 854 l 0 961 l 106 961 l 106 1068 l 641 1068 l 641 961 l 747 961 l 747 747 l 641 747 l 641 641 l 534 641 l 534 534 l 427 534 l 427 427 l 320 427 l 320 320 l 214 320 l 214 106 l 534 106 l 534 214 l 747 214 l 747 0 l 0 0 z "},"3":{"ha":961,"x_min":0,"x_max":747,"o":"m 106 0 l 106 106 l 0 106 l 0 214 l 214 214 l 214 106 l 534 106 l 534 534 l 214 534 l 214 641 l 534 641 l 534 961 l 214 961 l 214 854 l 0 854 l 0 961 l 106 961 l 106 1068 l 641 1068 l 641 961 l 747 961 l 747 641 l 641 641 l 641 534 l 747 534 l 747 106 l 641 106 l 641 0 l 106 0 z "},"4":{"ha":961,"x_min":0,"x_max":747,"o":"m 427 534 l 427 747 l 320 747 l 320 641 l 214 641 l 214 534 l 427 534 m 320 0 l 320 106 l 427 106 l 427 427 l 0 427 l 0 641 l 106 641 l 106 747 l 214 747 l 214 854 l 320 854 l 320 961 l 427 961 l 427 1068 l 641 1068 l 641 534 l 747 534 l 747 427 l 641 427 l 641 106 l 747 106 l 747 0 l 320 0 z "},"5":{"ha":961,"x_min":0,"x_max":747,"o":"m 106 0 l 106 106 l 0 106 l 0 214 l 214 214 l 214 106 l 534 106 l 534 534 l 0 534 l 0 1068 l 747 1068 l 747 961 l 214 961 l 214 641 l 641 641 l 641 534 l 747 534 l 747 106 l 641 106 l 641 0 l 106 0 z "},"6":{"ha":961,"x_min":0,"x_max":747,"o":"m 534 106 l 534 534 l 214 534 l 214 106 l 534 106 m 106 0 l 106 106 l 0 106 l 0 854 l 106 854 l 106 961 l 214 961 l 214 1068 l 534 1068 l 534 961 l 320 961 l 320 854 l 214 854 l 214 641 l 641 641 l 641 534 l 747 534 l 747 106 l 641 106 l 641 0 l 106 0 z "},"7":{"ha":961,"x_min":0,"x_max":747,"o":"m 214 0 l 214 427 l 320 427 l 320 534 l 427 534 l 427 641 l 534 641 l 534 961 l 214 961 l 214 854 l 0 854 l 0 1068 l 747 1068 l 747 641 l 641 641 l 641 534 l 534 534 l 534 427 l 427 427 l 427 0 l 214 0 z "},"8":{"ha":961,"x_min":0,"x_max":747,"o":"m 534 106 l 534 534 l 214 534 l 214 106 l 534 106 m 534 641 l 534 961 l 214 961 l 214 641 l 534 641 m 106 0 l 106 106 l 0 106 l 0 534 l 106 534 l 106 641 l 0 641 l 0 961 l 106 961 l 106 1068 l 641 1068 l 641 961 l 747 961 l 747 641 l 641 641 l 641 534 l 747 534 l 747 106 l 641 106 l 641 0 l 106 0 z "},"9":{"ha":961,"x_min":0,"x_max":747,"o":"m 534 641 l 534 961 l 214 961 l 214 641 l 534 641 m 106 0 l 106 106 l 427 106 l 427 214 l 534 214 l 534 534 l 106 534 l 106 641 l 0 641 l 0 961 l 106 961 l 106 1068 l 641 1068 l 641 961 l 747 961 l 747 214 l 641 214 l 641 106 l 534 106 l 534 0 l 106 0 z "},"\u0000":{"ha":0,"x_min":0,"x_max":0,"o":""},"\r":{"ha":347,"x_min":0,"x_max":0,"o":""}," ":{"ha":374,"x_min":0,"x_max":0,"o":""},"!":{"ha":961,"x_min":214,"x_max":641,"o":"m 320 0 l 320 214 l 534 214 l 534 0 l 320 0 m 320 320 l 320 641 l 214 641 l 214 961 l 320 961 l 320 1068 l 534 1068 l 534 961 l 641 961 l 641 641 l 534 641 l 534 320 l 320 320 z "},"\"":{"ha":961,"x_min":106,"x_max":747,"o":"m 214 747 l 214 854 l 106 854 l 106 1175 l 320 1175 l 320 747 l 214 747 m 534 747 l 534 1175 l 747 1175 l 747 854 l 641 854 l 641 747 l 534 747 z "},"#":{"ha":961,"x_min":0,"x_max":747,"o":"m 427 320 l 427 641 l 320 641 l 320 320 l 427 320 m 106 0 l 106 214 l 0 214 l 0 320 l 106 320 l 106 641 l 0 641 l 0 747 l 106 747 l 106 961 l 320 961 l 320 747 l 427 747 l 427 961 l 641 961 l 641 747 l 747 747 l 747 641 l 641 641 l 641 320 l 747 320 l 747 214 l 641 214 l 641 0 l 427 0 l 427 214 l 320 214 l 320 0 l 106 0 z "},"$":{"ha":961,"x_min":0,"x_max":747,"o":"m 320 -214 l 320 0 l 106 0 l 106 106 l 0 106 l 0 320 l 106 320 l 106 214 l 214 214 l 214 106 l 534 106 l 534 534 l 106 534 l 106 641 l 0 641 l 0 961 l 106 961 l 106 1068 l 320 1068 l 320 1282 l 534 1282 l 534 1068 l 641 1068 l 641 961 l 747 961 l 747 747 l 641 747 l 641 854 l 534 854 l 534 961 l 214 961 l 214 641 l 641 641 l 641 534 l 747 534 l 747 106 l 641 106 l 641 0 l 534 0 l 534 -214 l 320 -214 z "},"%":{"ha":961,"x_min":0,"x_max":747,"o":"m 534 0 l 534 214 l 747 214 l 747 0 l 534 0 m 0 641 l 0 854 l 214 854 l 214 641 l 0 641 m 0 0 l 0 214 l 106 214 l 106 320 l 214 320 l 214 427 l 320 427 l 320 534 l 427 534 l 427 641 l 534 641 l 534 747 l 641 747 l 641 854 l 747 854 l 747 641 l 641 641 l 641 534 l 534 534 l 534 427 l 427 427 l 427 320 l 320 320 l 320 214 l 214 214 l 214 106 l 106 106 l 106 0 l 0 0 z "},"&":{"ha":961,"x_min":0,"x_max":747,"o":"m 427 747 l 427 961 l 320 961 l 320 747 l 427 747 m 106 0 l 106 106 l 0 106 l 0 534 l 106 534 l 106 641 l 214 641 l 214 747 l 106 747 l 106 961 l 214 961 l 214 1068 l 534 1068 l 534 961 l 641 961 l 641 747 l 534 747 l 534 641 l 427 641 l 427 534 l 534 534 l 534 641 l 747 641 l 747 534 l 641 534 l 641 106 l 747 106 l 747 0 l 534 0 l 534 106 l 427 106 l 427 427 l 320 427 l 320 534 l 214 534 l 214 106 l 427 106 l 427 0 l 106 0 z "},"'":{"ha":961,"x_min":106,"x_max":427,"o":"m 106 747 l 106 854 l 214 854 l 214 1175 l 427 1175 l 427 854 l 320 854 l 320 747 l 106 747 z "},"(":{"ha":961,"x_min":214,"x_max":641,"o":"m 427 0 l 427 106 l 320 106 l 320 214 l 214 214 l 214 854 l 320 854 l 320 961 l 427 961 l 427 1068 l 641 1068 l 641 961 l 534 961 l 534 854 l 427 854 l 427 214 l 534 214 l 534 106 l 641 106 l 641 0 l 427 0 z "},")":{"ha":961,"x_min":214,"x_max":641,"o":"m 214 0 l 214 106 l 320 106 l 320 214 l 427 214 l 427 854 l 320 854 l 320 961 l 214 961 l 214 1068 l 427 1068 l 427 961 l 534 961 l 534 854 l 641 854 l 641 214 l 534 214 l 534 106 l 427 106 l 427 0 l 214 0 z "},"*":{"ha":961,"x_min":0,"x_max":854,"o":"m 106 214 l 106 320 l 214 320 l 214 427 l 0 427 l 0 534 l 214 534 l 214 641 l 106 641 l 106 747 l 320 747 l 320 641 l 534 641 l 534 747 l 747 747 l 747 641 l 641 641 l 641 534 l 854 534 l 854 427 l 641 427 l 641 320 l 747 320 l 747 214 l 534 214 l 534 320 l 320 320 l 320 214 l 106 214 z "},"+":{"ha":961,"x_min":106,"x_max":747,"o":"m 320 214 l 320 427 l 106 427 l 106 534 l 320 534 l 320 747 l 534 747 l 534 534 l 747 534 l 747 427 l 534 427 l 534 214 l 320 214 z "},",":{"ha":961,"x_min":214,"x_max":534,"o":"m 214 -106 l 214 0 l 320 0 l 320 320 l 534 320 l 534 0 l 427 0 l 427 -106 l 214 -106 z "},"-":{"ha":961,"x_min":0,"x_max":747,"o":"m 0 427 l 0 534 l 747 534 l 747 427 l 0 427 z "},".":{"ha":961,"x_min":320,"x_max":534,"o":"m 320 0 l 320 214 l 534 214 l 534 0 l 320 0 z "},"/":{"ha":961,"x_min":0,"x_max":747,"o":"m 0 0 l 0 214 l 106 214 l 106 320 l 214 320 l 214 427 l 320 427 l 320 534 l 427 534 l 427 641 l 534 641 l 534 747 l 641 747 l 641 854 l 747 854 l 747 641 l 641 641 l 641 534 l 534 534 l 534 427 l 427 427 l 427 320 l 320 320 l 320 214 l 214 214 l 214 106 l 106 106 l 106 0 l 0 0 z "},":":{"ha":961,"x_min":320,"x_max":534,"o":"m 320 106 l 320 320 l 534 320 l 534 106 l 320 106 m 320 641 l 320 854 l 534 854 l 534 641 l 320 641 z "},";":{"ha":961,"x_min":214,"x_max":534,"o":"m 214 0 l 214 106 l 320 106 l 320 320 l 534 320 l 534 106 l 427 106 l 427 0 l 214 0 m 320 641 l 320 854 l 534 854 l 534 641 l 320 641 z "},"<":{"ha":961,"x_min":106,"x_max":747,"o":"m 534 0 l 534 106 l 427 106 l 427 214 l 320 214 l 320 320 l 214 320 l 214 427 l 106 427 l 106 534 l 214 534 l 214 641 l 320 641 l 320 747 l 427 747 l 427 854 l 534 854 l 534 961 l 747 961 l 747 854 l 641 854 l 641 747 l 534 747 l 534 641 l 427 641 l 427 534 l 320 534 l 320 427 l 427 427 l 427 320 l 534 320 l 534 214 l 641 214 l 641 106 l 747 106 l 747 0 l 534 0 z "},"=":{"ha":961,"x_min":106,"x_max":747,"o":"m 106 320 l 106 427 l 747 427 l 747 320 l 106 320 m 106 641 l 106 747 l 747 747 l 747 641 l 106 641 z "},">":{"ha":961,"x_min":106,"x_max":747,"o":"m 106 0 l 106 106 l 214 106 l 214 214 l 320 214 l 320 320 l 427 320 l 427 427 l 534 427 l 534 534 l 427 534 l 427 641 l 320 641 l 320 747 l 214 747 l 214 854 l 106 854 l 106 961 l 320 961 l 320 854 l 427 854 l 427 747 l 534 747 l 534 641 l 641 641 l 641 534 l 747 534 l 747 427 l 641 427 l 641 320 l 534 320 l 534 214 l 427 214 l 427 106 l 320 106 l 320 0 l 106 0 z "},"?":{"ha":961,"x_min":0,"x_max":747,"o":"m 320 0 l 320 214 l 534 214 l 534 0 l 320 0 m 320 320 l 320 641 l 427 641 l 427 747 l 534 747 l 534 961 l 214 961 l 214 747 l 0 747 l 0 961 l 106 961 l 106 1068 l 641 1068 l 641 961 l 747 961 l 747 747 l 641 747 l 641 641 l 534 641 l 534 320 l 320 320 z "},"@":{"ha":961,"x_min":0,"x_max":747,"o":"m 106 0 l 106 106 l 0 106 l 0 854 l 106 854 l 106 961 l 641 961 l 641 854 l 747 854 l 747 320 l 641 320 l 641 214 l 320 214 l 320 641 l 534 641 l 534 854 l 214 854 l 214 106 l 641 106 l 641 0 l 106 0 z "},"A":{"ha":961,"x_min":0,"x_max":747,"o":"m 534 534 l 534 747 l 427 747 l 427 854 l 320 854 l 320 747 l 214 747 l 214 534 l 534 534 m 0 0 l 0 747 l 106 747 l 106 854 l 214 854 l 214 961 l 320 961 l 320 1068 l 427 1068 l 427 961 l 534 961 l 534 854 l 641 854 l 641 747 l 747 747 l 747 0 l 534 0 l 534 427 l 214 427 l 214 0 l 0 0 z "},"B":{"ha":961,"x_min":0,"x_max":747,"o":"m 534 106 l 534 534 l 320 534 l 320 106 l 534 106 m 534 641 l 534 961 l 320 961 l 320 641 l 534 641 m 0 0 l 0 106 l 106 106 l 106 961 l 0 961 l 0 1068 l 641 1068 l 641 961 l 747 961 l 747 641 l 641 641 l 641 534 l 747 534 l 747 106 l 641 106 l 641 0 l 0 0 z "},"C":{"ha":961,"x_min":0,"x_max":747,"o":"m 214 0 l 214 106 l 106 106 l 106 214 l 0 214 l 0 854 l 106 854 l 106 961 l 214 961 l 214 1068 l 641 1068 l 641 961 l 747 961 l 747 747 l 641 747 l 641 854 l 534 854 l 534 961 l 320 961 l 320 854 l 214 854 l 214 214 l 320 214 l 320 106 l 534 106 l 534 214 l 641 214 l 641 320 l 747 320 l 747 106 l 641 106 l 641 0 l 214 0 z "},"D":{"ha":961,"x_min":0,"x_max":747,"o":"m 427 106 l 427 214 l 534 214 l 534 854 l 427 854 l 427 961 l 320 961 l 320 106 l 427 106 m 0 0 l 0 106 l 106 106 l 106 961 l 0 961 l 0 1068 l 534 1068 l 534 961 l 641 961 l 641 854 l 747 854 l 747 214 l 641 214 l 641 106 l 534 106 l 534 0 l 0 0 z "},"E":{"ha":961,"x_min":0,"x_max":747,"o":"m 0 0 l 0 106 l 106 106 l 106 961 l 0 961 l 0 1068 l 747 1068 l 747 747 l 641 747 l 641 854 l 534 854 l 534 961 l 320 961 l 320 641 l 427 641 l 427 747 l 534 747 l 534 427 l 427 427 l 427 534 l 320 534 l 320 106 l 534 106 l 534 214 l 641 214 l 641 320 l 747 320 l 747 0 l 0 0 z "},"F":{"ha":961,"x_min":0,"x_max":747,"o":"m 0 0 l 0 106 l 106 106 l 106 961 l 0 961 l 0 1068 l 747 1068 l 747 747 l 641 747 l 641 854 l 534 854 l 534 961 l 320 961 l 320 641 l 427 641 l 427 747 l 534 747 l 534 427 l 427 427 l 427 534 l 320 534 l 320 106 l 427 106 l 427 0 l 0 0 z "},"G":{"ha":961,"x_min":0,"x_max":747,"o":"m 641 0 l 641 106 l 534 106 l 534 427 l 320 427 l 320 534 l 747 534 l 747 0 l 641 0 m 214 0 l 214 106 l 106 106 l 106 214 l 0 214 l 0 854 l 106 854 l 106 961 l 214 961 l 214 1068 l 641 1068 l 641 961 l 747 961 l 747 747 l 641 747 l 641 854 l 534 854 l 534 961 l 320 961 l 320 854 l 214 854 l 214 214 l 320 214 l 320 106 l 534 106 l 534 0 l 214 0 z "},"H":{"ha":961,"x_min":0,"x_max":747,"o":"m 0 0 l 0 1068 l 214 1068 l 214 641 l 534 641 l 534 1068 l 747 1068 l 747 0 l 534 0 l 534 534 l 214 534 l 214 0 l 0 0 z "},"I":{"ha":961,"x_min":214,"x_max":641,"o":"m 214 0 l 214 106 l 320 106 l 320 961 l 214 961 l 214 1068 l 641 1068 l 641 961 l 534 961 l 534 106 l 641 106 l 641 0 l 214 0 z "},"J":{"ha":961,"x_min":0,"x_max":747,"o":"m 106 0 l 106 106 l 0 106 l 0 427 l 214 427 l 214 106 l 427 106 l 427 961 l 320 961 l 320 1068 l 747 1068 l 747 961 l 641 961 l 641 106 l 534 106 l 534 0 l 106 0 z "},"K":{"ha":961,"x_min":0,"x_max":747,"o":"m 0 0 l 0 106 l 106 106 l 106 961 l 0 961 l 0 1068 l 320 1068 l 320 641 l 427 641 l 427 747 l 534 747 l 534 1068 l 747 1068 l 747 747 l 641 747 l 641 641 l 534 641 l 534 427 l 641 427 l 641 320 l 747 320 l 747 0 l 534 0 l 534 320 l 427 320 l 427 427 l 320 427 l 320 0 l 0 0 z "},"L":{"ha":961,"x_min":0,"x_max":747,"o":"m 0 0 l 0 106 l 106 106 l 106 961 l 0 961 l 0 1068 l 427 1068 l 427 961 l 320 961 l 320 106 l 534 106 l 534 214 l 641 214 l 641 320 l 747 320 l 747 0 l 0 0 z "},"M":{"ha":961,"x_min":0,"x_max":854,"o":"m 0 0 l 0 1068 l 214 1068 l 214 961 l 320 961 l 320 854 l 534 854 l 534 961 l 641 961 l 641 1068 l 854 1068 l 854 0 l 641 0 l 641 641 l 534 641 l 534 534 l 320 534 l 320 641 l 214 641 l 214 0 l 0 0 z "},"N":{"ha":961,"x_min":0,"x_max":747,"o":"m 0 0 l 0 1068 l 214 1068 l 214 961 l 320 961 l 320 854 l 427 854 l 427 747 l 534 747 l 534 1068 l 747 1068 l 747 0 l 534 0 l 534 427 l 427 427 l 427 534 l 320 534 l 320 641 l 214 641 l 214 0 l 0 0 z "},"O":{"ha":961,"x_min":0,"x_max":747,"o":"m 534 106 l 534 961 l 214 961 l 214 106 l 534 106 m 106 0 l 106 106 l 0 106 l 0 961 l 106 961 l 106 1068 l 641 1068 l 641 961 l 747 961 l 747 106 l 641 106 l 641 0 l 106 0 z "},"P":{"ha":961,"x_min":0,"x_max":747,"o":"m 534 641 l 534 961 l 320 961 l 320 641 l 534 641 m 0 0 l 0 106 l 106 106 l 106 961 l 0 961 l 0 1068 l 641 1068 l 641 961 l 747 961 l 747 641 l 641 641 l 641 534 l 320 534 l 320 106 l 427 106 l 427 0 l 0 0 z "},"Q":{"ha":961,"x_min":0,"x_max":747,"o":"m 320 106 l 320 320 l 427 320 l 427 214 l 534 214 l 534 961 l 214 961 l 214 106 l 320 106 m 427 -214 l 427 0 l 106 0 l 106 106 l 0 106 l 0 961 l 106 961 l 106 1068 l 641 1068 l 641 961 l 747 961 l 747 106 l 641 106 l 641 -106 l 747 -106 l 747 -214 l 427 -214 z "},"R":{"ha":961,"x_min":0,"x_max":747,"o":"m 534 641 l 534 961 l 320 961 l 320 641 l 534 641 m 0 0 l 0 106 l 106 106 l 106 961 l 0 961 l 0 1068 l 641 1068 l 641 961 l 747 961 l 747 641 l 641 641 l 641 427 l 747 427 l 747 0 l 534 0 l 534 427 l 427 427 l 427 534 l 320 534 l 320 0 l 0 0 z "},"S":{"ha":961,"x_min":0,"x_max":747,"o":"m 106 0 l 106 106 l 0 106 l 0 320 l 214 320 l 214 106 l 534 106 l 534 427 l 427 427 l 427 534 l 214 534 l 214 641 l 106 641 l 106 747 l 0 747 l 0 961 l 106 961 l 106 1068 l 641 1068 l 641 961 l 747 961 l 747 747 l 534 747 l 534 961 l 214 961 l 214 747 l 320 747 l 320 641 l 534 641 l 534 534 l 641 534 l 641 427 l 747 427 l 747 106 l 641 106 l 641 0 l 106 0 z "},"T":{"ha":961,"x_min":0,"x_max":854,"o":"m 214 0 l 214 106 l 320 106 l 320 961 l 214 961 l 214 854 l 106 854 l 106 747 l 0 747 l 0 1068 l 854 1068 l 854 747 l 747 747 l 747 854 l 641 854 l 641 961 l 534 961 l 534 106 l 641 106 l 641 0 l 214 0 z "},"U":{"ha":961,"x_min":0,"x_max":747,"o":"m 106 0 l 106 106 l 0 106 l 0 1068 l 214 1068 l 214 106 l 534 106 l 534 1068 l 747 1068 l 747 106 l 641 106 l 641 0 l 106 0 z "},"V":{"ha":961,"x_min":0,"x_max":854,"o":"m 320 0 l 320 106 l 214 106 l 214 214 l 106 214 l 106 320 l 0 320 l 0 1068 l 214 1068 l 214 320 l 320 320 l 320 214 l 534 214 l 534 320 l 641 320 l 641 1068 l 854 1068 l 854 320 l 747 320 l 747 214 l 641 214 l 641 106 l 534 106 l 534 0 l 320 0 z "},"W":{"ha":961,"x_min":0,"x_max":854,"o":"m 106 0 l 106 214 l 0 214 l 0 1068 l 214 1068 l 214 320 l 320 320 l 320 534 l 534 534 l 534 320 l 641 320 l 641 1068 l 854 1068 l 854 214 l 747 214 l 747 0 l 534 0 l 534 214 l 320 214 l 320 0 l 106 0 z "},"X":{"ha":961,"x_min":0,"x_max":854,"o":"m 0 0 l 0 214 l 106 214 l 106 320 l 214 320 l 214 427 l 320 427 l 320 641 l 214 641 l 214 747 l 106 747 l 106 854 l 0 854 l 0 1068 l 214 1068 l 214 854 l 320 854 l 320 747 l 534 747 l 534 854 l 641 854 l 641 1068 l 854 1068 l 854 854 l 747 854 l 747 747 l 641 747 l 641 641 l 534 641 l 534 427 l 641 427 l 641 320 l 747 320 l 747 214 l 854 214 l 854 0 l 641 0 l 641 214 l 534 214 l 534 320 l 320 320 l 320 214 l 214 214 l 214 0 l 0 0 z "},"Y":{"ha":961,"x_min":0,"x_max":854,"o":"m 214 0 l 214 106 l 320 106 l 320 534 l 214 534 l 214 641 l 106 641 l 106 747 l 0 747 l 0 1068 l 214 1068 l 214 747 l 320 747 l 320 641 l 534 641 l 534 747 l 641 747 l 641 1068 l 854 1068 l 854 747 l 747 747 l 747 641 l 641 641 l 641 534 l 534 534 l 534 106 l 641 106 l 641 0 l 214 0 z "},"Z":{"ha":961,"x_min":0,"x_max":854,"o":"m 0 0 l 0 320 l 106 320 l 106 427 l 214 427 l 214 534 l 320 534 l 320 641 l 427 641 l 427 747 l 534 747 l 534 854 l 641 854 l 641 961 l 214 961 l 214 854 l 106 854 l 106 747 l 0 747 l 0 1068 l 854 1068 l 854 854 l 747 854 l 747 747 l 641 747 l 641 641 l 534 641 l 534 534 l 427 534 l 427 427 l 320 427 l 320 320 l 214 320 l 214 106 l 641 106 l 641 214 l 747 214 l 747 320 l 854 320 l 854 0 l 0 0 z "},"[":{"ha":961,"x_min":214,"x_max":641,"o":"m 214 0 l 214 1068 l 641 1068 l 641 961 l 427 961 l 427 106 l 641 106 l 641 0 l 214 0 z "},"\\":{"ha":961,"x_min":0,"x_max":747,"o":"m 641 0 l 641 106 l 534 106 l 534 214 l 427 214 l 427 320 l 320 320 l 320 427 l 214 427 l 214 534 l 106 534 l 106 641 l 0 641 l 0 961 l 106 961 l 106 854 l 214 854 l 214 747 l 320 747 l 320 641 l 427 641 l 427 534 l 534 534 l 534 427 l 641 427 l 641 320 l 747 320 l 747 0 l 641 0 z "},"]":{"ha":961,"x_min":214,"x_max":641,"o":"m 214 0 l 214 106 l 427 106 l 427 961 l 214 961 l 214 1068 l 641 1068 l 641 0 l 214 0 z "},"^":{"ha":961,"x_min":0,"x_max":747,"o":"m 0 854 l 0 961 l 106 961 l 106 1068 l 214 1068 l 214 1175 l 320 1175 l 320 1282 l 427 1282 l 427 1175 l 534 1175 l 534 1068 l 641 1068 l 641 961 l 747 961 l 747 854 l 534 854 l 534 961 l 427 961 l 427 1068 l 320 1068 l 320 961 l 214 961 l 214 854 l 0 854 z "},"_":{"ha":961,"x_min":0,"x_max":854,"o":"m 0 -214 l 0 -106 l 854 -106 l 854 -214 l 0 -214 z "},"`":{"ha":961,"x_min":214,"x_max":534,"o":"m 320 961 l 320 1068 l 214 1068 l 214 1282 l 427 1282 l 427 1068 l 534 1068 l 534 961 l 320 961 z "},"a":{"ha":961,"x_min":0,"x_max":747,"o":"m 106 0 l 106 106 l 0 106 l 0 427 l 106 427 l 106 534 l 427 534 l 427 641 l 106 641 l 106 747 l 534 747 l 534 641 l 641 641 l 641 106 l 747 106 l 747 0 l 534 0 l 534 106 l 427 106 l 427 427 l 214 427 l 214 106 l 427 106 l 427 0 l 106 0 z "},"b":{"ha":961,"x_min":0,"x_max":747,"o":"m 534 106 l 534 534 l 427 534 l 427 641 l 320 641 l 320 106 l 534 106 m 106 0 l 106 961 l 0 961 l 0 1068 l 320 1068 l 320 747 l 534 747 l 534 641 l 641 641 l 641 534 l 747 534 l 747 106 l 641 106 l 641 0 l 106 0 z "},"c":{"ha":961,"x_min":0,"x_max":747,"o":"m 106 0 l 106 106 l 0 106 l 0 641 l 106 641 l 106 747 l 641 747 l 641 641 l 747 641 l 747 534 l 534 534 l 534 641 l 214 641 l 214 106 l 534 106 l 534 214 l 747 214 l 747 106 l 641 106 l 641 0 l 106 0 z "},"d":{"ha":961,"x_min":0,"x_max":747,"o":"m 106 0 l 106 106 l 0 106 l 0 534 l 106 534 l 106 641 l 214 641 l 214 747 l 427 747 l 427 961 l 320 961 l 320 1068 l 641 1068 l 641 106 l 747 106 l 747 0 l 534 0 l 534 106 l 427 106 l 427 641 l 320 641 l 320 534 l 214 534 l 214 106 l 427 106 l 427 0 l 106 0 z "},"e":{"ha":961,"x_min":0,"x_max":747,"o":"m 534 534 l 534 641 l 214 641 l 214 534 l 534 534 m 106 0 l 106 106 l 0 106 l 0 641 l 106 641 l 106 747 l 641 747 l 641 641 l 747 641 l 747 427 l 214 427 l 214 106 l 534 106 l 534 214 l 747 214 l 747 106 l 641 106 l 641 0 l 106 0 z "},"f":{"ha":961,"x_min":0,"x_max":641,"o":"m 0 0 l 0 106 l 106 106 l 106 534 l 0 534 l 0 641 l 106 641 l 106 961 l 214 961 l 214 1068 l 534 1068 l 534 961 l 641 961 l 641 747 l 534 747 l 534 854 l 427 854 l 427 961 l 320 961 l 320 641 l 427 641 l 427 534 l 320 534 l 320 106 l 427 106 l 427 0 l 0 0 z "},"g":{"ha":961,"x_min":0,"x_max":747,"o":"m 106 -320 l 106 -214 l 0 -214 l 0 -106 l 214 -106 l 214 -214 l 427 -214 l 427 0 l 106 0 l 106 106 l 0 106 l 0 641 l 106 641 l 106 747 l 427 747 l 427 641 l 214 641 l 214 106 l 427 106 l 427 641 l 534 641 l 534 747 l 747 747 l 747 641 l 641 641 l 641 -214 l 534 -214 l 534 -320 l 106 -320 z "},"h":{"ha":961,"x_min":0,"x_max":747,"o":"m 534 0 l 534 641 l 427 641 l 427 747 l 641 747 l 641 641 l 747 641 l 747 0 l 534 0 m 0 0 l 0 106 l 106 106 l 106 961 l 0 961 l 0 1068 l 320 1068 l 320 641 l 427 641 l 427 534 l 320 534 l 320 0 l 0 0 z "},"i":{"ha":961,"x_min":214,"x_max":641,"o":"m 214 0 l 214 106 l 320 106 l 320 641 l 214 641 l 214 747 l 534 747 l 534 106 l 641 106 l 641 0 l 214 0 m 320 854 l 320 1068 l 534 1068 l 534 854 l 320 854 z "},"j":{"ha":961,"x_min":106,"x_max":747,"o":"m 214 -320 l 214 -214 l 106 -214 l 106 0 l 320 0 l 320 -214 l 534 -214 l 534 641 l 427 641 l 427 747 l 747 747 l 747 -214 l 641 -214 l 641 -320 l 214 -320 m 534 854 l 534 1068 l 747 1068 l 747 854 l 534 854 z "},"k":{"ha":961,"x_min":0,"x_max":747,"o":"m 0 0 l 0 106 l 106 106 l 106 961 l 0 961 l 0 1068 l 320 1068 l 320 534 l 427 534 l 427 641 l 534 641 l 534 747 l 747 747 l 747 641 l 641 641 l 641 534 l 534 534 l 534 320 l 641 320 l 641 214 l 747 214 l 747 0 l 534 0 l 534 214 l 427 214 l 427 320 l 320 320 l 320 0 l 0 0 z "},"l":{"ha":961,"x_min":214,"x_max":641,"o":"m 214 0 l 214 106 l 320 106 l 320 961 l 214 961 l 214 1068 l 534 1068 l 534 106 l 641 106 l 641 0 l 214 0 z "},"m":{"ha":961,"x_min":0,"x_max":854,"o":"m 0 0 l 0 747 l 320 747 l 320 641 l 534 641 l 534 747 l 747 747 l 747 641 l 854 641 l 854 0 l 641 0 l 641 534 l 534 534 l 534 0 l 320 0 l 320 534 l 214 534 l 214 0 l 0 0 z "},"n":{"ha":961,"x_min":0,"x_max":747,"o":"m 106 0 l 106 641 l 0 641 l 0 747 l 214 747 l 214 641 l 320 641 l 320 0 l 106 0 m 534 0 l 534 641 l 320 641 l 320 747 l 641 747 l 641 641 l 747 641 l 747 0 l 534 0 z "},"o":{"ha":961,"x_min":0,"x_max":747,"o":"m 534 106 l 534 641 l 214 641 l 214 106 l 534 106 m 106 0 l 106 106 l 0 106 l 0 641 l 106 641 l 106 747 l 641 747 l 641 641 l 747 641 l 747 106 l 641 106 l 641 0 l 106 0 z "},"p":{"ha":961,"x_min":0,"x_max":747,"o":"m 0 -320 l 0 -214 l 106 -214 l 106 641 l 0 641 l 0 747 l 214 747 l 214 641 l 320 641 l 320 106 l 534 106 l 534 641 l 320 641 l 320 747 l 641 747 l 641 641 l 747 641 l 747 106 l 641 106 l 641 0 l 320 0 l 320 -214 l 427 -214 l 427 -320 l 0 -320 z "},"q":{"ha":961,"x_min":0,"x_max":747,"o":"m 320 -320 l 320 -214 l 427 -214 l 427 0 l 106 0 l 106 106 l 0 106 l 0 641 l 106 641 l 106 747 l 427 747 l 427 641 l 214 641 l 214 106 l 427 106 l 427 641 l 534 641 l 534 747 l 747 747 l 747 641 l 641 641 l 641 -214 l 747 -214 l 747 -320 l 320 -320 z "},"r":{"ha":961,"x_min":0,"x_max":747,"o":"m 0 0 l 0 106 l 106 106 l 106 641 l 0 641 l 0 747 l 214 747 l 214 641 l 320 641 l 320 747 l 641 747 l 641 641 l 747 641 l 747 427 l 534 427 l 534 641 l 427 641 l 427 534 l 320 534 l 320 106 l 427 106 l 427 0 l 0 0 z "},"s":{"ha":961,"x_min":0,"x_max":747,"o":"m 106 0 l 106 106 l 0 106 l 0 214 l 214 214 l 214 106 l 534 106 l 534 214 l 427 214 l 427 320 l 214 320 l 214 427 l 106 427 l 106 534 l 0 534 l 0 641 l 106 641 l 106 747 l 641 747 l 641 641 l 747 641 l 747 534 l 534 534 l 534 641 l 214 641 l 214 534 l 320 534 l 320 427 l 534 427 l 534 320 l 641 320 l 641 214 l 747 214 l 747 106 l 641 106 l 641 0 l 106 0 z "},"t":{"ha":961,"x_min":0,"x_max":747,"o":"m 320 0 l 320 106 l 214 106 l 214 641 l 0 641 l 0 747 l 214 747 l 214 961 l 320 961 l 320 1068 l 427 1068 l 427 747 l 641 747 l 641 641 l 427 641 l 427 106 l 534 106 l 534 214 l 747 214 l 747 106 l 641 106 l 641 0 l 320 0 z "},"u":{"ha":961,"x_min":0,"x_max":747,"o":"m 106 0 l 106 106 l 0 106 l 0 747 l 214 747 l 214 106 l 427 106 l 427 0 l 106 0 m 534 0 l 534 106 l 427 106 l 427 747 l 641 747 l 641 106 l 747 106 l 747 0 l 534 0 z "},"v":{"ha":961,"x_min":0,"x_max":854,"o":"m 320 0 l 320 106 l 214 106 l 214 214 l 106 214 l 106 320 l 0 320 l 0 747 l 214 747 l 214 320 l 320 320 l 320 214 l 534 214 l 534 320 l 641 320 l 641 747 l 854 747 l 854 320 l 747 320 l 747 214 l 641 214 l 641 106 l 534 106 l 534 0 l 320 0 z "},"w":{"ha":961,"x_min":0,"x_max":854,"o":"m 106 0 l 106 106 l 0 106 l 0 747 l 214 747 l 214 214 l 320 214 l 320 427 l 534 427 l 534 214 l 641 214 l 641 747 l 854 747 l 854 106 l 747 106 l 747 0 l 534 0 l 534 106 l 320 106 l 320 0 l 106 0 z "},"x":{"ha":961,"x_min":0,"x_max":854,"o":"m 0 0 l 0 106 l 106 106 l 106 214 l 214 214 l 214 320 l 320 320 l 320 427 l 214 427 l 214 534 l 106 534 l 106 641 l 0 641 l 0 747 l 214 747 l 214 641 l 320 641 l 320 534 l 534 534 l 534 641 l 641 641 l 641 747 l 854 747 l 854 641 l 747 641 l 747 534 l 641 534 l 641 427 l 534 427 l 534 320 l 641 320 l 641 214 l 747 214 l 747 106 l 854 106 l 854 0 l 641 0 l 641 106 l 534 106 l 534 214 l 320 214 l 320 106 l 214 106 l 214 0 l 0 0 z "},"y":{"ha":961,"x_min":0,"x_max":747,"o":"m 0 -320 l 0 -214 l 427 -214 l 427 -106 l 534 -106 l 534 0 l 106 0 l 106 106 l 0 106 l 0 747 l 214 747 l 214 106 l 534 106 l 534 747 l 747 747 l 747 -106 l 641 -106 l 641 -214 l 534 -214 l 534 -320 l 0 -320 z "},"z":{"ha":961,"x_min":0,"x_max":747,"o":"m 0 0 l 0 214 l 106 214 l 106 320 l 214 320 l 214 427 l 320 427 l 320 534 l 427 534 l 427 641 l 214 641 l 214 534 l 0 534 l 0 747 l 747 747 l 747 641 l 641 641 l 641 534 l 534 534 l 534 427 l 427 427 l 427 320 l 320 320 l 320 214 l 214 214 l 214 106 l 534 106 l 534 214 l 747 214 l 747 0 l 0 0 z "},"{":{"ha":961,"x_min":106,"x_max":747,"o":"m 427 0 l 427 106 l 320 106 l 320 534 l 106 534 l 106 641 l 320 641 l 320 961 l 427 961 l 427 1068 l 747 1068 l 747 961 l 534 961 l 534 641 l 427 641 l 427 534 l 534 534 l 534 106 l 747 106 l 747 0 l 427 0 z "},"|":{"ha":961,"x_min":320,"x_max":534,"o":"m 320 0 l 320 534 l 534 534 l 534 0 l 320 0 m 320 641 l 320 1068 l 534 1068 l 534 641 l 320 641 z "},"}":{"ha":961,"x_min":106,"x_max":747,"o":"m 106 0 l 106 106 l 320 106 l 320 534 l 427 534 l 427 641 l 320 641 l 320 961 l 106 961 l 106 1068 l 427 1068 l 427 961 l 534 961 l 534 641 l 747 641 l 747 534 l 534 534 l 534 106 l 427 106 l 427 0 l 106 0 z "},"~":{"ha":961,"x_min":0,"x_max":747,"o":"m 0 854 l 0 961 l 106 961 l 106 1068 l 427 1068 l 427 961 l 534 961 l 534 1068 l 747 1068 l 747 961 l 641 961 l 641 854 l 320 854 l 320 961 l 214 961 l 214 854 l 0 854 z "}," ":{"ha":961,"x_min":0,"x_max":0,"o":""},"¡":{"ha":961,"x_min":214,"x_max":641,"o":"m 320 0 l 320 106 l 214 106 l 214 427 l 320 427 l 320 747 l 534 747 l 534 427 l 641 427 l 641 106 l 534 106 l 534 0 l 320 0 m 320 854 l 320 1068 l 534 1068 l 534 854 l 320 854 z "},"¢":{"ha":961,"x_min":0,"x_max":854,"o":"m 320 0 l 320 214 l 106 214 l 106 320 l 0 320 l 0 854 l 106 854 l 106 961 l 320 961 l 320 1175 l 534 1175 l 534 961 l 747 961 l 747 854 l 854 854 l 854 747 l 641 747 l 641 854 l 214 854 l 214 320 l 641 320 l 641 427 l 854 427 l 854 320 l 747 320 l 747 214 l 534 214 l 534 0 l 320 0 z "},"£":{"ha":961,"x_min":0,"x_max":747,"o":"m 0 0 l 0 214 l 106 214 l 106 641 l 0 641 l 0 747 l 106 747 l 106 1068 l 214 1068 l 214 1175 l 534 1175 l 534 1068 l 641 1068 l 641 854 l 534 854 l 534 961 l 427 961 l 427 1068 l 320 1068 l 320 747 l 427 747 l 427 641 l 320 641 l 320 106 l 534 106 l 534 214 l 747 214 l 747 106 l 641 106 l 641 0 l 0 0 z "},"¤":{"ha":961,"x_min":0,"x_max":747,"o":"m 534 214 l 534 641 l 214 641 l 214 214 l 534 214 m 0 0 l 0 106 l 106 106 l 106 214 l 0 214 l 0 641 l 106 641 l 106 747 l 0 747 l 0 854 l 214 854 l 214 747 l 534 747 l 534 854 l 747 854 l 747 747 l 641 747 l 641 641 l 747 641 l 747 214 l 641 214 l 641 106 l 747 106 l 747 0 l 534 0 l 534 106 l 214 106 l 214 0 l 0 0 z "},"¥":{"ha":961,"x_min":0,"x_max":854,"o":"m 320 0 l 320 320 l 0 320 l 0 427 l 320 427 l 320 534 l 0 534 l 0 641 l 320 641 l 320 747 l 214 747 l 214 854 l 106 854 l 106 961 l 0 961 l 0 1068 l 214 1068 l 214 961 l 320 961 l 320 854 l 534 854 l 534 961 l 641 961 l 641 1068 l 854 1068 l 854 961 l 747 961 l 747 854 l 641 854 l 641 747 l 534 747 l 534 641 l 854 641 l 854 534 l 534 534 l 534 427 l 854 427 l 854 320 l 534 320 l 534 0 l 320 0 z "},"¦":{"ha":961,"x_min":320,"x_max":534,"o":"m 320 0 l 320 534 l 534 534 l 534 0 l 320 0 m 320 641 l 320 1068 l 534 1068 l 534 641 l 320 641 z "},"§":{"ha":961,"x_min":0,"x_max":747,"o":"m 427 320 l 427 427 l 534 427 l 534 641 l 427 641 l 427 747 l 320 747 l 320 641 l 214 641 l 214 427 l 320 427 l 320 320 l 427 320 m 106 -106 l 106 0 l 0 0 l 0 106 l 214 106 l 214 0 l 534 0 l 534 106 l 427 106 l 427 214 l 214 214 l 214 320 l 106 320 l 106 427 l 0 427 l 0 641 l 106 641 l 106 747 l 214 747 l 214 854 l 106 854 l 106 961 l 0 961 l 0 1068 l 106 1068 l 106 1175 l 641 1175 l 641 1068 l 747 1068 l 747 961 l 534 961 l 534 1068 l 214 1068 l 214 961 l 320 961 l 320 854 l 534 854 l 534 747 l 641 747 l 641 641 l 747 641 l 747 427 l 641 427 l 641 320 l 534 320 l 534 214 l 641 214 l 641 106 l 747 106 l 747 0 l 641 0 l 641 -106 l 106 -106 z "},"¨":{"ha":961,"x_min":0,"x_max":747,"o":"m 0 1068 l 0 1175 l 214 1175 l 214 1068 l 0 1068 m 534 1068 l 534 1175 l 747 1175 l 747 1068 l 534 1068 z "},"©":{"ha":961,"x_min":0,"x_max":747,"o":"m 106 0 l 106 106 l 641 106 l 641 0 l 106 0 m 320 214 l 320 320 l 534 320 l 534 214 l 320 214 m 214 320 l 214 747 l 320 747 l 320 320 l 214 320 m 320 747 l 320 854 l 534 854 l 534 747 l 320 747 m 0 106 l 0 961 l 106 961 l 106 106 l 0 106 m 641 106 l 641 961 l 747 961 l 747 106 l 641 106 m 106 961 l 106 1068 l 641 1068 l 641 961 l 106 961 z "},"ª":{"ha":961,"x_min":106,"x_max":747,"o":"m 106 534 l 106 641 l 747 641 l 747 534 l 106 534 m 427 854 l 427 1068 l 320 1068 l 320 854 l 427 854 m 214 747 l 214 854 l 106 854 l 106 1068 l 214 1068 l 214 1175 l 641 1175 l 641 854 l 747 854 l 747 747 l 214 747 z "},"«":{"ha":961,"x_min":0,"x_max":747,"o":"m 214 214 l 214 320 l 106 320 l 106 427 l 0 427 l 0 534 l 106 534 l 106 641 l 214 641 l 214 747 l 427 747 l 427 641 l 320 641 l 320 534 l 214 534 l 214 427 l 320 427 l 320 320 l 427 320 l 427 214 l 214 214 m 534 214 l 534 320 l 427 320 l 427 427 l 320 427 l 320 534 l 427 534 l 427 641 l 534 641 l 534 747 l 747 747 l 747 641 l 641 641 l 641 534 l 534 534 l 534 427 l 641 427 l 641 320 l 747 320 l 747 214 l 534 214 z "},"¬":{"ha":961,"x_min":0,"x_max":747,"o":"m 534 106 l 534 534 l 0 534 l 0 641 l 747 641 l 747 106 l 534 106 z "},"­":{"ha":961,"x_min":0,"x_max":747,"o":"m 0 427 l 0 534 l 747 534 l 747 427 l 0 427 z "},"®":{"ha":961,"x_min":0,"x_max":747,"o":"m 106 106 l 106 214 l 641 214 l 641 106 l 106 106 m 427 320 l 427 534 l 534 534 l 534 320 l 427 320 m 427 641 l 427 747 l 534 747 l 534 641 l 427 641 m 214 320 l 214 854 l 427 854 l 427 747 l 320 747 l 320 641 l 427 641 l 427 534 l 320 534 l 320 320 l 214 320 m 0 214 l 0 961 l 106 961 l 106 214 l 0 214 m 641 214 l 641 961 l 747 961 l 747 214 l 641 214 m 106 961 l 106 1068 l 641 1068 l 641 961 l 106 961 z "},"¯":{"ha":961,"x_min":0,"x_max":854,"o":"m 0 1068 l 0 1175 l 854 1175 l 854 1068 l 0 1068 z "},"°":{"ha":961,"x_min":106,"x_max":641,"o":"m 427 854 l 427 1068 l 320 1068 l 320 854 l 427 854 m 214 747 l 214 854 l 106 854 l 106 1068 l 214 1068 l 214 1175 l 534 1175 l 534 1068 l 641 1068 l 641 854 l 534 854 l 534 747 l 214 747 z "},"±":{"ha":961,"x_min":0,"x_max":854,"o":"m 0 0 l 0 106 l 854 106 l 854 0 l 0 0 m 320 320 l 320 534 l 106 534 l 106 641 l 320 641 l 320 854 l 534 854 l 534 641 l 747 641 l 747 534 l 534 534 l 534 320 l 320 320 z "},"²":{"ha":961,"x_min":0,"x_max":534,"o":"m 0 534 l 0 747 l 106 747 l 106 854 l 214 854 l 214 961 l 320 961 l 320 1068 l 214 1068 l 214 961 l 0 961 l 0 1068 l 106 1068 l 106 1175 l 427 1175 l 427 1068 l 534 1068 l 534 961 l 427 961 l 427 854 l 320 854 l 320 747 l 214 747 l 214 641 l 427 641 l 427 747 l 534 747 l 534 534 l 0 534 z "},"³":{"ha":961,"x_min":0,"x_max":534,"o":"m 0 534 l 0 641 l 320 641 l 320 854 l 106 854 l 106 961 l 320 961 l 320 1068 l 0 1068 l 0 1175 l 427 1175 l 427 1068 l 534 1068 l 534 961 l 427 961 l 427 854 l 534 854 l 534 641 l 427 641 l 427 534 l 0 534 z "},"´":{"ha":961,"x_min":214,"x_max":641,"o":"m 214 854 l 214 961 l 320 961 l 320 1068 l 427 1068 l 427 1175 l 641 1175 l 641 1068 l 534 1068 l 534 961 l 427 961 l 427 854 l 214 854 z "},"µ":{"ha":961,"x_min":0,"x_max":747,"o":"m 0 -106 l 0 0 l 106 0 l 106 854 l 320 854 l 320 320 l 534 320 l 534 854 l 747 854 l 747 320 l 641 320 l 641 214 l 320 214 l 320 0 l 214 0 l 214 -106 l 0 -106 z "},"¶":{"ha":961,"x_min":0,"x_max":854,"o":"m 320 641 l 320 961 l 214 961 l 214 641 l 320 641 m 320 0 l 320 534 l 106 534 l 106 641 l 0 641 l 0 961 l 106 961 l 106 1068 l 854 1068 l 854 0 l 641 0 l 641 961 l 534 961 l 534 0 l 320 0 z "},"·":{"ha":961,"x_min":320,"x_max":534,"o":"m 320 320 l 320 427 l 534 427 l 534 320 l 320 320 z "},"¸":{"ha":961,"x_min":106,"x_max":641,"o":"m 106 -214 l 106 -106 l 427 -106 l 427 0 l 320 0 l 320 106 l 534 106 l 534 0 l 641 0 l 641 -106 l 534 -106 l 534 -214 l 106 -214 z "},"¹":{"ha":961,"x_min":106,"x_max":534,"o":"m 106 534 l 106 641 l 214 641 l 214 961 l 106 961 l 106 1068 l 214 1068 l 214 1175 l 427 1175 l 427 641 l 534 641 l 534 534 l 106 534 z "},"º":{"ha":961,"x_min":106,"x_max":641,"o":"m 106 534 l 106 641 l 641 641 l 641 534 l 106 534 m 427 854 l 427 1068 l 320 1068 l 320 854 l 427 854 m 214 747 l 214 854 l 106 854 l 106 1068 l 214 1068 l 214 1175 l 534 1175 l 534 1068 l 641 1068 l 641 854 l 534 854 l 534 747 l 214 747 z "},"»":{"ha":961,"x_min":0,"x_max":747,"o":"m 0 214 l 0 320 l 106 320 l 106 427 l 214 427 l 214 534 l 106 534 l 106 641 l 0 641 l 0 747 l 214 747 l 214 641 l 320 641 l 320 534 l 427 534 l 427 427 l 320 427 l 320 320 l 214 320 l 214 214 l 0 214 m 320 214 l 320 320 l 427 320 l 427 427 l 534 427 l 534 534 l 427 534 l 427 641 l 320 641 l 320 747 l 534 747 l 534 641 l 641 641 l 641 534 l 747 534 l 747 427 l 641 427 l 641 320 l 534 320 l 534 214 l 320 214 z "},"¼":{"ha":961,"x_min":0,"x_max":747,"o":"m 534 -214 l 534 0 l 214 0 l 214 106 l 320 106 l 320 214 l 427 214 l 427 106 l 534 106 l 534 214 l 427 214 l 427 320 l 534 320 l 534 427 l 747 427 l 747 -214 l 534 -214 m 0 106 l 0 320 l 106 320 l 106 427 l 214 427 l 214 534 l 320 534 l 320 641 l 427 641 l 427 747 l 534 747 l 534 854 l 641 854 l 641 961 l 747 961 l 747 747 l 641 747 l 641 641 l 534 641 l 534 534 l 427 534 l 427 427 l 320 427 l 320 320 l 214 320 l 214 214 l 106 214 l 106 106 l 0 106 m 0 641 l 0 1175 l 214 1175 l 214 641 l 0 641 z "},"½":{"ha":961,"x_min":0,"x_max":854,"o":"m 320 -214 l 320 -106 l 427 -106 l 427 0 l 534 0 l 534 106 l 641 106 l 641 214 l 534 214 l 534 106 l 320 106 l 320 214 l 427 214 l 427 320 l 747 320 l 747 214 l 854 214 l 854 106 l 747 106 l 747 0 l 641 0 l 641 -106 l 854 -106 l 854 -214 l 320 -214 m 0 106 l 0 320 l 106 320 l 106 427 l 214 427 l 214 534 l 320 534 l 320 641 l 427 641 l 427 747 l 534 747 l 534 854 l 641 854 l 641 961 l 747 961 l 747 747 l 641 747 l 641 641 l 534 641 l 534 534 l 427 534 l 427 427 l 320 427 l 320 320 l 214 320 l 214 214 l 106 214 l 106 106 l 0 106 m 0 641 l 0 1175 l 214 1175 l 214 641 l 0 641 z "},"¾":{"ha":961,"x_min":0,"x_max":747,"o":"m 534 -214 l 534 0 l 214 0 l 214 106 l 320 106 l 320 214 l 427 214 l 427 106 l 534 106 l 534 214 l 427 214 l 427 320 l 534 320 l 534 427 l 747 427 l 747 -214 l 534 -214 m 0 106 l 0 320 l 106 320 l 106 427 l 214 427 l 214 534 l 320 534 l 320 641 l 427 641 l 427 747 l 534 747 l 534 854 l 641 854 l 641 961 l 747 961 l 747 747 l 641 747 l 641 641 l 534 641 l 534 534 l 427 534 l 427 427 l 320 427 l 320 320 l 214 320 l 214 214 l 106 214 l 106 106 l 0 106 m 0 641 l 0 747 l 214 747 l 214 854 l 106 854 l 106 961 l 214 961 l 214 1068 l 0 1068 l 0 1175 l 320 1175 l 320 1068 l 427 1068 l 427 961 l 320 961 l 320 854 l 427 854 l 427 747 l 320 747 l 320 641 l 0 641 z "},"¿":{"ha":961,"x_min":0,"x_max":747,"o":"m 106 0 l 106 106 l 0 106 l 0 427 l 106 427 l 106 534 l 214 534 l 214 747 l 427 747 l 427 534 l 320 534 l 320 427 l 214 427 l 214 106 l 534 106 l 534 320 l 747 320 l 747 106 l 641 106 l 641 0 l 106 0 m 214 854 l 214 1068 l 427 1068 l 427 854 l 214 854 z "},"À":{"ha":961,"x_min":0,"x_max":747,"o":"m 534 534 l 534 747 l 427 747 l 427 854 l 320 854 l 320 747 l 214 747 l 214 534 l 534 534 m 0 0 l 0 747 l 106 747 l 106 854 l 214 854 l 214 961 l 320 961 l 320 1068 l 427 1068 l 427 961 l 534 961 l 534 854 l 641 854 l 641 747 l 747 747 l 747 0 l 534 0 l 534 427 l 214 427 l 214 0 l 0 0 m 534 1068 l 534 1175 l 427 1175 l 427 1282 l 641 1282 l 641 1175 l 747 1175 l 747 1068 l 534 1068 z "},"Á":{"ha":961,"x_min":0,"x_max":747,"o":"m 534 534 l 534 747 l 427 747 l 427 854 l 320 854 l 320 747 l 214 747 l 214 534 l 534 534 m 0 0 l 0 747 l 106 747 l 106 854 l 214 854 l 214 961 l 320 961 l 320 1068 l 427 1068 l 427 961 l 534 961 l 534 854 l 641 854 l 641 747 l 747 747 l 747 0 l 534 0 l 534 427 l 214 427 l 214 0 l 0 0 m 0 1068 l 0 1175 l 106 1175 l 106 1282 l 320 1282 l 320 1175 l 214 1175 l 214 1068 l 0 1068 z "},"Â":{"ha":961,"x_min":0,"x_max":747,"o":"m 534 534 l 534 747 l 427 747 l 427 854 l 320 854 l 320 747 l 214 747 l 214 534 l 534 534 m 0 0 l 0 747 l 106 747 l 106 854 l 214 854 l 214 961 l 320 961 l 320 1068 l 427 1068 l 427 961 l 534 961 l 534 854 l 641 854 l 641 747 l 747 747 l 747 0 l 534 0 l 534 427 l 214 427 l 214 0 l 0 0 m 0 1068 l 0 1175 l 106 1175 l 106 1282 l 641 1282 l 641 1175 l 747 1175 l 747 1068 l 534 1068 l 534 1175 l 214 1175 l 214 1068 l 0 1068 z "},"Ã":{"ha":961,"x_min":0,"x_max":747,"o":"m 534 427 l 534 641 l 427 641 l 427 747 l 320 747 l 320 641 l 214 641 l 214 427 l 534 427 m 0 0 l 0 641 l 106 641 l 106 747 l 214 747 l 214 854 l 320 854 l 320 961 l 427 961 l 427 854 l 534 854 l 534 747 l 641 747 l 641 641 l 747 641 l 747 0 l 534 0 l 534 320 l 214 320 l 214 0 l 0 0 m 0 1068 l 0 1175 l 106 1175 l 106 1282 l 427 1282 l 427 1175 l 534 1175 l 534 1282 l 747 1282 l 747 1175 l 641 1175 l 641 1068 l 320 1068 l 320 1175 l 214 1175 l 214 1068 l 0 1068 z "},"Ä":{"ha":961,"x_min":0,"x_max":747,"o":"m 534 427 l 534 641 l 427 641 l 427 747 l 320 747 l 320 641 l 214 641 l 214 427 l 534 427 m 0 0 l 0 641 l 106 641 l 106 747 l 214 747 l 214 854 l 320 854 l 320 961 l 427 961 l 427 854 l 534 854 l 534 747 l 641 747 l 641 641 l 747 641 l 747 0 l 534 0 l 534 320 l 214 320 l 214 0 l 0 0 m 0 1068 l 0 1175 l 214 1175 l 214 1068 l 0 1068 m 534 1068 l 534 1175 l 747 1175 l 747 1068 l 534 1068 z "},"Å":{"ha":961,"x_min":0,"x_max":747,"o":"m 534 427 l 534 641 l 427 641 l 427 747 l 320 747 l 320 641 l 214 641 l 214 427 l 534 427 m 0 0 l 0 641 l 106 641 l 106 747 l 214 747 l 214 854 l 534 854 l 534 747 l 641 747 l 641 641 l 747 641 l 747 0 l 534 0 l 534 320 l 214 320 l 214 0 l 0 0 m 427 1068 l 427 1175 l 320 1175 l 320 1068 l 427 1068 m 214 961 l 214 1068 l 106 1068 l 106 1175 l 214 1175 l 214 1282 l 534 1282 l 534 1175 l 641 1175 l 641 1068 l 534 1068 l 534 961 l 214 961 z "},"Æ":{"ha":961,"x_min":0,"x_max":747,"o":"m 427 641 l 427 961 l 320 961 l 320 854 l 214 854 l 214 641 l 427 641 m 0 0 l 0 854 l 106 854 l 106 961 l 214 961 l 214 1068 l 747 1068 l 747 961 l 641 961 l 641 641 l 747 641 l 747 534 l 641 534 l 641 106 l 747 106 l 747 0 l 427 0 l 427 534 l 214 534 l 214 0 l 0 0 z "},"Ç":{"ha":961,"x_min":0,"x_max":747,"o":"m 106 -214 l 106 -106 l 534 -106 l 534 0 l 427 0 l 427 106 l 214 106 l 214 214 l 106 214 l 106 320 l 0 320 l 0 854 l 106 854 l 106 961 l 214 961 l 214 1068 l 641 1068 l 641 961 l 747 961 l 747 747 l 641 747 l 641 854 l 534 854 l 534 961 l 320 961 l 320 854 l 214 854 l 214 320 l 320 320 l 320 214 l 534 214 l 534 320 l 641 320 l 641 427 l 747 427 l 747 214 l 641 214 l 641 0 l 747 0 l 747 -106 l 641 -106 l 641 -214 l 106 -214 z "},"È":{"ha":961,"x_min":0,"x_max":747,"o":"m 0 0 l 0 106 l 106 106 l 106 854 l 0 854 l 0 961 l 747 961 l 747 641 l 641 641 l 641 747 l 534 747 l 534 854 l 320 854 l 320 534 l 427 534 l 427 641 l 534 641 l 534 320 l 427 320 l 427 427 l 320 427 l 320 106 l 534 106 l 534 214 l 641 214 l 641 320 l 747 320 l 747 0 l 0 0 m 320 1068 l 320 1175 l 214 1175 l 214 1282 l 427 1282 l 427 1175 l 534 1175 l 534 1068 l 320 1068 z "},"É":{"ha":961,"x_min":0,"x_max":747,"o":"m 0 0 l 0 106 l 106 106 l 106 747 l 0 747 l 0 854 l 747 854 l 747 641 l 534 641 l 534 747 l 320 747 l 320 534 l 641 534 l 641 427 l 320 427 l 320 106 l 534 106 l 534 214 l 747 214 l 747 0 l 0 0 m 106 961 l 106 1068 l 214 1068 l 214 1175 l 320 1175 l 320 1282 l 534 1282 l 534 1175 l 427 1175 l 427 1068 l 320 1068 l 320 961 l 106 961 z "},"Ê":{"ha":961,"x_min":0,"x_max":747,"o":"m 0 0 l 0 106 l 106 106 l 106 854 l 0 854 l 0 961 l 747 961 l 747 641 l 641 641 l 641 747 l 534 747 l 534 854 l 320 854 l 320 534 l 427 534 l 427 641 l 534 641 l 534 320 l 427 320 l 427 427 l 320 427 l 320 106 l 534 106 l 534 214 l 641 214 l 641 320 l 747 320 l 747 0 l 0 0 m 106 1068 l 106 1175 l 214 1175 l 214 1282 l 534 1282 l 534 1175 l 641 1175 l 641 1068 l 427 1068 l 427 1175 l 320 1175 l 320 1068 l 106 1068 z "},"Ë":{"ha":961,"x_min":0,"x_max":747,"o":"m 0 0 l 0 106 l 106 106 l 106 854 l 0 854 l 0 961 l 747 961 l 747 641 l 641 641 l 641 747 l 534 747 l 534 854 l 320 854 l 320 534 l 427 534 l 427 641 l 534 641 l 534 320 l 427 320 l 427 427 l 320 427 l 320 106 l 534 106 l 534 214 l 641 214 l 641 320 l 747 320 l 747 0 l 0 0 m 0 1068 l 0 1175 l 214 1175 l 214 1068 l 0 1068 m 534 1068 l 534 1175 l 747 1175 l 747 1068 l 534 1068 z "},"Ì":{"ha":961,"x_min":214,"x_max":641,"o":"m 214 0 l 214 106 l 320 106 l 320 854 l 214 854 l 214 961 l 641 961 l 641 854 l 534 854 l 534 106 l 641 106 l 641 0 l 214 0 m 320 1068 l 320 1175 l 214 1175 l 214 1282 l 427 1282 l 427 1175 l 534 1175 l 534 1068 l 320 1068 z "},"Í":{"ha":961,"x_min":214,"x_max":641,"o":"m 214 0 l 214 106 l 320 106 l 320 854 l 214 854 l 214 961 l 641 961 l 641 854 l 534 854 l 534 106 l 641 106 l 641 0 l 214 0 m 320 1068 l 320 1175 l 427 1175 l 427 1282 l 641 1282 l 641 1175 l 534 1175 l 534 1068 l 320 1068 z "},"Î":{"ha":961,"x_min":106,"x_max":747,"o":"m 214 0 l 214 106 l 320 106 l 320 854 l 214 854 l 214 961 l 641 961 l 641 854 l 534 854 l 534 106 l 641 106 l 641 0 l 214 0 m 106 1068 l 106 1175 l 214 1175 l 214 1282 l 641 1282 l 641 1175 l 747 1175 l 747 1068 l 534 1068 l 534 1175 l 320 1175 l 320 1068 l 106 1068 z "},"Ï":{"ha":961,"x_min":106,"x_max":747,"o":"m 214 0 l 214 106 l 320 106 l 320 854 l 214 854 l 214 961 l 641 961 l 641 854 l 534 854 l 534 106 l 641 106 l 641 0 l 214 0 m 106 1068 l 106 1175 l 320 1175 l 320 1068 l 106 1068 m 534 1068 l 534 1175 l 747 1175 l 747 1068 l 534 1068 z "},"Ð":{"ha":961,"x_min":0,"x_max":747,"o":"m 427 106 l 427 214 l 534 214 l 534 854 l 427 854 l 427 961 l 320 961 l 320 641 l 427 641 l 427 534 l 320 534 l 320 106 l 427 106 m 0 0 l 0 106 l 106 106 l 106 534 l 0 534 l 0 641 l 106 641 l 106 961 l 0 961 l 0 1068 l 534 1068 l 534 961 l 641 961 l 641 854 l 747 854 l 747 214 l 641 214 l 641 106 l 534 106 l 534 0 l 0 0 z "},"Ñ":{"ha":961,"x_min":0,"x_max":747,"o":"m 0 0 l 0 961 l 214 961 l 214 854 l 320 854 l 320 747 l 427 747 l 427 641 l 534 641 l 534 961 l 747 961 l 747 0 l 534 0 l 534 320 l 427 320 l 427 427 l 320 427 l 320 534 l 214 534 l 214 0 l 0 0 m 0 1068 l 0 1175 l 106 1175 l 106 1282 l 427 1282 l 427 1175 l 534 1175 l 534 1282 l 747 1282 l 747 1175 l 641 1175 l 641 1068 l 320 1068 l 320 1175 l 214 1175 l 214 1068 l 0 1068 z "},"Ò":{"ha":961,"x_min":0,"x_max":747,"o":"m 534 106 l 534 854 l 214 854 l 214 106 l 534 106 m 106 0 l 106 106 l 0 106 l 0 854 l 106 854 l 106 961 l 641 961 l 641 854 l 747 854 l 747 106 l 641 106 l 641 0 l 106 0 m 320 1068 l 320 1175 l 214 1175 l 214 1282 l 427 1282 l 427 1175 l 534 1175 l 534 1068 l 320 1068 z "},"Ó":{"ha":961,"x_min":0,"x_max":747,"o":"m 534 106 l 534 854 l 214 854 l 214 106 l 534 106 m 106 0 l 106 106 l 0 106 l 0 854 l 106 854 l 106 961 l 641 961 l 641 854 l 747 854 l 747 106 l 641 106 l 641 0 l 106 0 m 214 1068 l 214 1175 l 320 1175 l 320 1282 l 534 1282 l 534 1175 l 427 1175 l 427 1068 l 214 1068 z "},"Ô":{"ha":961,"x_min":0,"x_max":747,"o":"m 534 106 l 534 854 l 214 854 l 214 106 l 534 106 m 106 0 l 106 106 l 0 106 l 0 854 l 106 854 l 106 961 l 641 961 l 641 854 l 747 854 l 747 106 l 641 106 l 641 0 l 106 0 m 106 1068 l 106 1175 l 214 1175 l 214 1282 l 534 1282 l 534 1175 l 641 1175 l 641 1068 l 427 1068 l 427 1175 l 320 1175 l 320 1068 l 106 1068 z "},"Õ":{"ha":961,"x_min":0,"x_max":747,"o":"m 534 106 l 534 854 l 214 854 l 214 106 l 534 106 m 106 0 l 106 106 l 0 106 l 0 854 l 106 854 l 106 961 l 641 961 l 641 854 l 747 854 l 747 106 l 641 106 l 641 0 l 106 0 m 0 1068 l 0 1175 l 106 1175 l 106 1282 l 427 1282 l 427 1175 l 534 1175 l 534 1282 l 747 1282 l 747 1175 l 641 1175 l 641 1068 l 320 1068 l 320 1175 l 214 1175 l 214 1068 l 0 1068 z "},"Ö":{"ha":961,"x_min":0,"x_max":747,"o":"m 534 106 l 534 854 l 214 854 l 214 106 l 534 106 m 106 0 l 106 106 l 0 106 l 0 854 l 106 854 l 106 961 l 641 961 l 641 854 l 747 854 l 747 106 l 641 106 l 641 0 l 106 0 m 0 1068 l 0 1175 l 214 1175 l 214 1068 l 0 1068 m 534 1068 l 534 1175 l 747 1175 l 747 1068 l 534 1068 z "},"×":{"ha":961,"x_min":0,"x_max":747,"o":"m 0 106 l 0 214 l 106 214 l 106 320 l 214 320 l 214 534 l 106 534 l 106 641 l 0 641 l 0 747 l 214 747 l 214 641 l 320 641 l 320 534 l 427 534 l 427 641 l 534 641 l 534 747 l 747 747 l 747 641 l 641 641 l 641 534 l 534 534 l 534 320 l 641 320 l 641 214 l 747 214 l 747 106 l 534 106 l 534 214 l 427 214 l 427 320 l 320 320 l 320 214 l 214 214 l 214 106 l 0 106 z "},"Ø":{"ha":961,"x_min":0,"x_max":747,"o":"m 320 320 l 320 747 l 427 747 l 427 320 l 320 320 m 534 106 l 534 747 l 427 747 l 427 961 l 214 961 l 214 320 l 320 320 l 320 106 l 534 106 m 106 -106 l 106 106 l 0 106 l 0 961 l 106 961 l 106 1068 l 534 1068 l 534 1175 l 641 1175 l 641 961 l 747 961 l 747 106 l 641 106 l 641 0 l 214 0 l 214 -106 l 106 -106 z "},"Ù":{"ha":961,"x_min":0,"x_max":747,"o":"m 106 0 l 106 106 l 0 106 l 0 961 l 214 961 l 214 106 l 534 106 l 534 961 l 747 961 l 747 106 l 641 106 l 641 0 l 106 0 m 320 1068 l 320 1175 l 214 1175 l 214 1282 l 427 1282 l 427 1175 l 534 1175 l 534 1068 l 320 1068 z "},"Ú":{"ha":961,"x_min":0,"x_max":747,"o":"m 106 0 l 106 106 l 0 106 l 0 961 l 214 961 l 214 106 l 534 106 l 534 961 l 747 961 l 747 106 l 641 106 l 641 0 l 106 0 m 214 1068 l 214 1175 l 320 1175 l 320 1282 l 534 1282 l 534 1175 l 427 1175 l 427 1068 l 214 1068 z "},"Û":{"ha":961,"x_min":0,"x_max":747,"o":"m 106 0 l 106 106 l 0 106 l 0 961 l 214 961 l 214 106 l 534 106 l 534 961 l 747 961 l 747 106 l 641 106 l 641 0 l 106 0 m 106 1068 l 106 1175 l 214 1175 l 214 1282 l 534 1282 l 534 1175 l 641 1175 l 641 1068 l 427 1068 l 427 1175 l 320 1175 l 320 1068 l 106 1068 z "},"Ü":{"ha":961,"x_min":0,"x_max":747,"o":"m 106 0 l 106 106 l 0 106 l 0 961 l 214 961 l 214 106 l 534 106 l 534 961 l 747 961 l 747 106 l 641 106 l 641 0 l 106 0 m 0 1068 l 0 1175 l 214 1175 l 214 1068 l 0 1068 m 534 1068 l 534 1175 l 747 1175 l 747 1068 l 534 1068 z "},"Ý":{"ha":961,"x_min":0,"x_max":854,"o":"m 214 0 l 214 106 l 320 106 l 320 534 l 214 534 l 214 641 l 106 641 l 106 747 l 0 747 l 0 1068 l 214 1068 l 214 747 l 320 747 l 320 641 l 534 641 l 534 747 l 641 747 l 641 1068 l 854 1068 l 854 747 l 747 747 l 747 641 l 641 641 l 641 534 l 534 534 l 534 106 l 641 106 l 641 0 l 214 0 m 320 1068 l 320 1175 l 427 1175 l 427 1282 l 641 1282 l 641 1175 l 534 1175 l 534 1068 l 320 1068 z "},"Þ":{"ha":961,"x_min":0,"x_max":747,"o":"m 534 320 l 534 747 l 320 747 l 320 320 l 534 320 m 0 0 l 0 106 l 106 106 l 106 961 l 0 961 l 0 1068 l 427 1068 l 427 961 l 320 961 l 320 854 l 641 854 l 641 747 l 747 747 l 747 320 l 641 320 l 641 214 l 320 214 l 320 106 l 427 106 l 427 0 l 0 0 z "},"ß":{"ha":961,"x_min":0,"x_max":747,"o":"m 0 0 l 0 961 l 106 961 l 106 1068 l 534 1068 l 534 961 l 641 961 l 641 641 l 534 641 l 534 534 l 641 534 l 641 427 l 747 427 l 747 106 l 641 106 l 641 0 l 427 0 l 427 106 l 534 106 l 534 427 l 427 427 l 427 534 l 320 534 l 320 641 l 427 641 l 427 961 l 214 961 l 214 0 l 0 0 z "},"à":{"ha":961,"x_min":0,"x_max":747,"o":"m 106 0 l 106 106 l 0 106 l 0 427 l 106 427 l 106 534 l 427 534 l 427 641 l 106 641 l 106 747 l 534 747 l 534 641 l 641 641 l 641 106 l 747 106 l 747 0 l 534 0 l 534 106 l 427 106 l 427 427 l 214 427 l 214 106 l 427 106 l 427 0 l 106 0 m 320 854 l 320 961 l 214 961 l 214 1068 l 106 1068 l 106 1175 l 320 1175 l 320 1068 l 427 1068 l 427 961 l 534 961 l 534 854 l 320 854 z "},"á":{"ha":961,"x_min":0,"x_max":747,"o":"m 106 0 l 106 106 l 0 106 l 0 427 l 106 427 l 106 534 l 427 534 l 427 641 l 106 641 l 106 747 l 534 747 l 534 641 l 641 641 l 641 106 l 747 106 l 747 0 l 534 0 l 534 106 l 427 106 l 427 427 l 214 427 l 214 106 l 427 106 l 427 0 l 106 0 m 106 854 l 106 961 l 214 961 l 214 1068 l 320 1068 l 320 1175 l 534 1175 l 534 1068 l 427 1068 l 427 961 l 320 961 l 320 854 l 106 854 z "},"â":{"ha":961,"x_min":0,"x_max":747,"o":"m 106 0 l 106 106 l 0 106 l 0 427 l 106 427 l 106 534 l 427 534 l 427 641 l 106 641 l 106 747 l 534 747 l 534 641 l 641 641 l 641 106 l 747 106 l 747 0 l 534 0 l 534 106 l 427 106 l 427 427 l 214 427 l 214 106 l 427 106 l 427 0 l 106 0 m 106 854 l 106 961 l 214 961 l 214 1068 l 320 1068 l 320 1175 l 427 1175 l 427 1068 l 534 1068 l 534 961 l 641 961 l 641 854 l 427 854 l 427 961 l 320 961 l 320 854 l 106 854 z "},"ã":{"ha":961,"x_min":0,"x_max":747,"o":"m 106 0 l 106 106 l 0 106 l 0 427 l 106 427 l 106 534 l 427 534 l 427 641 l 106 641 l 106 747 l 534 747 l 534 641 l 641 641 l 641 106 l 747 106 l 747 0 l 534 0 l 534 106 l 427 106 l 427 427 l 214 427 l 214 106 l 427 106 l 427 0 l 106 0 m 0 854 l 0 961 l 106 961 l 106 1068 l 427 1068 l 427 961 l 534 961 l 534 1068 l 747 1068 l 747 961 l 641 961 l 641 854 l 320 854 l 320 961 l 214 961 l 214 854 l 0 854 z "},"ä":{"ha":961,"x_min":0,"x_max":747,"o":"m 106 0 l 106 106 l 0 106 l 0 427 l 106 427 l 106 534 l 427 534 l 427 641 l 106 641 l 106 747 l 534 747 l 534 641 l 641 641 l 641 106 l 747 106 l 747 0 l 534 0 l 534 106 l 427 106 l 427 427 l 214 427 l 214 106 l 427 106 l 427 0 l 106 0 m 0 961 l 0 1068 l 214 1068 l 214 961 l 0 961 m 427 961 l 427 1068 l 641 1068 l 641 961 l 427 961 z "},"å":{"ha":961,"x_min":0,"x_max":747,"o":"m 106 0 l 106 106 l 0 106 l 0 427 l 106 427 l 106 534 l 427 534 l 427 641 l 106 641 l 106 747 l 534 747 l 534 641 l 641 641 l 641 106 l 747 106 l 747 0 l 534 0 l 534 106 l 427 106 l 427 427 l 214 427 l 214 106 l 427 106 l 427 0 l 106 0 m 427 961 l 427 1068 l 320 1068 l 320 961 l 427 961 m 214 854 l 214 961 l 106 961 l 106 1068 l 214 1068 l 214 1175 l 534 1175 l 534 1068 l 641 1068 l 641 961 l 534 961 l 534 854 l 214 854 z "},"æ":{"ha":961,"x_min":0,"x_max":854,"o":"m 320 106 l 320 320 l 214 320 l 214 106 l 320 106 m 641 427 l 641 641 l 534 641 l 534 427 l 641 427 m 106 0 l 106 106 l 0 106 l 0 320 l 106 320 l 106 427 l 320 427 l 320 534 l 214 534 l 214 641 l 106 641 l 106 747 l 320 747 l 320 641 l 427 641 l 427 747 l 747 747 l 747 641 l 854 641 l 854 427 l 747 427 l 747 320 l 534 320 l 534 214 l 641 214 l 641 106 l 854 106 l 854 0 l 534 0 l 534 106 l 427 106 l 427 0 l 106 0 z "},"ç":{"ha":961,"x_min":106,"x_max":747,"o":"m 214 -106 l 214 0 l 534 0 l 534 106 l 427 106 l 427 214 l 214 214 l 214 320 l 106 320 l 106 747 l 214 747 l 214 854 l 641 854 l 641 747 l 747 747 l 747 641 l 534 641 l 534 747 l 320 747 l 320 320 l 534 320 l 534 427 l 747 427 l 747 320 l 641 320 l 641 106 l 747 106 l 747 0 l 641 0 l 641 -106 l 214 -106 z "},"è":{"ha":961,"x_min":0,"x_max":747,"o":"m 534 534 l 534 641 l 214 641 l 214 534 l 534 534 m 106 0 l 106 106 l 0 106 l 0 641 l 106 641 l 106 747 l 641 747 l 641 641 l 747 641 l 747 427 l 214 427 l 214 106 l 534 106 l 534 214 l 747 214 l 747 106 l 641 106 l 641 0 l 106 0 m 320 854 l 320 961 l 214 961 l 214 1068 l 106 1068 l 106 1175 l 320 1175 l 320 1068 l 427 1068 l 427 961 l 534 961 l 534 854 l 320 854 z "},"é":{"ha":961,"x_min":0,"x_max":747,"o":"m 534 534 l 534 641 l 214 641 l 214 534 l 534 534 m 106 0 l 106 106 l 0 106 l 0 641 l 106 641 l 106 747 l 641 747 l 641 641 l 747 641 l 747 427 l 214 427 l 214 106 l 534 106 l 534 214 l 747 214 l 747 106 l 641 106 l 641 0 l 106 0 m 214 854 l 214 961 l 320 961 l 320 1068 l 427 1068 l 427 1175 l 641 1175 l 641 1068 l 534 1068 l 534 961 l 427 961 l 427 854 l 214 854 z "},"ê":{"ha":961,"x_min":0,"x_max":747,"o":"m 534 534 l 534 641 l 214 641 l 214 534 l 534 534 m 106 0 l 106 106 l 0 106 l 0 641 l 106 641 l 106 747 l 641 747 l 641 641 l 747 641 l 747 427 l 214 427 l 214 106 l 534 106 l 534 214 l 747 214 l 747 106 l 641 106 l 641 0 l 106 0 m 106 854 l 106 961 l 214 961 l 214 1068 l 320 1068 l 320 1175 l 427 1175 l 427 1068 l 534 1068 l 534 961 l 641 961 l 641 854 l 427 854 l 427 961 l 320 961 l 320 854 l 106 854 z "},"ë":{"ha":961,"x_min":0,"x_max":747,"o":"m 534 534 l 534 641 l 214 641 l 214 534 l 534 534 m 106 0 l 106 106 l 0 106 l 0 641 l 106 641 l 106 747 l 641 747 l 641 641 l 747 641 l 747 427 l 214 427 l 214 106 l 534 106 l 534 214 l 747 214 l 747 106 l 641 106 l 641 0 l 106 0 m 0 961 l 0 1068 l 214 1068 l 214 961 l 0 961 m 534 961 l 534 1068 l 747 1068 l 747 961 l 534 961 z "},"ì":{"ha":961,"x_min":106,"x_max":641,"o":"m 214 0 l 214 106 l 320 106 l 320 641 l 214 641 l 214 747 l 534 747 l 534 106 l 641 106 l 641 0 l 214 0 m 320 854 l 320 961 l 214 961 l 214 1068 l 106 1068 l 106 1175 l 320 1175 l 320 1068 l 427 1068 l 427 961 l 534 961 l 534 854 l 320 854 z "},"í":{"ha":961,"x_min":214,"x_max":641,"o":"m 214 0 l 214 106 l 320 106 l 320 641 l 214 641 l 214 747 l 534 747 l 534 106 l 641 106 l 641 0 l 214 0 m 214 854 l 214 961 l 320 961 l 320 1068 l 427 1068 l 427 1175 l 641 1175 l 641 1068 l 534 1068 l 534 961 l 427 961 l 427 854 l 214 854 z "},"î":{"ha":961,"x_min":106,"x_max":747,"o":"m 214 0 l 214 106 l 320 106 l 320 641 l 214 641 l 214 747 l 534 747 l 534 106 l 641 106 l 641 0 l 214 0 m 106 854 l 106 961 l 214 961 l 214 1068 l 320 1068 l 320 1175 l 534 1175 l 534 1068 l 641 1068 l 641 961 l 747 961 l 747 854 l 534 854 l 534 961 l 320 961 l 320 854 l 106 854 z "},"ï":{"ha":961,"x_min":106,"x_max":747,"o":"m 214 0 l 214 106 l 320 106 l 320 641 l 214 641 l 214 747 l 534 747 l 534 106 l 641 106 l 641 0 l 214 0 m 106 961 l 106 1068 l 320 1068 l 320 961 l 106 961 m 534 961 l 534 1068 l 747 1068 l 747 961 l 534 961 z "},"ð":{"ha":961,"x_min":106,"x_max":747,"o":"m 534 106 l 534 534 l 320 534 l 320 106 l 534 106 m 214 747 l 214 854 l 320 854 l 320 747 l 214 747 m 214 0 l 214 106 l 106 106 l 106 534 l 214 534 l 214 641 l 534 641 l 534 747 l 427 747 l 427 854 l 320 854 l 320 961 l 214 961 l 214 1068 l 427 1068 l 427 961 l 534 961 l 534 854 l 641 854 l 641 747 l 747 747 l 747 106 l 641 106 l 641 0 l 214 0 m 534 961 l 534 1068 l 641 1068 l 641 961 l 534 961 z "},"ñ":{"ha":961,"x_min":0,"x_max":747,"o":"m 106 0 l 106 641 l 0 641 l 0 747 l 214 747 l 214 641 l 320 641 l 320 0 l 106 0 m 534 0 l 534 641 l 320 641 l 320 747 l 641 747 l 641 641 l 747 641 l 747 0 l 534 0 m 0 854 l 0 961 l 106 961 l 106 1068 l 427 1068 l 427 961 l 534 961 l 534 1068 l 747 1068 l 747 961 l 641 961 l 641 854 l 320 854 l 320 961 l 214 961 l 214 854 l 0 854 z "},"ò":{"ha":961,"x_min":0,"x_max":747,"o":"m 534 106 l 534 641 l 214 641 l 214 106 l 534 106 m 106 0 l 106 106 l 0 106 l 0 641 l 106 641 l 106 747 l 641 747 l 641 641 l 747 641 l 747 106 l 641 106 l 641 0 l 106 0 m 320 854 l 320 961 l 214 961 l 214 1068 l 106 1068 l 106 1175 l 320 1175 l 320 1068 l 427 1068 l 427 961 l 534 961 l 534 854 l 320 854 z "},"ó":{"ha":961,"x_min":0,"x_max":747,"o":"m 534 106 l 534 641 l 214 641 l 214 106 l 534 106 m 106 0 l 106 106 l 0 106 l 0 641 l 106 641 l 106 747 l 641 747 l 641 641 l 747 641 l 747 106 l 641 106 l 641 0 l 106 0 m 106 854 l 106 961 l 214 961 l 214 1068 l 320 1068 l 320 1175 l 534 1175 l 534 1068 l 427 1068 l 427 961 l 320 961 l 320 854 l 106 854 z "},"ô":{"ha":961,"x_min":0,"x_max":747,"o":"m 534 106 l 534 641 l 214 641 l 214 106 l 534 106 m 106 0 l 106 106 l 0 106 l 0 641 l 106 641 l 106 747 l 641 747 l 641 641 l 747 641 l 747 106 l 641 106 l 641 0 l 106 0 m 106 854 l 106 961 l 214 961 l 214 1068 l 320 1068 l 320 1175 l 427 1175 l 427 1068 l 534 1068 l 534 961 l 641 961 l 641 854 l 427 854 l 427 961 l 320 961 l 320 854 l 106 854 z "},"õ":{"ha":961,"x_min":0,"x_max":747,"o":"m 534 106 l 534 641 l 214 641 l 214 106 l 534 106 m 106 0 l 106 106 l 0 106 l 0 641 l 106 641 l 106 747 l 641 747 l 641 641 l 747 641 l 747 106 l 641 106 l 641 0 l 106 0 m 0 854 l 0 961 l 106 961 l 106 1068 l 427 1068 l 427 961 l 534 961 l 534 1068 l 747 1068 l 747 961 l 641 961 l 641 854 l 320 854 l 320 961 l 214 961 l 214 854 l 0 854 z "},"ö":{"ha":961,"x_min":0,"x_max":747,"o":"m 534 106 l 534 641 l 214 641 l 214 106 l 534 106 m 106 0 l 106 106 l 0 106 l 0 641 l 106 641 l 106 747 l 641 747 l 641 641 l 747 641 l 747 106 l 641 106 l 641 0 l 106 0 m 0 961 l 0 1068 l 214 1068 l 214 961 l 0 961 m 534 961 l 534 1068 l 747 1068 l 747 961 l 534 961 z "},"÷":{"ha":961,"x_min":106,"x_max":747,"o":"m 320 106 l 320 320 l 534 320 l 534 106 l 320 106 m 106 427 l 106 534 l 747 534 l 747 427 l 106 427 m 320 641 l 320 854 l 534 854 l 534 641 l 320 641 z "},"ø":{"ha":961,"x_min":0,"x_max":747,"o":"m 534 106 l 534 427 l 427 427 l 427 320 l 320 320 l 320 214 l 214 214 l 214 106 l 534 106 m 320 427 l 320 534 l 427 534 l 427 641 l 214 641 l 214 427 l 320 427 m 106 0 l 106 106 l 0 106 l 0 641 l 106 641 l 106 747 l 641 747 l 641 641 l 747 641 l 747 106 l 641 106 l 641 0 l 106 0 z "},"ù":{"ha":961,"x_min":0,"x_max":747,"o":"m 106 0 l 106 106 l 0 106 l 0 747 l 214 747 l 214 106 l 427 106 l 427 0 l 106 0 m 534 0 l 534 106 l 427 106 l 427 747 l 641 747 l 641 106 l 747 106 l 747 0 l 534 0 m 320 854 l 320 961 l 214 961 l 214 1068 l 106 1068 l 106 1175 l 320 1175 l 320 1068 l 427 1068 l 427 961 l 534 961 l 534 854 l 320 854 z "},"ú":{"ha":961,"x_min":0,"x_max":747,"o":"m 106 0 l 106 106 l 0 106 l 0 747 l 214 747 l 214 106 l 427 106 l 427 0 l 106 0 m 534 0 l 534 106 l 427 106 l 427 747 l 641 747 l 641 106 l 747 106 l 747 0 l 534 0 m 106 854 l 106 961 l 214 961 l 214 1068 l 320 1068 l 320 1175 l 534 1175 l 534 1068 l 427 1068 l 427 961 l 320 961 l 320 854 l 106 854 z "},"û":{"ha":961,"x_min":0,"x_max":747,"o":"m 106 0 l 106 106 l 0 106 l 0 747 l 214 747 l 214 106 l 427 106 l 427 0 l 106 0 m 534 0 l 534 106 l 427 106 l 427 747 l 641 747 l 641 106 l 747 106 l 747 0 l 534 0 m 0 854 l 0 961 l 106 961 l 106 1068 l 214 1068 l 214 1175 l 427 1175 l 427 1068 l 534 1068 l 534 961 l 641 961 l 641 854 l 427 854 l 427 961 l 214 961 l 214 854 l 0 854 z "},"ü":{"ha":961,"x_min":0,"x_max":747,"o":"m 106 0 l 106 106 l 0 106 l 0 747 l 214 747 l 214 106 l 427 106 l 427 0 l 106 0 m 534 0 l 534 106 l 427 106 l 427 747 l 641 747 l 641 106 l 747 106 l 747 0 l 534 0 m 0 961 l 0 1068 l 214 1068 l 214 961 l 0 961 m 427 961 l 427 1068 l 641 1068 l 641 961 l 427 961 z "},"ý":{"ha":961,"x_min":0,"x_max":747,"o":"m 0 -320 l 0 -214 l 427 -214 l 427 -106 l 534 -106 l 534 0 l 106 0 l 106 106 l 0 106 l 0 747 l 214 747 l 214 106 l 534 106 l 534 747 l 747 747 l 747 -106 l 641 -106 l 641 -214 l 534 -214 l 534 -320 l 0 -320 m 214 854 l 214 961 l 320 961 l 320 1068 l 427 1068 l 427 1175 l 641 1175 l 641 1068 l 534 1068 l 534 961 l 427 961 l 427 854 l 214 854 z "},"þ":{"ha":961,"x_min":0,"x_max":747,"o":"m 534 106 l 534 641 l 320 641 l 320 106 l 534 106 m 0 -320 l 0 -214 l 106 -214 l 106 961 l 0 961 l 0 1068 l 320 1068 l 320 747 l 641 747 l 641 641 l 747 641 l 747 106 l 641 106 l 641 0 l 320 0 l 320 -214 l 427 -214 l 427 -320 l 0 -320 z "},"ÿ":{"ha":961,"x_min":0,"x_max":747,"o":"m 0 -320 l 0 -214 l 427 -214 l 427 -106 l 534 -106 l 534 0 l 106 0 l 106 106 l 0 106 l 0 747 l 214 747 l 214 106 l 534 106 l 534 747 l 747 747 l 747 -106 l 641 -106 l 641 -214 l 534 -214 l 534 -320 l 0 -320 m 0 961 l 0 1068 l 214 1068 l 214 961 l 0 961 m 534 961 l 534 1068 l 747 1068 l 747 961 l 534 961 z "},"Ā":{"ha":961,"x_min":0,"x_max":747,"o":"m 534 534 l 534 747 l 427 747 l 427 854 l 320 854 l 320 747 l 214 747 l 214 534 l 534 534 m 0 0 l 0 747 l 106 747 l 106 854 l 214 854 l 214 961 l 320 961 l 320 1068 l 427 1068 l 427 961 l 534 961 l 534 854 l 641 854 l 641 747 l 747 747 l 747 0 l 534 0 l 534 427 l 214 427 l 214 0 l 0 0 m 106 1175 l 106 1282 l 641 1282 l 641 1175 l 106 1175 z "},"ā":{"ha":961,"x_min":0,"x_max":747,"o":"m 106 0 l 106 106 l 0 106 l 0 427 l 106 427 l 106 534 l 427 534 l 427 641 l 106 641 l 106 747 l 534 747 l 534 641 l 641 641 l 641 106 l 747 106 l 747 0 l 534 0 l 534 106 l 427 106 l 427 427 l 214 427 l 214 106 l 427 106 l 427 0 l 106 0 m 106 961 l 106 1068 l 641 1068 l 641 961 l 106 961 z "},"Ă":{"ha":961,"x_min":0,"x_max":747,"o":"m 534 427 l 534 641 l 427 641 l 427 747 l 320 747 l 320 641 l 214 641 l 214 427 l 534 427 m 0 0 l 0 641 l 106 641 l 106 747 l 214 747 l 214 854 l 320 854 l 320 961 l 427 961 l 427 854 l 534 854 l 534 747 l 641 747 l 641 641 l 747 641 l 747 0 l 534 0 l 534 320 l 214 320 l 214 0 l 0 0 m 106 1068 l 106 1175 l 0 1175 l 0 1282 l 214 1282 l 214 1175 l 534 1175 l 534 1282 l 747 1282 l 747 1175 l 641 1175 l 641 1068 l 106 1068 z "},"ă":{"ha":961,"x_min":0,"x_max":747,"o":"m 106 0 l 106 106 l 0 106 l 0 427 l 106 427 l 106 534 l 427 534 l 427 641 l 106 641 l 106 747 l 534 747 l 534 641 l 641 641 l 641 106 l 747 106 l 747 0 l 534 0 l 534 106 l 427 106 l 427 427 l 214 427 l 214 106 l 427 106 l 427 0 l 106 0 z "},"Ą":{"ha":961,"x_min":0,"x_max":747,"o":"m 320 -320 l 320 -214 l 214 -214 l 214 -106 l 320 -106 l 320 0 l 534 0 l 534 -106 l 427 -106 l 427 -214 l 747 -214 l 747 -320 l 320 -320 m 534 534 l 534 747 l 427 747 l 427 854 l 320 854 l 320 747 l 214 747 l 214 534 l 534 534 m 0 0 l 0 747 l 106 747 l 106 854 l 214 854 l 214 961 l 320 961 l 320 1068 l 427 1068 l 427 961 l 534 961 l 534 854 l 641 854 l 641 747 l 747 747 l 747 0 l 534 0 l 534 427 l 214 427 l 214 0 l 0 0 z "},"ą":{"ha":961,"x_min":0,"x_max":747,"o":"m 320 -320 l 320 -214 l 214 -214 l 214 -106 l 320 -106 l 320 0 l 106 0 l 106 106 l 0 106 l 0 427 l 106 427 l 106 534 l 427 534 l 427 641 l 106 641 l 106 747 l 534 747 l 534 641 l 641 641 l 641 106 l 747 106 l 747 0 l 534 0 l 534 106 l 427 106 l 427 427 l 214 427 l 214 106 l 427 106 l 427 0 l 534 0 l 534 -106 l 427 -106 l 427 -214 l 747 -214 l 747 -320 l 320 -320 z "},"Ć":{"ha":961,"x_min":0,"x_max":747,"o":"m 214 0 l 214 106 l 106 106 l 106 214 l 0 214 l 0 747 l 106 747 l 106 854 l 214 854 l 214 961 l 641 961 l 641 854 l 747 854 l 747 641 l 641 641 l 641 747 l 534 747 l 534 854 l 320 854 l 320 747 l 214 747 l 214 214 l 320 214 l 320 106 l 534 106 l 534 214 l 641 214 l 641 320 l 747 320 l 747 106 l 641 106 l 641 0 l 214 0 m 320 1068 l 320 1175 l 427 1175 l 427 1282 l 641 1282 l 641 1175 l 534 1175 l 534 1068 l 320 1068 z "},"ć":{"ha":961,"x_min":0,"x_max":747,"o":"m 106 0 l 106 106 l 0 106 l 0 641 l 106 641 l 106 747 l 641 747 l 641 641 l 747 641 l 747 534 l 534 534 l 534 641 l 214 641 l 214 106 l 534 106 l 534 214 l 747 214 l 747 106 l 641 106 l 641 0 l 106 0 m 214 854 l 214 961 l 320 961 l 320 1068 l 427 1068 l 427 1175 l 641 1175 l 641 1068 l 534 1068 l 534 961 l 427 961 l 427 854 l 214 854 z "},"Ĉ":{"ha":961,"x_min":0,"x_max":747,"o":"m 214 0 l 214 106 l 106 106 l 106 214 l 0 214 l 0 747 l 106 747 l 106 854 l 214 854 l 214 961 l 641 961 l 641 854 l 747 854 l 747 641 l 641 641 l 641 747 l 534 747 l 534 854 l 320 854 l 320 747 l 214 747 l 214 214 l 320 214 l 320 106 l 534 106 l 534 214 l 641 214 l 641 320 l 747 320 l 747 106 l 641 106 l 641 0 l 214 0 m 214 1068 l 214 1175 l 320 1175 l 320 1282 l 641 1282 l 641 1175 l 747 1175 l 747 1068 l 534 1068 l 534 1175 l 427 1175 l 427 1068 l 214 1068 z "},"ĉ":{"ha":961,"x_min":0,"x_max":747,"o":"m 106 0 l 106 106 l 0 106 l 0 641 l 106 641 l 106 747 l 641 747 l 641 641 l 747 641 l 747 534 l 534 534 l 534 641 l 214 641 l 214 106 l 534 106 l 534 214 l 747 214 l 747 106 l 641 106 l 641 0 l 106 0 m 106 854 l 106 961 l 214 961 l 214 1068 l 320 1068 l 320 1175 l 427 1175 l 427 1068 l 534 1068 l 534 961 l 641 961 l 641 854 l 427 854 l 427 961 l 320 961 l 320 854 l 106 854 z "},"Ċ":{"ha":961,"x_min":0,"x_max":747,"o":"m 214 0 l 214 106 l 106 106 l 106 214 l 0 214 l 0 747 l 106 747 l 106 854 l 214 854 l 214 961 l 641 961 l 641 854 l 747 854 l 747 641 l 641 641 l 641 747 l 534 747 l 534 854 l 320 854 l 320 747 l 214 747 l 214 214 l 320 214 l 320 106 l 534 106 l 534 214 l 641 214 l 641 320 l 747 320 l 747 106 l 641 106 l 641 0 l 214 0 m 320 1068 l 320 1282 l 534 1282 l 534 1068 l 320 1068 z "},"ċ":{"ha":961,"x_min":0,"x_max":747,"o":"m 106 0 l 106 106 l 0 106 l 0 641 l 106 641 l 106 747 l 641 747 l 641 641 l 747 641 l 747 534 l 534 534 l 534 641 l 214 641 l 214 106 l 534 106 l 534 214 l 747 214 l 747 106 l 641 106 l 641 0 l 106 0 m 320 854 l 320 1068 l 534 1068 l 534 854 l 320 854 z "},"Č":{"ha":961,"x_min":0,"x_max":747,"o":"m 214 0 l 214 106 l 106 106 l 106 214 l 0 214 l 0 747 l 106 747 l 106 854 l 214 854 l 214 961 l 641 961 l 641 854 l 747 854 l 747 641 l 641 641 l 641 747 l 534 747 l 534 854 l 320 854 l 320 747 l 214 747 l 214 214 l 320 214 l 320 106 l 534 106 l 534 214 l 641 214 l 641 320 l 747 320 l 747 106 l 641 106 l 641 0 l 214 0 m 214 1068 l 214 1175 l 106 1175 l 106 1282 l 320 1282 l 320 1175 l 534 1175 l 534 1282 l 747 1282 l 747 1175 l 641 1175 l 641 1068 l 214 1068 z "},"č":{"ha":961,"x_min":0,"x_max":747,"o":"m 106 0 l 106 106 l 0 106 l 0 641 l 106 641 l 106 747 l 641 747 l 641 641 l 747 641 l 747 534 l 534 534 l 534 641 l 214 641 l 214 106 l 534 106 l 534 214 l 747 214 l 747 106 l 641 106 l 641 0 l 106 0 m 214 854 l 214 961 l 106 961 l 106 1068 l 320 1068 l 320 961 l 427 961 l 427 1068 l 641 1068 l 641 961 l 534 961 l 534 854 l 214 854 z "},"Ď":{"ha":961,"x_min":0,"x_max":747,"o":"m 427 106 l 427 214 l 534 214 l 534 747 l 427 747 l 427 854 l 320 854 l 320 106 l 427 106 m 0 0 l 0 106 l 106 106 l 106 854 l 0 854 l 0 961 l 534 961 l 534 854 l 641 854 l 641 747 l 747 747 l 747 214 l 641 214 l 641 106 l 534 106 l 534 0 l 0 0 m 214 1068 l 214 1175 l 106 1175 l 106 1282 l 320 1282 l 320 1175 l 427 1175 l 427 1282 l 641 1282 l 641 1175 l 534 1175 l 534 1068 l 214 1068 z "},"ď":{"ha":961,"x_min":0,"x_max":854,"o":"m 106 0 l 106 106 l 0 106 l 0 534 l 106 534 l 106 641 l 214 641 l 214 747 l 427 747 l 427 961 l 320 961 l 320 1068 l 641 1068 l 641 1282 l 854 1282 l 854 1068 l 747 1068 l 747 961 l 641 961 l 641 106 l 747 106 l 747 0 l 534 0 l 534 106 l 427 106 l 427 641 l 320 641 l 320 534 l 214 534 l 214 106 l 427 106 l 427 0 l 106 0 z "},"Đ":{"ha":961,"x_min":0,"x_max":747,"o":"m 427 106 l 427 214 l 534 214 l 534 854 l 427 854 l 427 961 l 320 961 l 320 641 l 427 641 l 427 534 l 320 534 l 320 106 l 427 106 m 0 0 l 0 106 l 106 106 l 106 534 l 0 534 l 0 641 l 106 641 l 106 961 l 0 961 l 0 1068 l 534 1068 l 534 961 l 641 961 l 641 854 l 747 854 l 747 214 l 641 214 l 641 106 l 534 106 l 534 0 l 0 0 z "},"đ":{"ha":961,"x_min":0,"x_max":747,"o":"m 106 0 l 106 106 l 0 106 l 0 427 l 106 427 l 106 534 l 214 534 l 214 641 l 427 641 l 427 747 l 106 747 l 106 854 l 427 854 l 427 1068 l 641 1068 l 641 854 l 747 854 l 747 747 l 641 747 l 641 106 l 747 106 l 747 0 l 534 0 l 534 106 l 427 106 l 427 534 l 320 534 l 320 427 l 214 427 l 214 106 l 427 106 l 427 0 l 106 0 z "},"Ē":{"ha":961,"x_min":0,"x_max":747,"o":"m 0 0 l 0 106 l 106 106 l 106 961 l 0 961 l 0 1068 l 747 1068 l 747 747 l 641 747 l 641 854 l 534 854 l 534 961 l 320 961 l 320 641 l 427 641 l 427 747 l 534 747 l 534 427 l 427 427 l 427 534 l 320 534 l 320 106 l 534 106 l 534 214 l 641 214 l 641 320 l 747 320 l 747 0 l 0 0 m 106 1175 l 106 1282 l 641 1282 l 641 1175 l 106 1175 z "},"ē":{"ha":961,"x_min":0,"x_max":747,"o":"m 534 534 l 534 641 l 214 641 l 214 534 l 534 534 m 106 0 l 106 106 l 0 106 l 0 641 l 106 641 l 106 747 l 641 747 l 641 641 l 747 641 l 747 427 l 214 427 l 214 106 l 534 106 l 534 214 l 747 214 l 747 106 l 641 106 l 641 0 l 106 0 m 106 961 l 106 1068 l 641 1068 l 641 961 l 106 961 z "},"Ĕ":{"ha":961,"x_min":0,"x_max":747,"o":"m 0 0 l 0 106 l 106 106 l 106 854 l 0 854 l 0 961 l 747 961 l 747 641 l 641 641 l 641 747 l 534 747 l 534 854 l 320 854 l 320 534 l 427 534 l 427 641 l 534 641 l 534 320 l 427 320 l 427 427 l 320 427 l 320 106 l 534 106 l 534 214 l 641 214 l 641 320 l 747 320 l 747 0 l 0 0 m 106 1068 l 106 1175 l 0 1175 l 0 1282 l 214 1282 l 214 1175 l 534 1175 l 534 1282 l 747 1282 l 747 1175 l 641 1175 l 641 1068 l 106 1068 z "},"ĕ":{"ha":961,"x_min":0,"x_max":747,"o":"m 534 534 l 534 641 l 214 641 l 214 534 l 534 534 m 106 0 l 106 106 l 0 106 l 0 641 l 106 641 l 106 747 l 641 747 l 641 641 l 747 641 l 747 427 l 214 427 l 214 106 l 534 106 l 534 214 l 747 214 l 747 106 l 641 106 l 641 0 l 106 0 m 106 854 l 106 961 l 0 961 l 0 1068 l 214 1068 l 214 961 l 534 961 l 534 1068 l 747 1068 l 747 961 l 641 961 l 641 854 l 106 854 z "},"Ė":{"ha":961,"x_min":0,"x_max":747,"o":"m 0 0 l 0 106 l 106 106 l 106 854 l 0 854 l 0 961 l 747 961 l 747 641 l 641 641 l 641 747 l 534 747 l 534 854 l 320 854 l 320 534 l 427 534 l 427 641 l 534 641 l 534 320 l 427 320 l 427 427 l 320 427 l 320 106 l 534 106 l 534 214 l 641 214 l 641 320 l 747 320 l 747 0 l 0 0 m 320 1068 l 320 1282 l 534 1282 l 534 1068 l 320 1068 z "},"ė":{"ha":961,"x_min":0,"x_max":747,"o":"m 534 534 l 534 641 l 214 641 l 214 534 l 534 534 m 106 0 l 106 106 l 0 106 l 0 641 l 106 641 l 106 747 l 641 747 l 641 641 l 747 641 l 747 427 l 214 427 l 214 106 l 534 106 l 534 214 l 747 214 l 747 106 l 641 106 l 641 0 l 106 0 m 320 854 l 320 1068 l 534 1068 l 534 854 l 320 854 z "},"Ę":{"ha":961,"x_min":0,"x_max":747,"o":"m 320 -320 l 320 -214 l 214 -214 l 214 -106 l 320 -106 l 320 0 l 0 0 l 0 106 l 106 106 l 106 961 l 0 961 l 0 1068 l 747 1068 l 747 747 l 641 747 l 641 854 l 534 854 l 534 961 l 320 961 l 320 641 l 427 641 l 427 747 l 534 747 l 534 427 l 427 427 l 427 534 l 320 534 l 320 106 l 534 106 l 534 214 l 641 214 l 641 320 l 747 320 l 747 0 l 534 0 l 534 -106 l 427 -106 l 427 -214 l 747 -214 l 747 -320 l 320 -320 z "},"ę":{"ha":961,"x_min":0,"x_max":747,"o":"m 534 534 l 534 641 l 214 641 l 214 534 l 534 534 m 214 -320 l 214 -214 l 106 -214 l 106 -106 l 214 -106 l 214 0 l 106 0 l 106 106 l 0 106 l 0 641 l 106 641 l 106 747 l 641 747 l 641 641 l 747 641 l 747 427 l 214 427 l 214 106 l 534 106 l 534 214 l 747 214 l 747 106 l 641 106 l 641 0 l 427 0 l 427 -106 l 320 -106 l 320 -214 l 641 -214 l 641 -320 l 214 -320 z "},"Ě":{"ha":961,"x_min":0,"x_max":747,"o":"m 0 0 l 0 106 l 106 106 l 106 854 l 0 854 l 0 961 l 747 961 l 747 641 l 641 641 l 641 747 l 534 747 l 534 854 l 320 854 l 320 534 l 427 534 l 427 641 l 534 641 l 534 320 l 427 320 l 427 427 l 320 427 l 320 106 l 534 106 l 534 214 l 641 214 l 641 320 l 747 320 l 747 0 l 0 0 m 214 1068 l 214 1175 l 106 1175 l 106 1282 l 320 1282 l 320 1175 l 427 1175 l 427 1282 l 641 1282 l 641 1175 l 534 1175 l 534 1068 l 214 1068 z "},"ě":{"ha":961,"x_min":0,"x_max":747,"o":"m 534 534 l 534 641 l 214 641 l 214 534 l 534 534 m 106 0 l 106 106 l 0 106 l 0 641 l 106 641 l 106 747 l 641 747 l 641 641 l 747 641 l 747 427 l 214 427 l 214 106 l 534 106 l 534 214 l 747 214 l 747 106 l 641 106 l 641 0 l 106 0 m 214 854 l 214 961 l 106 961 l 106 1068 l 320 1068 l 320 961 l 534 961 l 534 1068 l 747 1068 l 747 961 l 641 961 l 641 854 l 214 854 z "},"Ĝ":{"ha":961,"x_min":0,"x_max":747,"o":"m 641 0 l 641 106 l 534 106 l 534 320 l 320 320 l 320 427 l 747 427 l 747 0 l 641 0 m 214 0 l 214 106 l 106 106 l 106 214 l 0 214 l 0 747 l 106 747 l 106 854 l 214 854 l 214 961 l 641 961 l 641 854 l 747 854 l 747 641 l 641 641 l 641 747 l 534 747 l 534 854 l 320 854 l 320 747 l 214 747 l 214 214 l 320 214 l 320 106 l 534 106 l 534 0 l 214 0 m 214 1068 l 214 1175 l 320 1175 l 320 1282 l 641 1282 l 641 1175 l 747 1175 l 747 1068 l 534 1068 l 534 1175 l 427 1175 l 427 1068 l 214 1068 z "},"ĝ":{"ha":961,"x_min":0,"x_max":747,"o":"m 106 -320 l 106 -214 l 0 -214 l 0 -106 l 214 -106 l 214 -214 l 427 -214 l 427 0 l 106 0 l 106 106 l 0 106 l 0 641 l 106 641 l 106 747 l 427 747 l 427 641 l 214 641 l 214 106 l 427 106 l 427 641 l 534 641 l 534 747 l 747 747 l 747 641 l 641 641 l 641 -214 l 534 -214 l 534 -320 l 106 -320 m 106 854 l 106 961 l 214 961 l 214 1068 l 320 1068 l 320 1175 l 427 1175 l 427 1068 l 534 1068 l 534 961 l 641 961 l 641 854 l 427 854 l 427 961 l 320 961 l 320 854 l 106 854 z "},"Ğ":{"ha":961,"x_min":0,"x_max":747,"o":"m 641 0 l 641 106 l 534 106 l 534 320 l 320 320 l 320 427 l 747 427 l 747 0 l 641 0 m 214 0 l 214 106 l 106 106 l 106 214 l 0 214 l 0 747 l 106 747 l 106 854 l 214 854 l 214 961 l 641 961 l 641 854 l 747 854 l 747 641 l 641 641 l 641 747 l 534 747 l 534 854 l 320 854 l 320 747 l 214 747 l 214 214 l 320 214 l 320 106 l 534 106 l 534 0 l 214 0 m 214 1068 l 214 1175 l 106 1175 l 106 1282 l 320 1282 l 320 1175 l 534 1175 l 534 1282 l 747 1282 l 747 1175 l 641 1175 l 641 1068 l 214 1068 z "},"ğ":{"ha":961,"x_min":0,"x_max":747,"o":"m 106 -320 l 106 -214 l 0 -214 l 0 -106 l 214 -106 l 214 -214 l 427 -214 l 427 0 l 106 0 l 106 106 l 0 106 l 0 641 l 106 641 l 106 747 l 427 747 l 427 641 l 214 641 l 214 106 l 427 106 l 427 641 l 534 641 l 534 747 l 747 747 l 747 641 l 641 641 l 641 -214 l 534 -214 l 534 -320 l 106 -320 m 106 854 l 106 961 l 0 961 l 0 1068 l 214 1068 l 214 961 l 534 961 l 534 1068 l 747 1068 l 747 961 l 641 961 l 641 854 l 106 854 z "},"Ġ":{"ha":961,"x_min":0,"x_max":747,"o":"m 641 0 l 641 106 l 534 106 l 534 320 l 320 320 l 320 427 l 747 427 l 747 0 l 641 0 m 214 0 l 214 106 l 106 106 l 106 214 l 0 214 l 0 747 l 106 747 l 106 854 l 214 854 l 214 961 l 641 961 l 641 854 l 747 854 l 747 641 l 641 641 l 641 747 l 534 747 l 534 854 l 320 854 l 320 747 l 214 747 l 214 214 l 320 214 l 320 106 l 534 106 l 534 0 l 214 0 m 320 1068 l 320 1282 l 534 1282 l 534 1068 l 320 1068 z "},"ġ":{"ha":961,"x_min":0,"x_max":747,"o":"m 106 -320 l 106 -214 l 0 -214 l 0 -106 l 214 -106 l 214 -214 l 427 -214 l 427 0 l 106 0 l 106 106 l 0 106 l 0 641 l 106 641 l 106 747 l 427 747 l 427 641 l 214 641 l 214 106 l 427 106 l 427 641 l 534 641 l 534 747 l 747 747 l 747 641 l 641 641 l 641 -214 l 534 -214 l 534 -320 l 106 -320 m 320 854 l 320 1068 l 534 1068 l 534 854 l 320 854 z "},"Ģ":{"ha":961,"x_min":0,"x_max":747,"o":"m 641 0 l 641 106 l 534 106 l 534 427 l 320 427 l 320 534 l 747 534 l 747 0 l 641 0 m 106 -320 l 106 -214 l 427 -214 l 427 -106 l 320 -106 l 320 0 l 214 0 l 214 106 l 106 106 l 106 214 l 0 214 l 0 854 l 106 854 l 106 961 l 214 961 l 214 1068 l 641 1068 l 641 961 l 747 961 l 747 747 l 641 747 l 641 854 l 534 854 l 534 961 l 320 961 l 320 854 l 214 854 l 214 214 l 320 214 l 320 106 l 534 106 l 534 -106 l 641 -106 l 641 -214 l 534 -214 l 534 -320 l 106 -320 z "},"ģ":{"ha":961,"x_min":0,"x_max":747,"o":"m 106 -320 l 106 -214 l 0 -214 l 0 -106 l 214 -106 l 214 -214 l 427 -214 l 427 0 l 106 0 l 106 106 l 0 106 l 0 641 l 106 641 l 106 747 l 427 747 l 427 641 l 214 641 l 214 106 l 427 106 l 427 641 l 534 641 l 534 747 l 747 747 l 747 641 l 641 641 l 641 -214 l 534 -214 l 534 -320 l 106 -320 m 320 854 l 320 961 l 214 961 l 214 1068 l 320 1068 l 320 1175 l 747 1175 l 747 1068 l 427 1068 l 427 961 l 534 961 l 534 854 l 320 854 z "},"Ĥ":{"ha":961,"x_min":0,"x_max":747,"o":"m 0 0 l 0 961 l 214 961 l 214 534 l 534 534 l 534 961 l 747 961 l 747 0 l 534 0 l 534 427 l 214 427 l 214 0 l 0 0 m 106 1068 l 106 1175 l 214 1175 l 214 1282 l 534 1282 l 534 1175 l 641 1175 l 641 1068 l 427 1068 l 427 1175 l 320 1175 l 320 1068 l 106 1068 z "},"ĥ":{"ha":961,"x_min":0,"x_max":747,"o":"m 534 0 l 534 534 l 427 534 l 427 641 l 641 641 l 641 534 l 747 534 l 747 0 l 534 0 m 0 0 l 0 106 l 106 106 l 106 854 l 0 854 l 0 961 l 320 961 l 320 534 l 427 534 l 427 427 l 320 427 l 320 0 l 0 0 m 106 1068 l 106 1175 l 214 1175 l 214 1282 l 534 1282 l 534 1175 l 641 1175 l 641 1068 l 427 1068 l 427 1175 l 320 1175 l 320 1068 l 106 1068 z "},"Ħ":{"ha":961,"x_min":0,"x_max":854,"o":"m 534 641 l 534 747 l 320 747 l 320 641 l 534 641 m 106 0 l 106 747 l 0 747 l 0 854 l 106 854 l 106 1068 l 320 1068 l 320 854 l 534 854 l 534 1068 l 747 1068 l 747 854 l 854 854 l 854 747 l 747 747 l 747 0 l 534 0 l 534 534 l 320 534 l 320 0 l 106 0 z "},"ħ":{"ha":961,"x_min":0,"x_max":747,"o":"m 534 0 l 534 534 l 427 534 l 427 641 l 641 641 l 641 534 l 747 534 l 747 0 l 534 0 m 0 0 l 0 106 l 106 106 l 106 747 l 0 747 l 0 854 l 106 854 l 106 961 l 0 961 l 0 1068 l 320 1068 l 320 854 l 534 854 l 534 747 l 320 747 l 320 534 l 427 534 l 427 427 l 320 427 l 320 0 l 0 0 z "},"Ĩ":{"ha":961,"x_min":106,"x_max":854,"o":"m 214 0 l 214 106 l 320 106 l 320 854 l 214 854 l 214 961 l 641 961 l 641 854 l 534 854 l 534 106 l 641 106 l 641 0 l 214 0 m 106 1068 l 106 1175 l 214 1175 l 214 1282 l 534 1282 l 534 1175 l 641 1175 l 641 1282 l 854 1282 l 854 1175 l 747 1175 l 747 1068 l 427 1068 l 427 1175 l 320 1175 l 320 1068 l 106 1068 z "},"ĩ":{"ha":961,"x_min":0,"x_max":747,"o":"m 214 0 l 214 106 l 320 106 l 320 641 l 214 641 l 214 747 l 534 747 l 534 106 l 641 106 l 641 0 l 214 0 m 0 854 l 0 961 l 106 961 l 106 1068 l 427 1068 l 427 961 l 534 961 l 534 1068 l 747 1068 l 747 961 l 641 961 l 641 854 l 320 854 l 320 961 l 214 961 l 214 854 l 0 854 z "},"Ī":{"ha":961,"x_min":106,"x_max":747,"o":"m 214 0 l 214 106 l 320 106 l 320 961 l 214 961 l 214 1068 l 641 1068 l 641 961 l 534 961 l 534 106 l 641 106 l 641 0 l 214 0 m 106 1175 l 106 1282 l 747 1282 l 747 1175 l 106 1175 z "},"ī":{"ha":961,"x_min":106,"x_max":641,"o":"m 214 0 l 214 106 l 320 106 l 320 641 l 214 641 l 214 747 l 534 747 l 534 106 l 641 106 l 641 0 l 214 0 m 106 961 l 106 1068 l 641 1068 l 641 961 l 106 961 z "},"Ĭ":{"ha":961,"x_min":106,"x_max":747,"o":"m 214 0 l 214 106 l 320 106 l 320 854 l 214 854 l 214 961 l 641 961 l 641 854 l 534 854 l 534 106 l 641 106 l 641 0 l 214 0 m 214 1068 l 214 1175 l 106 1175 l 106 1282 l 320 1282 l 320 1175 l 534 1175 l 534 1282 l 747 1282 l 747 1175 l 641 1175 l 641 1068 l 214 1068 z "},"ĭ":{"ha":961,"x_min":106,"x_max":747,"o":"m 214 0 l 214 106 l 320 106 l 320 641 l 214 641 l 214 747 l 534 747 l 534 106 l 641 106 l 641 0 l 214 0 m 214 854 l 214 961 l 106 961 l 106 1068 l 320 1068 l 320 961 l 534 961 l 534 1068 l 747 1068 l 747 961 l 641 961 l 641 854 l 214 854 z "},"Į":{"ha":961,"x_min":214,"x_max":747,"o":"m 320 -320 l 320 -214 l 214 -214 l 214 -106 l 320 -106 l 320 0 l 214 0 l 214 106 l 320 106 l 320 961 l 214 961 l 214 1068 l 641 1068 l 641 961 l 534 961 l 534 106 l 641 106 l 641 0 l 534 0 l 534 -106 l 427 -106 l 427 -214 l 747 -214 l 747 -320 l 320 -320 z "},"į":{"ha":961,"x_min":214,"x_max":747,"o":"m 320 -320 l 320 -214 l 214 -214 l 214 -106 l 320 -106 l 320 0 l 214 0 l 214 106 l 320 106 l 320 641 l 214 641 l 214 747 l 534 747 l 534 106 l 641 106 l 641 0 l 534 0 l 534 -106 l 427 -106 l 427 -214 l 747 -214 l 747 -320 l 320 -320 m 320 854 l 320 1068 l 534 1068 l 534 854 l 320 854 z "},"İ":{"ha":961,"x_min":214,"x_max":641,"o":"m 214 0 l 214 106 l 320 106 l 320 854 l 214 854 l 214 961 l 641 961 l 641 854 l 534 854 l 534 106 l 641 106 l 641 0 l 214 0 m 320 1068 l 320 1282 l 534 1282 l 534 1068 l 320 1068 z "},"ı":{"ha":961,"x_min":214,"x_max":641,"o":"m 214 0 l 214 106 l 320 106 l 320 641 l 214 641 l 214 747 l 534 747 l 534 106 l 641 106 l 641 0 l 214 0 z "},"Ĳ":{"ha":961,"x_min":0,"x_max":854,"o":"m 0 0 l 0 1068 l 214 1068 l 214 0 l 0 0 m 427 0 l 427 106 l 320 106 l 320 427 l 534 427 l 534 106 l 641 106 l 641 961 l 534 961 l 534 1068 l 854 1068 l 854 106 l 747 106 l 747 0 l 427 0 z "},"ĳ":{"ha":961,"x_min":0,"x_max":854,"o":"m 0 0 l 0 747 l 214 747 l 214 0 l 0 0 m 427 -320 l 427 -214 l 320 -214 l 320 0 l 534 0 l 534 -214 l 641 -214 l 641 641 l 534 641 l 534 747 l 854 747 l 854 -214 l 747 -214 l 747 -320 l 427 -320 m 0 854 l 0 1068 l 214 1068 l 214 854 l 0 854 m 641 854 l 641 1068 l 854 1068 l 854 854 l 641 854 z "},"Ĵ":{"ha":961,"x_min":0,"x_max":747,"o":"m 106 0 l 106 106 l 0 106 l 0 320 l 214 320 l 214 106 l 427 106 l 427 854 l 320 854 l 320 961 l 747 961 l 747 854 l 641 854 l 641 106 l 534 106 l 534 0 l 106 0 m 214 1068 l 214 1175 l 320 1175 l 320 1282 l 641 1282 l 641 1175 l 747 1175 l 747 1068 l 534 1068 l 534 1175 l 427 1175 l 427 1068 l 214 1068 z "},"ĵ":{"ha":961,"x_min":0,"x_max":747,"o":"m 106 -320 l 106 -214 l 0 -214 l 0 0 l 214 0 l 214 -214 l 427 -214 l 427 641 l 320 641 l 320 747 l 641 747 l 641 -214 l 534 -214 l 534 -320 l 106 -320 m 214 854 l 214 961 l 320 961 l 320 1068 l 427 1068 l 427 1175 l 534 1175 l 534 1068 l 641 1068 l 641 961 l 747 961 l 747 854 l 534 854 l 534 961 l 427 961 l 427 854 l 214 854 z "},"Ķ":{"ha":961,"x_min":0,"x_max":747,"o":"m 106 -320 l 106 -214 l 427 -214 l 427 -106 l 320 -106 l 320 0 l 534 0 l 534 -106 l 641 -106 l 641 -214 l 534 -214 l 534 -320 l 106 -320 m 0 0 l 0 106 l 106 106 l 106 961 l 0 961 l 0 1068 l 320 1068 l 320 641 l 427 641 l 427 747 l 534 747 l 534 1068 l 747 1068 l 747 747 l 641 747 l 641 641 l 534 641 l 534 427 l 641 427 l 641 320 l 747 320 l 747 0 l 534 0 l 534 320 l 427 320 l 427 427 l 320 427 l 320 0 l 0 0 z "},"ķ":{"ha":961,"x_min":0,"x_max":747,"o":"m 106 -320 l 106 -214 l 427 -214 l 427 -106 l 320 -106 l 320 0 l 534 0 l 534 -106 l 641 -106 l 641 -214 l 534 -214 l 534 -320 l 106 -320 m 0 0 l 0 106 l 106 106 l 106 961 l 0 961 l 0 1068 l 320 1068 l 320 534 l 427 534 l 427 641 l 534 641 l 534 747 l 747 747 l 747 641 l 641 641 l 641 534 l 534 534 l 534 320 l 641 320 l 641 214 l 747 214 l 747 0 l 534 0 l 534 214 l 427 214 l 427 320 l 320 320 l 320 0 l 0 0 z "},"ĸ":{"ha":961,"x_min":0,"x_max":747,"o":"m 0 0 l 0 106 l 106 106 l 106 641 l 0 641 l 0 747 l 320 747 l 320 427 l 427 427 l 427 534 l 534 534 l 534 747 l 747 747 l 747 534 l 641 534 l 641 427 l 534 427 l 534 320 l 641 320 l 641 214 l 747 214 l 747 0 l 534 0 l 534 214 l 427 214 l 427 320 l 320 320 l 320 0 l 0 0 z "},"Ĺ":{"ha":961,"x_min":0,"x_max":747,"o":"m 0 0 l 0 106 l 106 106 l 106 961 l 0 961 l 0 1068 l 427 1068 l 427 961 l 320 961 l 320 106 l 534 106 l 534 214 l 641 214 l 641 320 l 747 320 l 747 0 l 0 0 m 427 854 l 427 961 l 534 961 l 534 1068 l 747 1068 l 747 961 l 641 961 l 641 854 l 427 854 z "},"ĺ":{"ha":961,"x_min":0,"x_max":747,"o":"m 0 0 l 0 106 l 106 106 l 106 961 l 0 961 l 0 1068 l 320 1068 l 320 106 l 427 106 l 427 0 l 0 0 m 427 854 l 427 961 l 534 961 l 534 1068 l 747 1068 l 747 961 l 641 961 l 641 854 l 427 854 z "},"Ļ":{"ha":961,"x_min":0,"x_max":747,"o":"m 106 -320 l 106 -214 l 427 -214 l 427 -106 l 320 -106 l 320 0 l 0 0 l 0 106 l 106 106 l 106 961 l 0 961 l 0 1068 l 427 1068 l 427 961 l 320 961 l 320 106 l 534 106 l 534 214 l 641 214 l 641 320 l 747 320 l 747 0 l 534 0 l 534 -106 l 641 -106 l 641 -214 l 534 -214 l 534 -320 l 106 -320 z "},"ļ":{"ha":961,"x_min":106,"x_max":641,"o":"m 106 -320 l 106 -214 l 427 -214 l 427 -106 l 320 -106 l 320 0 l 214 0 l 214 106 l 320 106 l 320 961 l 214 961 l 214 1068 l 534 1068 l 534 106 l 641 106 l 641 0 l 534 0 l 534 -106 l 641 -106 l 641 -214 l 534 -214 l 534 -320 l 106 -320 z "},"Ľ":{"ha":961,"x_min":0,"x_max":747,"o":"m 0 0 l 0 106 l 106 106 l 106 961 l 0 961 l 0 1068 l 427 1068 l 427 961 l 320 961 l 320 106 l 534 106 l 534 214 l 641 214 l 641 320 l 747 320 l 747 0 l 0 0 m 427 854 l 427 961 l 534 961 l 534 1175 l 747 1175 l 747 961 l 641 961 l 641 854 l 427 854 z "},"ľ":{"ha":961,"x_min":0,"x_max":747,"o":"m 0 0 l 0 106 l 106 106 l 106 961 l 0 961 l 0 1068 l 320 1068 l 320 106 l 427 106 l 427 0 l 0 0 m 427 854 l 427 961 l 534 961 l 534 1175 l 747 1175 l 747 961 l 641 961 l 641 854 l 427 854 z "},"Ŀ":{"ha":961,"x_min":0,"x_max":747,"o":"m 534 534 l 534 747 l 747 747 l 747 534 l 534 534 m 0 0 l 0 106 l 106 106 l 106 961 l 0 961 l 0 1068 l 427 1068 l 427 961 l 320 961 l 320 106 l 534 106 l 534 214 l 641 214 l 641 320 l 747 320 l 747 0 l 0 0 z "},"ŀ":{"ha":961,"x_min":106,"x_max":747,"o":"m 534 427 l 534 641 l 747 641 l 747 427 l 534 427 m 106 0 l 106 106 l 214 106 l 214 961 l 106 961 l 106 1068 l 427 1068 l 427 106 l 534 106 l 534 0 l 106 0 z "},"Ł":{"ha":961,"x_min":0,"x_max":747,"o":"m 0 0 l 0 106 l 106 106 l 106 320 l 0 320 l 0 534 l 106 534 l 106 961 l 0 961 l 0 1068 l 427 1068 l 427 961 l 320 961 l 320 747 l 427 747 l 427 854 l 534 854 l 534 961 l 641 961 l 641 747 l 534 747 l 534 641 l 427 641 l 427 534 l 320 534 l 320 106 l 534 106 l 534 214 l 641 214 l 641 320 l 747 320 l 747 0 l 0 0 z "},"ł":{"ha":961,"x_min":106,"x_max":747,"o":"m 214 0 l 214 106 l 320 106 l 320 320 l 214 320 l 214 214 l 106 214 l 106 427 l 214 427 l 214 534 l 320 534 l 320 961 l 214 961 l 214 1068 l 534 1068 l 534 854 l 641 854 l 641 961 l 747 961 l 747 747 l 641 747 l 641 641 l 534 641 l 534 106 l 641 106 l 641 0 l 214 0 z "},"Ń":{"ha":961,"x_min":0,"x_max":747,"o":"m 0 0 l 0 961 l 214 961 l 214 854 l 320 854 l 320 747 l 427 747 l 427 641 l 534 641 l 534 961 l 747 961 l 747 0 l 534 0 l 534 320 l 427 320 l 427 427 l 320 427 l 320 534 l 214 534 l 214 0 l 0 0 m 320 1068 l 320 1175 l 427 1175 l 427 1282 l 641 1282 l 641 1175 l 534 1175 l 534 1068 l 320 1068 z "},"ń":{"ha":961,"x_min":0,"x_max":747,"o":"m 106 0 l 106 641 l 0 641 l 0 747 l 214 747 l 214 641 l 320 641 l 320 0 l 106 0 m 534 0 l 534 641 l 320 641 l 320 747 l 641 747 l 641 641 l 747 641 l 747 0 l 534 0 m 214 854 l 214 961 l 320 961 l 320 1068 l 427 1068 l 427 1175 l 641 1175 l 641 1068 l 534 1068 l 534 961 l 427 961 l 427 854 l 214 854 z "},"Ņ":{"ha":961,"x_min":0,"x_max":747,"o":"m 106 -320 l 106 -214 l 427 -214 l 427 -106 l 320 -106 l 320 0 l 534 0 l 534 -106 l 641 -106 l 641 -214 l 534 -214 l 534 -320 l 106 -320 m 0 0 l 0 1068 l 214 1068 l 214 961 l 320 961 l 320 854 l 427 854 l 427 747 l 534 747 l 534 1068 l 747 1068 l 747 0 l 534 0 l 534 427 l 427 427 l 427 534 l 320 534 l 320 641 l 214 641 l 214 0 l 0 0 z "},"ņ":{"ha":961,"x_min":0,"x_max":747,"o":"m 106 -320 l 106 -214 l 427 -214 l 427 -106 l 320 -106 l 320 0 l 534 0 l 534 -106 l 641 -106 l 641 -214 l 534 -214 l 534 -320 l 106 -320 m 106 0 l 106 641 l 0 641 l 0 747 l 214 747 l 214 641 l 320 641 l 320 0 l 106 0 m 534 0 l 534 641 l 320 641 l 320 747 l 641 747 l 641 641 l 747 641 l 747 0 l 534 0 z "},"Ň":{"ha":961,"x_min":0,"x_max":747,"o":"m 0 0 l 0 961 l 214 961 l 214 854 l 320 854 l 320 747 l 427 747 l 427 641 l 534 641 l 534 961 l 747 961 l 747 0 l 534 0 l 534 320 l 427 320 l 427 427 l 320 427 l 320 534 l 214 534 l 214 0 l 0 0 m 214 1068 l 214 1175 l 106 1175 l 106 1282 l 320 1282 l 320 1175 l 427 1175 l 427 1282 l 641 1282 l 641 1175 l 534 1175 l 534 1068 l 214 1068 z "},"ň":{"ha":961,"x_min":0,"x_max":747,"o":"m 106 0 l 106 641 l 0 641 l 0 747 l 214 747 l 214 641 l 320 641 l 320 0 l 106 0 m 534 0 l 534 641 l 320 641 l 320 747 l 641 747 l 641 641 l 747 641 l 747 0 l 534 0 m 214 854 l 214 961 l 106 961 l 106 1068 l 320 1068 l 320 961 l 427 961 l 427 1068 l 641 1068 l 641 961 l 534 961 l 534 854 l 214 854 z "},"ŉ":{"ha":961,"x_min":0,"x_max":747,"o":"m 106 0 l 106 641 l 0 641 l 0 747 l 214 747 l 214 641 l 320 641 l 320 0 l 106 0 m 534 0 l 534 641 l 320 641 l 320 747 l 641 747 l 641 641 l 747 641 l 747 0 l 534 0 m 0 854 l 0 961 l 106 961 l 106 1282 l 320 1282 l 320 961 l 214 961 l 214 854 l 0 854 z "},"Ŋ":{"ha":961,"x_min":0,"x_max":747,"o":"m 320 -320 l 320 -214 l 534 -214 l 534 427 l 427 427 l 427 534 l 320 534 l 320 641 l 214 641 l 214 0 l 0 0 l 0 1068 l 214 1068 l 214 961 l 320 961 l 320 854 l 427 854 l 427 747 l 534 747 l 534 1068 l 747 1068 l 747 -214 l 641 -214 l 641 -320 l 320 -320 z "},"ŋ":{"ha":961,"x_min":0,"x_max":747,"o":"m 106 0 l 106 641 l 0 641 l 0 747 l 214 747 l 214 641 l 320 641 l 320 0 l 106 0 m 320 -320 l 320 -214 l 534 -214 l 534 641 l 320 641 l 320 747 l 641 747 l 641 641 l 747 641 l 747 -214 l 641 -214 l 641 -320 l 320 -320 z "},"Ō":{"ha":961,"x_min":0,"x_max":747,"o":"m 534 106 l 534 961 l 214 961 l 214 106 l 534 106 m 106 0 l 106 106 l 0 106 l 0 961 l 106 961 l 106 1068 l 641 1068 l 641 961 l 747 961 l 747 106 l 641 106 l 641 0 l 106 0 m 106 1175 l 106 1282 l 641 1282 l 641 1175 l 106 1175 z "},"ō":{"ha":961,"x_min":0,"x_max":747,"o":"m 534 106 l 534 641 l 214 641 l 214 106 l 534 106 m 106 0 l 106 106 l 0 106 l 0 641 l 106 641 l 106 747 l 641 747 l 641 641 l 747 641 l 747 106 l 641 106 l 641 0 l 106 0 m 106 961 l 106 1068 l 641 1068 l 641 961 l 106 961 z "},"Ŏ":{"ha":961,"x_min":0,"x_max":747,"o":"m 534 106 l 534 854 l 214 854 l 214 106 l 534 106 m 106 0 l 106 106 l 0 106 l 0 854 l 106 854 l 106 961 l 641 961 l 641 854 l 747 854 l 747 106 l 641 106 l 641 0 l 106 0 m 106 1068 l 106 1175 l 0 1175 l 0 1282 l 214 1282 l 214 1175 l 534 1175 l 534 1282 l 747 1282 l 747 1175 l 641 1175 l 641 1068 l 106 1068 z "},"ŏ":{"ha":961,"x_min":0,"x_max":747,"o":"m 534 106 l 534 641 l 214 641 l 214 106 l 534 106 m 106 0 l 106 106 l 0 106 l 0 641 l 106 641 l 106 747 l 641 747 l 641 641 l 747 641 l 747 106 l 641 106 l 641 0 l 106 0 m 106 854 l 106 961 l 0 961 l 0 1068 l 214 1068 l 214 961 l 534 961 l 534 1068 l 747 1068 l 747 961 l 641 961 l 641 854 l 106 854 z "},"Ő":{"ha":961,"x_min":0,"x_max":747,"o":"m 534 106 l 534 854 l 214 854 l 214 106 l 534 106 m 106 0 l 106 106 l 0 106 l 0 854 l 106 854 l 106 961 l 641 961 l 641 854 l 747 854 l 747 106 l 641 106 l 641 0 l 106 0 m 106 1068 l 106 1175 l 214 1175 l 214 1282 l 427 1282 l 427 1175 l 320 1175 l 320 1068 l 106 1068 m 427 1068 l 427 1175 l 534 1175 l 534 1282 l 747 1282 l 747 1175 l 641 1175 l 641 1068 l 427 1068 z "},"ő":{"ha":961,"x_min":0,"x_max":747,"o":"m 534 106 l 534 641 l 214 641 l 214 106 l 534 106 m 106 0 l 106 106 l 0 106 l 0 641 l 106 641 l 106 747 l 641 747 l 641 641 l 747 641 l 747 106 l 641 106 l 641 0 l 106 0 m 106 854 l 106 961 l 214 961 l 214 1068 l 427 1068 l 427 961 l 320 961 l 320 854 l 106 854 m 427 854 l 427 961 l 534 961 l 534 1068 l 747 1068 l 747 961 l 641 961 l 641 854 l 427 854 z "},"Œ":{"ha":961,"x_min":0,"x_max":854,"o":"m 427 106 l 427 961 l 214 961 l 214 106 l 427 106 m 106 0 l 106 106 l 0 106 l 0 961 l 106 961 l 106 1068 l 854 1068 l 854 961 l 641 961 l 641 641 l 854 641 l 854 534 l 641 534 l 641 106 l 854 106 l 854 0 l 106 0 z "},"œ":{"ha":961,"x_min":0,"x_max":854,"o":"m 641 427 l 641 641 l 534 641 l 534 427 l 641 427 m 106 0 l 106 106 l 0 106 l 0 641 l 106 641 l 106 747 l 320 747 l 320 641 l 214 641 l 214 106 l 320 106 l 320 641 l 427 641 l 427 747 l 747 747 l 747 641 l 854 641 l 854 320 l 534 320 l 534 214 l 641 214 l 641 106 l 854 106 l 854 0 l 534 0 l 534 106 l 427 106 l 427 0 l 106 0 z "},"Ŕ":{"ha":961,"x_min":0,"x_max":747,"o":"m 534 534 l 534 854 l 320 854 l 320 534 l 534 534 m 0 0 l 0 106 l 106 106 l 106 854 l 0 854 l 0 961 l 641 961 l 641 854 l 747 854 l 747 534 l 641 534 l 641 320 l 747 320 l 747 0 l 534 0 l 534 320 l 427 320 l 427 427 l 320 427 l 320 0 l 0 0 m 214 1068 l 214 1175 l 320 1175 l 320 1282 l 534 1282 l 534 1175 l 427 1175 l 427 1068 l 214 1068 z "},"ŕ":{"ha":961,"x_min":0,"x_max":747,"o":"m 0 0 l 0 106 l 106 106 l 106 641 l 0 641 l 0 747 l 214 747 l 214 641 l 320 641 l 320 747 l 641 747 l 641 641 l 747 641 l 747 427 l 534 427 l 534 641 l 427 641 l 427 534 l 320 534 l 320 106 l 427 106 l 427 0 l 0 0 m 214 854 l 214 961 l 320 961 l 320 1068 l 427 1068 l 427 1175 l 641 1175 l 641 1068 l 534 1068 l 534 961 l 427 961 l 427 854 l 214 854 z "},"Ŗ":{"ha":961,"x_min":0,"x_max":747,"o":"m 106 -320 l 106 -214 l 427 -214 l 427 -106 l 320 -106 l 320 0 l 534 0 l 534 -106 l 641 -106 l 641 -214 l 534 -214 l 534 -320 l 106 -320 m 534 641 l 534 961 l 320 961 l 320 641 l 534 641 m 0 0 l 0 106 l 106 106 l 106 961 l 0 961 l 0 1068 l 641 1068 l 641 961 l 747 961 l 747 641 l 641 641 l 641 427 l 747 427 l 747 0 l 534 0 l 534 427 l 427 427 l 427 534 l 320 534 l 320 0 l 0 0 z "},"ŗ":{"ha":961,"x_min":0,"x_max":747,"o":"m 106 -320 l 106 -214 l 427 -214 l 427 -106 l 320 -106 l 320 0 l 0 0 l 0 106 l 106 106 l 106 641 l 0 641 l 0 747 l 214 747 l 214 641 l 320 641 l 320 747 l 641 747 l 641 641 l 747 641 l 747 427 l 534 427 l 534 641 l 427 641 l 427 534 l 320 534 l 320 106 l 427 106 l 427 0 l 534 0 l 534 -106 l 641 -106 l 641 -214 l 534 -214 l 534 -320 l 106 -320 z "},"Ř":{"ha":961,"x_min":0,"x_max":747,"o":"m 534 534 l 534 854 l 320 854 l 320 534 l 534 534 m 0 0 l 0 106 l 106 106 l 106 854 l 0 854 l 0 961 l 641 961 l 641 854 l 747 854 l 747 534 l 641 534 l 641 320 l 747 320 l 747 0 l 534 0 l 534 320 l 427 320 l 427 427 l 320 427 l 320 0 l 0 0 m 214 1068 l 214 1175 l 106 1175 l 106 1282 l 320 1282 l 320 1175 l 427 1175 l 427 1282 l 641 1282 l 641 1175 l 534 1175 l 534 1068 l 214 1068 z "},"ř":{"ha":961,"x_min":0,"x_max":747,"o":"m 0 0 l 0 106 l 106 106 l 106 641 l 0 641 l 0 747 l 214 747 l 214 641 l 320 641 l 320 747 l 641 747 l 641 641 l 747 641 l 747 427 l 534 427 l 534 641 l 427 641 l 427 534 l 320 534 l 320 106 l 427 106 l 427 0 l 0 0 m 214 854 l 214 961 l 106 961 l 106 1068 l 320 1068 l 320 961 l 427 961 l 427 1068 l 641 1068 l 641 961 l 534 961 l 534 854 l 214 854 z "},"Ś":{"ha":961,"x_min":0,"x_max":747,"o":"m 106 0 l 106 106 l 0 106 l 0 320 l 214 320 l 214 106 l 534 106 l 534 320 l 427 320 l 427 427 l 214 427 l 214 534 l 106 534 l 106 641 l 0 641 l 0 854 l 106 854 l 106 961 l 641 961 l 641 854 l 747 854 l 747 641 l 534 641 l 534 854 l 214 854 l 214 641 l 320 641 l 320 534 l 534 534 l 534 427 l 641 427 l 641 320 l 747 320 l 747 106 l 641 106 l 641 0 l 106 0 m 214 1068 l 214 1175 l 320 1175 l 320 1282 l 534 1282 l 534 1175 l 427 1175 l 427 1068 l 214 1068 z "},"ś":{"ha":961,"x_min":0,"x_max":747,"o":"m 106 0 l 106 106 l 0 106 l 0 214 l 214 214 l 214 106 l 534 106 l 534 214 l 427 214 l 427 320 l 214 320 l 214 427 l 106 427 l 106 534 l 0 534 l 0 641 l 106 641 l 106 747 l 641 747 l 641 641 l 747 641 l 747 534 l 534 534 l 534 641 l 214 641 l 214 534 l 320 534 l 320 427 l 534 427 l 534 320 l 641 320 l 641 214 l 747 214 l 747 106 l 641 106 l 641 0 l 106 0 m 320 854 l 320 961 l 427 961 l 427 1068 l 641 1068 l 641 961 l 534 961 l 534 854 l 320 854 z "},"Ŝ":{"ha":961,"x_min":0,"x_max":747,"o":"m 106 0 l 106 106 l 0 106 l 0 320 l 214 320 l 214 106 l 534 106 l 534 320 l 427 320 l 427 427 l 214 427 l 214 534 l 106 534 l 106 641 l 0 641 l 0 854 l 106 854 l 106 961 l 641 961 l 641 854 l 747 854 l 747 641 l 534 641 l 534 854 l 214 854 l 214 641 l 320 641 l 320 534 l 534 534 l 534 427 l 641 427 l 641 320 l 747 320 l 747 106 l 641 106 l 641 0 l 106 0 m 106 1068 l 106 1175 l 214 1175 l 214 1282 l 534 1282 l 534 1175 l 641 1175 l 641 1068 l 427 1068 l 427 1175 l 320 1175 l 320 1068 l 106 1068 z "},"ŝ":{"ha":961,"x_min":0,"x_max":747,"o":"m 106 0 l 106 106 l 0 106 l 0 214 l 214 214 l 214 106 l 534 106 l 534 214 l 427 214 l 427 320 l 214 320 l 214 427 l 106 427 l 106 534 l 0 534 l 0 641 l 106 641 l 106 747 l 641 747 l 641 641 l 747 641 l 747 534 l 534 534 l 534 641 l 214 641 l 214 534 l 320 534 l 320 427 l 534 427 l 534 320 l 641 320 l 641 214 l 747 214 l 747 106 l 641 106 l 641 0 l 106 0 m 106 854 l 106 961 l 214 961 l 214 1068 l 320 1068 l 320 1175 l 427 1175 l 427 1068 l 534 1068 l 534 961 l 641 961 l 641 854 l 427 854 l 427 961 l 320 961 l 320 854 l 106 854 z "},"Ş":{"ha":961,"x_min":0,"x_max":747,"o":"m 106 -320 l 106 -214 l 427 -214 l 427 -106 l 320 -106 l 320 0 l 106 0 l 106 106 l 0 106 l 0 320 l 214 320 l 214 106 l 534 106 l 534 427 l 427 427 l 427 534 l 214 534 l 214 641 l 106 641 l 106 747 l 0 747 l 0 961 l 106 961 l 106 1068 l 641 1068 l 641 961 l 747 961 l 747 747 l 534 747 l 534 961 l 214 961 l 214 747 l 320 747 l 320 641 l 534 641 l 534 534 l 641 534 l 641 427 l 747 427 l 747 106 l 641 106 l 641 0 l 534 0 l 534 -106 l 641 -106 l 641 -214 l 534 -214 l 534 -320 l 106 -320 z "},"ş":{"ha":961,"x_min":0,"x_max":747,"o":"m 106 -320 l 106 -214 l 427 -214 l 427 -106 l 320 -106 l 320 0 l 106 0 l 106 106 l 0 106 l 0 214 l 214 214 l 214 106 l 534 106 l 534 214 l 427 214 l 427 320 l 214 320 l 214 427 l 106 427 l 106 534 l 0 534 l 0 641 l 106 641 l 106 747 l 641 747 l 641 641 l 747 641 l 747 534 l 534 534 l 534 641 l 214 641 l 214 534 l 320 534 l 320 427 l 534 427 l 534 320 l 641 320 l 641 214 l 747 214 l 747 106 l 641 106 l 641 0 l 534 0 l 534 -106 l 641 -106 l 641 -214 l 534 -214 l 534 -320 l 106 -320 z "},"Š":{"ha":961,"x_min":0,"x_max":747,"o":"m 106 0 l 106 106 l 0 106 l 0 320 l 214 320 l 214 106 l 534 106 l 534 320 l 427 320 l 427 427 l 214 427 l 214 534 l 106 534 l 106 641 l 0 641 l 0 854 l 106 854 l 106 961 l 641 961 l 641 854 l 747 854 l 747 641 l 534 641 l 534 854 l 214 854 l 214 641 l 320 641 l 320 534 l 534 534 l 534 427 l 641 427 l 641 320 l 747 320 l 747 106 l 641 106 l 641 0 l 106 0 m 214 1068 l 214 1175 l 106 1175 l 106 1282 l 320 1282 l 320 1175 l 427 1175 l 427 1282 l 641 1282 l 641 1175 l 534 1175 l 534 1068 l 214 1068 z "},"š":{"ha":961,"x_min":0,"x_max":747,"o":"m 106 0 l 106 106 l 0 106 l 0 214 l 214 214 l 214 106 l 534 106 l 534 214 l 427 214 l 427 320 l 214 320 l 214 427 l 106 427 l 106 534 l 0 534 l 0 641 l 106 641 l 106 747 l 641 747 l 641 641 l 747 641 l 747 534 l 534 534 l 534 641 l 214 641 l 214 534 l 320 534 l 320 427 l 534 427 l 534 320 l 641 320 l 641 214 l 747 214 l 747 106 l 641 106 l 641 0 l 106 0 m 214 854 l 214 961 l 106 961 l 106 1068 l 320 1068 l 320 961 l 427 961 l 427 1068 l 641 1068 l 641 961 l 534 961 l 534 854 l 214 854 z "},"Ţ":{"ha":961,"x_min":0,"x_max":854,"o":"m 106 -320 l 106 -214 l 427 -214 l 427 -106 l 320 -106 l 320 0 l 214 0 l 214 106 l 320 106 l 320 961 l 214 961 l 214 854 l 106 854 l 106 747 l 0 747 l 0 1068 l 854 1068 l 854 747 l 747 747 l 747 854 l 641 854 l 641 961 l 534 961 l 534 106 l 641 106 l 641 0 l 534 0 l 534 -106 l 641 -106 l 641 -214 l 534 -214 l 534 -320 l 106 -320 z "},"ţ":{"ha":961,"x_min":0,"x_max":747,"o":"m 106 -320 l 106 -214 l 427 -214 l 427 -106 l 320 -106 l 320 106 l 214 106 l 214 641 l 0 641 l 0 747 l 214 747 l 214 961 l 320 961 l 320 1068 l 427 1068 l 427 747 l 641 747 l 641 641 l 427 641 l 427 106 l 534 106 l 534 214 l 747 214 l 747 106 l 641 106 l 641 0 l 534 0 l 534 -106 l 641 -106 l 641 -214 l 534 -214 l 534 -320 l 106 -320 z "},"Ť":{"ha":961,"x_min":0,"x_max":854,"o":"m 214 0 l 214 106 l 320 106 l 320 854 l 214 854 l 214 747 l 106 747 l 106 641 l 0 641 l 0 961 l 854 961 l 854 641 l 747 641 l 747 747 l 641 747 l 641 854 l 534 854 l 534 106 l 641 106 l 641 0 l 214 0 m 214 1068 l 214 1175 l 106 1175 l 106 1282 l 320 1282 l 320 1175 l 534 1175 l 534 1282 l 747 1282 l 747 1175 l 641 1175 l 641 1068 l 214 1068 z "},"ť":{"ha":961,"x_min":0,"x_max":747,"o":"m 320 0 l 320 106 l 214 106 l 214 641 l 0 641 l 0 747 l 214 747 l 214 961 l 320 961 l 320 1068 l 427 1068 l 427 961 l 534 961 l 534 1175 l 747 1175 l 747 961 l 641 961 l 641 854 l 427 854 l 427 106 l 534 106 l 534 214 l 747 214 l 747 106 l 641 106 l 641 0 l 320 0 z "},"Ŧ":{"ha":961,"x_min":0,"x_max":854,"o":"m 214 0 l 214 106 l 320 106 l 320 427 l 106 427 l 106 534 l 320 534 l 320 961 l 214 961 l 214 854 l 106 854 l 106 747 l 0 747 l 0 1068 l 854 1068 l 854 747 l 747 747 l 747 854 l 641 854 l 641 961 l 534 961 l 534 534 l 747 534 l 747 427 l 534 427 l 534 106 l 641 106 l 641 0 l 214 0 z "},"ŧ":{"ha":961,"x_min":0,"x_max":747,"o":"m 320 0 l 320 106 l 214 106 l 214 427 l 0 427 l 0 534 l 214 534 l 214 641 l 0 641 l 0 747 l 214 747 l 214 961 l 320 961 l 320 1068 l 427 1068 l 427 747 l 641 747 l 641 641 l 427 641 l 427 534 l 641 534 l 641 427 l 427 427 l 427 106 l 534 106 l 534 214 l 747 214 l 747 106 l 641 106 l 641 0 l 320 0 z "},"Ũ":{"ha":961,"x_min":0,"x_max":747,"o":"m 106 0 l 106 106 l 0 106 l 0 961 l 214 961 l 214 106 l 534 106 l 534 961 l 747 961 l 747 106 l 641 106 l 641 0 l 106 0 m 0 1068 l 0 1175 l 106 1175 l 106 1282 l 427 1282 l 427 1175 l 534 1175 l 534 1282 l 747 1282 l 747 1175 l 641 1175 l 641 1068 l 320 1068 l 320 1175 l 214 1175 l 214 1068 l 0 1068 z "},"ũ":{"ha":961,"x_min":0,"x_max":747,"o":"m 106 0 l 106 106 l 0 106 l 0 747 l 214 747 l 214 106 l 427 106 l 427 0 l 106 0 m 534 0 l 534 106 l 427 106 l 427 747 l 641 747 l 641 106 l 747 106 l 747 0 l 534 0 m 0 854 l 0 961 l 106 961 l 106 1068 l 427 1068 l 427 961 l 534 961 l 534 1068 l 747 1068 l 747 961 l 641 961 l 641 854 l 320 854 l 320 961 l 214 961 l 214 854 l 0 854 z "},"Ū":{"ha":961,"x_min":0,"x_max":747,"o":"m 106 0 l 106 106 l 0 106 l 0 1068 l 214 1068 l 214 106 l 534 106 l 534 1068 l 747 1068 l 747 106 l 641 106 l 641 0 l 106 0 m 0 1175 l 0 1282 l 747 1282 l 747 1175 l 0 1175 z "},"ū":{"ha":961,"x_min":0,"x_max":747,"o":"m 106 0 l 106 106 l 0 106 l 0 747 l 214 747 l 214 106 l 427 106 l 427 0 l 106 0 m 534 0 l 534 106 l 427 106 l 427 747 l 641 747 l 641 106 l 747 106 l 747 0 l 534 0 m 0 961 l 0 1068 l 641 1068 l 641 961 l 0 961 z "},"Ŭ":{"ha":961,"x_min":0,"x_max":747,"o":"m 106 0 l 106 106 l 0 106 l 0 961 l 214 961 l 214 106 l 534 106 l 534 961 l 747 961 l 747 106 l 641 106 l 641 0 l 106 0 m 106 1068 l 106 1175 l 0 1175 l 0 1282 l 214 1282 l 214 1175 l 534 1175 l 534 1282 l 747 1282 l 747 1175 l 641 1175 l 641 1068 l 106 1068 z "},"ŭ":{"ha":961,"x_min":0,"x_max":747,"o":"m 106 0 l 106 106 l 0 106 l 0 747 l 214 747 l 214 106 l 427 106 l 427 0 l 106 0 m 534 0 l 534 106 l 427 106 l 427 747 l 641 747 l 641 106 l 747 106 l 747 0 l 534 0 m 106 854 l 106 961 l 0 961 l 0 1068 l 214 1068 l 214 961 l 534 961 l 534 1068 l 747 1068 l 747 961 l 641 961 l 641 854 l 106 854 z "},"Ů":{"ha":961,"x_min":0,"x_max":747,"o":"m 106 0 l 106 106 l 0 106 l 0 854 l 214 854 l 214 106 l 534 106 l 534 854 l 747 854 l 747 106 l 641 106 l 641 0 l 106 0 m 427 1068 l 427 1175 l 320 1175 l 320 1068 l 427 1068 m 214 961 l 214 1068 l 106 1068 l 106 1175 l 214 1175 l 214 1282 l 534 1282 l 534 1175 l 641 1175 l 641 1068 l 534 1068 l 534 961 l 214 961 z "},"ů":{"ha":961,"x_min":0,"x_max":747,"o":"m 106 0 l 106 106 l 0 106 l 0 747 l 214 747 l 214 106 l 427 106 l 427 0 l 106 0 m 534 0 l 534 106 l 427 106 l 427 747 l 641 747 l 641 106 l 747 106 l 747 0 l 534 0 m 427 961 l 427 1068 l 214 1068 l 214 961 l 427 961 m 106 854 l 106 961 l 0 961 l 0 1068 l 106 1068 l 106 1175 l 534 1175 l 534 1068 l 641 1068 l 641 961 l 534 961 l 534 854 l 106 854 z "},"Ű":{"ha":961,"x_min":0,"x_max":747,"o":"m 106 0 l 106 106 l 0 106 l 0 961 l 214 961 l 214 106 l 534 106 l 534 961 l 747 961 l 747 106 l 641 106 l 641 0 l 106 0 m 106 1068 l 106 1175 l 214 1175 l 214 1282 l 427 1282 l 427 1175 l 320 1175 l 320 1068 l 106 1068 m 427 1068 l 427 1175 l 534 1175 l 534 1282 l 747 1282 l 747 1175 l 641 1175 l 641 1068 l 427 1068 z "},"ű":{"ha":961,"x_min":0,"x_max":747,"o":"m 106 0 l 106 106 l 0 106 l 0 747 l 214 747 l 214 106 l 427 106 l 427 0 l 106 0 m 534 0 l 534 106 l 427 106 l 427 747 l 641 747 l 641 106 l 747 106 l 747 0 l 534 0 m 106 854 l 106 961 l 214 961 l 214 1068 l 427 1068 l 427 961 l 320 961 l 320 854 l 106 854 m 427 854 l 427 961 l 534 961 l 534 1068 l 747 1068 l 747 961 l 641 961 l 641 854 l 427 854 z "},"Ų":{"ha":961,"x_min":0,"x_max":747,"o":"m 320 -320 l 320 -214 l 214 -214 l 214 -106 l 320 -106 l 320 0 l 106 0 l 106 106 l 0 106 l 0 1068 l 214 1068 l 214 106 l 534 106 l 534 1068 l 747 1068 l 747 106 l 641 106 l 641 0 l 534 0 l 534 -106 l 427 -106 l 427 -214 l 747 -214 l 747 -320 l 320 -320 z "},"ų":{"ha":961,"x_min":0,"x_max":747,"o":"m 320 -320 l 320 -214 l 214 -214 l 214 -106 l 320 -106 l 320 0 l 106 0 l 106 106 l 0 106 l 0 747 l 214 747 l 214 106 l 427 106 l 427 0 l 534 0 l 534 -106 l 427 -106 l 427 -214 l 747 -214 l 747 -320 l 320 -320 m 534 0 l 534 106 l 427 106 l 427 747 l 641 747 l 641 106 l 747 106 l 747 0 l 534 0 z "},"Ŵ":{"ha":961,"x_min":0,"x_max":854,"o":"m 106 0 l 106 214 l 0 214 l 0 961 l 214 961 l 214 320 l 320 320 l 320 534 l 534 534 l 534 320 l 641 320 l 641 961 l 854 961 l 854 214 l 747 214 l 747 0 l 534 0 l 534 214 l 320 214 l 320 0 l 106 0 m 106 1068 l 106 1175 l 214 1175 l 214 1282 l 641 1282 l 641 1175 l 747 1175 l 747 1068 l 534 1068 l 534 1175 l 320 1175 l 320 1068 l 106 1068 z "},"ŵ":{"ha":961,"x_min":0,"x_max":854,"o":"m 106 0 l 106 106 l 0 106 l 0 747 l 214 747 l 214 214 l 320 214 l 320 427 l 534 427 l 534 214 l 641 214 l 641 747 l 854 747 l 854 106 l 747 106 l 747 0 l 534 0 l 534 106 l 320 106 l 320 0 l 106 0 m 106 854 l 106 961 l 214 961 l 214 1068 l 320 1068 l 320 1175 l 534 1175 l 534 1068 l 641 1068 l 641 961 l 747 961 l 747 854 l 534 854 l 534 961 l 320 961 l 320 854 l 106 854 z "},"Ŷ":{"ha":961,"x_min":0,"x_max":854,"o":"m 214 0 l 214 106 l 320 106 l 320 427 l 214 427 l 214 534 l 106 534 l 106 641 l 0 641 l 0 961 l 214 961 l 214 641 l 320 641 l 320 534 l 534 534 l 534 641 l 641 641 l 641 961 l 854 961 l 854 641 l 747 641 l 747 534 l 641 534 l 641 427 l 534 427 l 534 106 l 641 106 l 641 0 l 214 0 m 106 1068 l 106 1175 l 214 1175 l 214 1282 l 641 1282 l 641 1175 l 747 1175 l 747 1068 l 534 1068 l 534 1175 l 320 1175 l 320 1068 l 106 1068 z "},"ŷ":{"ha":961,"x_min":0,"x_max":747,"o":"m 0 -320 l 0 -214 l 427 -214 l 427 -106 l 534 -106 l 534 0 l 106 0 l 106 106 l 0 106 l 0 747 l 214 747 l 214 106 l 534 106 l 534 747 l 747 747 l 747 -106 l 641 -106 l 641 -214 l 534 -214 l 534 -320 l 0 -320 m 106 854 l 106 961 l 214 961 l 214 1068 l 320 1068 l 320 1175 l 427 1175 l 427 1068 l 534 1068 l 534 961 l 641 961 l 641 854 l 427 854 l 427 961 l 320 961 l 320 854 l 106 854 z "},"Ÿ":{"ha":961,"x_min":0,"x_max":854,"o":"m 214 0 l 214 106 l 320 106 l 320 427 l 214 427 l 214 534 l 106 534 l 106 641 l 0 641 l 0 961 l 214 961 l 214 641 l 320 641 l 320 534 l 534 534 l 534 641 l 641 641 l 641 961 l 854 961 l 854 641 l 747 641 l 747 534 l 641 534 l 641 427 l 534 427 l 534 106 l 641 106 l 641 0 l 214 0 m 0 1068 l 0 1175 l 214 1175 l 214 1068 l 0 1068 m 641 1068 l 641 1175 l 854 1175 l 854 1068 l 641 1068 z "},"Ź":{"ha":961,"x_min":0,"x_max":854,"o":"m 0 0 l 0 214 l 106 214 l 106 320 l 214 320 l 214 427 l 320 427 l 320 534 l 427 534 l 427 641 l 534 641 l 534 747 l 641 747 l 641 854 l 214 854 l 214 747 l 106 747 l 106 641 l 0 641 l 0 961 l 854 961 l 854 747 l 747 747 l 747 641 l 641 641 l 641 534 l 534 534 l 534 427 l 427 427 l 427 320 l 320 320 l 320 214 l 214 214 l 214 106 l 641 106 l 641 214 l 747 214 l 747 320 l 854 320 l 854 0 l 0 0 m 320 1068 l 320 1175 l 427 1175 l 427 1282 l 641 1282 l 641 1175 l 534 1175 l 534 1068 l 320 1068 z "},"ź":{"ha":961,"x_min":0,"x_max":747,"o":"m 0 0 l 0 214 l 106 214 l 106 320 l 214 320 l 214 427 l 320 427 l 320 534 l 427 534 l 427 641 l 214 641 l 214 534 l 0 534 l 0 747 l 747 747 l 747 641 l 641 641 l 641 534 l 534 534 l 534 427 l 427 427 l 427 320 l 320 320 l 320 214 l 214 214 l 214 106 l 534 106 l 534 214 l 747 214 l 747 0 l 0 0 m 214 854 l 214 961 l 320 961 l 320 1068 l 427 1068 l 427 1175 l 641 1175 l 641 1068 l 534 1068 l 534 961 l 427 961 l 427 854 l 214 854 z "},"Ż":{"ha":961,"x_min":0,"x_max":854,"o":"m 0 0 l 0 214 l 106 214 l 106 320 l 214 320 l 214 427 l 320 427 l 320 534 l 427 534 l 427 641 l 534 641 l 534 747 l 641 747 l 641 854 l 214 854 l 214 747 l 106 747 l 106 641 l 0 641 l 0 961 l 854 961 l 854 747 l 747 747 l 747 641 l 641 641 l 641 534 l 534 534 l 534 427 l 427 427 l 427 320 l 320 320 l 320 214 l 214 214 l 214 106 l 641 106 l 641 214 l 747 214 l 747 320 l 854 320 l 854 0 l 0 0 m 320 1068 l 320 1282 l 534 1282 l 534 1068 l 320 1068 z "},"ż":{"ha":961,"x_min":0,"x_max":747,"o":"m 0 0 l 0 214 l 106 214 l 106 320 l 214 320 l 214 427 l 320 427 l 320 534 l 427 534 l 427 641 l 214 641 l 214 534 l 0 534 l 0 747 l 747 747 l 747 641 l 641 641 l 641 534 l 534 534 l 534 427 l 427 427 l 427 320 l 320 320 l 320 214 l 214 214 l 214 106 l 534 106 l 534 214 l 747 214 l 747 0 l 0 0 m 320 854 l 320 1068 l 534 1068 l 534 854 l 320 854 z "},"Ž":{"ha":961,"x_min":0,"x_max":854,"o":"m 0 0 l 0 214 l 106 214 l 106 320 l 214 320 l 214 427 l 320 427 l 320 534 l 427 534 l 427 641 l 534 641 l 534 747 l 641 747 l 641 854 l 214 854 l 214 747 l 106 747 l 106 641 l 0 641 l 0 961 l 854 961 l 854 747 l 747 747 l 747 641 l 641 641 l 641 534 l 534 534 l 534 427 l 427 427 l 427 320 l 320 320 l 320 214 l 214 214 l 214 106 l 641 106 l 641 214 l 747 214 l 747 320 l 854 320 l 854 0 l 0 0 m 320 1068 l 320 1175 l 214 1175 l 214 1282 l 427 1282 l 427 1175 l 534 1175 l 534 1282 l 747 1282 l 747 1175 l 641 1175 l 641 1068 l 320 1068 z "},"ž":{"ha":961,"x_min":0,"x_max":747,"o":"m 0 0 l 0 214 l 106 214 l 106 320 l 214 320 l 214 427 l 320 427 l 320 534 l 427 534 l 427 641 l 214 641 l 214 534 l 0 534 l 0 747 l 747 747 l 747 641 l 641 641 l 641 534 l 534 534 l 534 427 l 427 427 l 427 320 l 320 320 l 320 214 l 214 214 l 214 106 l 534 106 l 534 214 l 747 214 l 747 0 l 0 0 m 214 854 l 214 961 l 106 961 l 106 1068 l 320 1068 l 320 961 l 427 961 l 427 1068 l 641 1068 l 641 961 l 534 961 l 534 854 l 214 854 z "},"ſ":{"ha":961,"x_min":106,"x_max":747,"o":"m 106 0 l 106 106 l 214 106 l 214 961 l 320 961 l 320 1068 l 641 1068 l 641 961 l 747 961 l 747 747 l 641 747 l 641 854 l 534 854 l 534 961 l 427 961 l 427 106 l 534 106 l 534 0 l 106 0 z "},"ƒ":{"ha":961,"x_min":0,"x_max":854,"o":"m 106 -214 l 106 -106 l 0 -106 l 0 0 l 214 0 l 214 -106 l 320 -106 l 320 534 l 106 534 l 106 641 l 320 641 l 320 1068 l 427 1068 l 427 1175 l 747 1175 l 747 1068 l 854 1068 l 854 961 l 641 961 l 641 1068 l 534 1068 l 534 641 l 747 641 l 747 534 l 534 534 l 534 -106 l 427 -106 l 427 -214 l 106 -214 z "},"ơ":{"ha":961,"x_min":0,"x_max":747,"o":"m 320 106 l 320 641 l 214 641 l 214 106 l 320 106 m 106 0 l 106 106 l 0 106 l 0 641 l 106 641 l 106 747 l 747 747 l 747 641 l 534 641 l 534 106 l 427 106 l 427 0 l 106 0 z "},"Ʒ":{"ha":961,"x_min":0,"x_max":747,"o":"m 106 0 l 106 106 l 0 106 l 0 214 l 214 214 l 214 106 l 534 106 l 534 534 l 214 534 l 214 641 l 320 641 l 320 747 l 427 747 l 427 854 l 534 854 l 534 961 l 214 961 l 214 854 l 0 854 l 0 1068 l 747 1068 l 747 854 l 641 854 l 641 747 l 534 747 l 534 641 l 641 641 l 641 534 l 747 534 l 747 106 l 641 106 l 641 0 l 106 0 z "},"Ǻ":{"ha":961,"x_min":0,"x_max":854,"o":"m 534 427 l 534 641 l 427 641 l 427 747 l 320 747 l 320 641 l 214 641 l 214 427 l 534 427 m 0 0 l 0 641 l 106 641 l 106 747 l 214 747 l 214 854 l 534 854 l 534 747 l 641 747 l 641 641 l 747 641 l 747 0 l 534 0 l 534 320 l 214 320 l 214 0 l 0 0 m 427 1068 l 427 1175 l 320 1175 l 320 1068 l 427 1068 m 214 961 l 214 1068 l 106 1068 l 106 1175 l 214 1175 l 214 1282 l 534 1282 l 534 1175 l 641 1175 l 641 1282 l 854 1282 l 854 1175 l 747 1175 l 747 1068 l 534 1068 l 534 961 l 214 961 z "},"ǻ":{"ha":961,"x_min":0,"x_max":747,"o":"m 106 0 l 106 106 l 0 106 l 0 427 l 106 427 l 106 534 l 427 534 l 427 641 l 106 641 l 106 747 l 534 747 l 534 641 l 641 641 l 641 106 l 747 106 l 747 0 l 534 0 l 534 106 l 427 106 l 427 427 l 214 427 l 214 106 l 427 106 l 427 0 l 106 0 m 427 961 l 427 1068 l 320 1068 l 320 961 l 427 961 m 214 854 l 214 961 l 106 961 l 106 1068 l 214 1068 l 214 1175 l 427 1175 l 427 1282 l 641 1282 l 641 1175 l 534 1175 l 534 1068 l 641 1068 l 641 961 l 534 961 l 534 854 l 214 854 z "},"Ǽ":{"ha":961,"x_min":0,"x_max":747,"o":"m 427 534 l 427 854 l 320 854 l 320 747 l 214 747 l 214 534 l 427 534 m 0 0 l 0 747 l 106 747 l 106 854 l 214 854 l 214 961 l 747 961 l 747 854 l 641 854 l 641 534 l 747 534 l 747 427 l 641 427 l 641 106 l 747 106 l 747 0 l 427 0 l 427 427 l 214 427 l 214 0 l 0 0 m 320 1068 l 320 1175 l 427 1175 l 427 1282 l 641 1282 l 641 1175 l 534 1175 l 534 1068 l 320 1068 z "},"ǽ":{"ha":961,"x_min":0,"x_max":854,"o":"m 320 106 l 320 320 l 214 320 l 214 106 l 320 106 m 641 427 l 641 641 l 534 641 l 534 427 l 641 427 m 106 0 l 106 106 l 0 106 l 0 320 l 106 320 l 106 427 l 320 427 l 320 534 l 214 534 l 214 641 l 106 641 l 106 747 l 320 747 l 320 641 l 427 641 l 427 747 l 747 747 l 747 641 l 854 641 l 854 427 l 747 427 l 747 320 l 534 320 l 534 214 l 641 214 l 641 106 l 854 106 l 854 0 l 534 0 l 534 106 l 427 106 l 427 0 l 106 0 m 214 854 l 214 961 l 320 961 l 320 1068 l 427 1068 l 427 1175 l 641 1175 l 641 1068 l 534 1068 l 534 961 l 427 961 l 427 854 l 214 854 z "},"Ǿ":{"ha":961,"x_min":0,"x_max":747,"o":"m 320 320 l 320 641 l 427 641 l 427 320 l 320 320 m 534 106 l 534 641 l 427 641 l 427 854 l 214 854 l 214 320 l 320 320 l 320 106 l 534 106 m 106 -106 l 106 106 l 0 106 l 0 854 l 106 854 l 106 961 l 534 961 l 534 1068 l 641 1068 l 641 854 l 747 854 l 747 106 l 641 106 l 641 0 l 214 0 l 214 -106 l 106 -106 m 214 1068 l 214 1175 l 320 1175 l 320 1282 l 534 1282 l 534 1175 l 427 1175 l 427 1068 l 214 1068 z "},"ǿ":{"ha":961,"x_min":0,"x_max":747,"o":"m 534 106 l 534 427 l 427 427 l 427 320 l 320 320 l 320 214 l 214 214 l 214 106 l 534 106 m 320 427 l 320 534 l 427 534 l 427 641 l 214 641 l 214 427 l 320 427 m 106 0 l 106 106 l 0 106 l 0 641 l 106 641 l 106 747 l 641 747 l 641 641 l 747 641 l 747 106 l 641 106 l 641 0 l 106 0 m 106 854 l 106 961 l 214 961 l 214 1068 l 320 1068 l 320 1175 l 534 1175 l 534 1068 l 427 1068 l 427 961 l 320 961 l 320 854 l 106 854 z "},"Ș":{"ha":961,"x_min":0,"x_max":747,"o":"m 214 -320 l 214 -214 l 320 -214 l 320 -106 l 534 -106 l 534 -214 l 427 -214 l 427 -320 l 214 -320 m 106 0 l 106 106 l 0 106 l 0 320 l 214 320 l 214 106 l 534 106 l 534 427 l 427 427 l 427 534 l 214 534 l 214 641 l 106 641 l 106 747 l 0 747 l 0 961 l 106 961 l 106 1068 l 641 1068 l 641 961 l 747 961 l 747 747 l 534 747 l 534 961 l 214 961 l 214 747 l 320 747 l 320 641 l 534 641 l 534 534 l 641 534 l 641 427 l 747 427 l 747 106 l 641 106 l 641 0 l 106 0 z "},"ș":{"ha":961,"x_min":0,"x_max":747,"o":"m 214 -320 l 214 -214 l 320 -214 l 320 -106 l 534 -106 l 534 -214 l 427 -214 l 427 -320 l 214 -320 m 106 0 l 106 106 l 0 106 l 0 214 l 214 214 l 214 106 l 534 106 l 534 214 l 427 214 l 427 320 l 214 320 l 214 427 l 106 427 l 106 534 l 0 534 l 0 641 l 106 641 l 106 747 l 641 747 l 641 641 l 747 641 l 747 534 l 534 534 l 534 641 l 214 641 l 214 534 l 320 534 l 320 427 l 534 427 l 534 320 l 641 320 l 641 214 l 747 214 l 747 106 l 641 106 l 641 0 l 106 0 z "},"Ț":{"ha":961,"x_min":0,"x_max":854,"o":"m 214 -320 l 214 -214 l 320 -214 l 320 -106 l 534 -106 l 534 -214 l 427 -214 l 427 -320 l 214 -320 m 214 0 l 214 106 l 320 106 l 320 961 l 214 961 l 214 854 l 106 854 l 106 747 l 0 747 l 0 1068 l 854 1068 l 854 747 l 747 747 l 747 854 l 641 854 l 641 961 l 534 961 l 534 106 l 641 106 l 641 0 l 214 0 z "},"ț":{"ha":961,"x_min":0,"x_max":747,"o":"m 214 -320 l 214 -214 l 320 -214 l 320 -106 l 534 -106 l 534 -214 l 427 -214 l 427 -320 l 214 -320 m 320 0 l 320 106 l 214 106 l 214 641 l 0 641 l 0 747 l 214 747 l 214 961 l 320 961 l 320 1068 l 427 1068 l 427 747 l 641 747 l 641 641 l 427 641 l 427 106 l 534 106 l 534 214 l 747 214 l 747 106 l 641 106 l 641 0 l 320 0 z "},"ɑ":{"ha":961,"x_min":0,"x_max":747,"o":"m 320 106 l 320 641 l 214 641 l 214 106 l 320 106 m 106 0 l 106 106 l 0 106 l 0 641 l 106 641 l 106 747 l 427 747 l 427 641 l 534 641 l 534 747 l 747 747 l 747 641 l 641 641 l 641 534 l 534 534 l 534 214 l 641 214 l 641 106 l 747 106 l 747 0 l 534 0 l 534 106 l 427 106 l 427 0 l 106 0 z "},"ɸ":{"ha":961,"x_min":106,"x_max":747,"o":"m 534 320 l 534 641 l 320 641 l 320 320 l 534 320 m 106 0 l 106 106 l 320 106 l 320 214 l 214 214 l 214 320 l 106 320 l 106 641 l 214 641 l 214 747 l 320 747 l 320 854 l 106 854 l 106 961 l 747 961 l 747 854 l 534 854 l 534 747 l 641 747 l 641 641 l 747 641 l 747 320 l 641 320 l 641 214 l 534 214 l 534 106 l 747 106 l 747 0 l 106 0 z "},"ˆ":{"ha":961,"x_min":106,"x_max":641,"o":"m 106 854 l 106 961 l 214 961 l 214 1068 l 320 1068 l 320 1175 l 427 1175 l 427 1068 l 534 1068 l 534 961 l 641 961 l 641 854 l 427 854 l 427 961 l 320 961 l 320 854 l 106 854 z "},"ˇ":{"ha":961,"x_min":106,"x_max":641,"o":"m 214 961 l 214 1068 l 106 1068 l 106 1175 l 320 1175 l 320 1068 l 427 1068 l 427 1175 l 641 1175 l 641 1068 l 534 1068 l 534 961 l 214 961 z "},"ˉ":{"ha":961,"x_min":106,"x_max":641,"o":"m 106 1068 l 106 1175 l 641 1175 l 641 1068 l 106 1068 z "},"˘":{"ha":961,"x_min":0,"x_max":747,"o":"m 106 961 l 106 1068 l 0 1068 l 0 1175 l 214 1175 l 214 1068 l 534 1068 l 534 1175 l 747 1175 l 747 1068 l 641 1068 l 641 961 l 106 961 z "},"˙":{"ha":961,"x_min":320,"x_max":534,"o":"m 320 961 l 320 1175 l 534 1175 l 534 961 l 320 961 z "},"˚":{"ha":961,"x_min":106,"x_max":641,"o":"m 427 854 l 427 1068 l 320 1068 l 320 854 l 427 854 m 214 747 l 214 854 l 106 854 l 106 1068 l 214 1068 l 214 1175 l 534 1175 l 534 1068 l 641 1068 l 641 854 l 534 854 l 534 747 l 214 747 z "},"˛":{"ha":961,"x_min":106,"x_max":641,"o":"m 214 -320 l 214 -214 l 106 -214 l 106 -106 l 214 -106 l 214 0 l 427 0 l 427 -106 l 320 -106 l 320 -214 l 641 -214 l 641 -320 l 214 -320 z "},"˜":{"ha":961,"x_min":0,"x_max":747,"o":"m 0 961 l 0 1068 l 106 1068 l 106 1175 l 427 1175 l 427 1068 l 534 1068 l 534 1175 l 747 1175 l 747 1068 l 641 1068 l 641 961 l 320 961 l 320 1068 l 214 1068 l 214 961 l 0 961 z "},"˝":{"ha":961,"x_min":0,"x_max":747,"o":"m 0 854 l 0 961 l 106 961 l 106 1068 l 214 1068 l 214 1175 l 427 1175 l 427 1068 l 320 1068 l 320 961 l 214 961 l 214 854 l 0 854 m 320 854 l 320 961 l 427 961 l 427 1068 l 534 1068 l 534 1175 l 747 1175 l 747 1068 l 641 1068 l 641 961 l 534 961 l 534 854 l 320 854 z "},";":{"ha":961,"x_min":214,"x_max":534,"o":"m 214 0 l 214 106 l 320 106 l 320 320 l 534 320 l 534 106 l 427 106 l 427 0 l 214 0 m 320 641 l 320 854 l 534 854 l 534 641 l 320 641 z "},"΄":{"ha":961,"x_min":320,"x_max":641,"o":"m 320 961 l 320 1175 l 427 1175 l 427 1282 l 641 1282 l 641 1175 l 534 1175 l 534 1068 l 427 1068 l 427 961 l 320 961 z "},"΅":{"ha":961,"x_min":0,"x_max":641,"o":"m 0 854 l 0 961 l 214 961 l 214 854 l 0 854 m 427 854 l 427 961 l 641 961 l 641 854 l 427 854 m 214 1068 l 214 1175 l 320 1175 l 320 1282 l 534 1282 l 534 1175 l 427 1175 l 427 1068 l 214 1068 z "},"Ά":{"ha":961,"x_min":0,"x_max":747,"o":"m 534 534 l 534 747 l 427 747 l 427 854 l 320 854 l 320 747 l 214 747 l 214 534 l 534 534 m 0 0 l 0 747 l 106 747 l 106 854 l 214 854 l 214 961 l 320 961 l 320 1068 l 427 1068 l 427 961 l 534 961 l 534 854 l 641 854 l 641 747 l 747 747 l 747 0 l 534 0 l 534 427 l 214 427 l 214 0 l 0 0 m 0 1068 l 0 1175 l 106 1175 l 106 1282 l 320 1282 l 320 1175 l 214 1175 l 214 1068 l 0 1068 z "},"·":{"ha":961,"x_min":320,"x_max":534,"o":"m 320 534 l 320 747 l 534 747 l 534 534 l 320 534 z "},"Έ":{"ha":961,"x_min":0,"x_max":854,"o":"m 106 0 l 106 106 l 214 106 l 214 961 l 106 961 l 106 1068 l 0 1068 l 0 1175 l 106 1175 l 106 1282 l 320 1282 l 320 1175 l 214 1175 l 214 1068 l 854 1068 l 854 747 l 747 747 l 747 854 l 641 854 l 641 961 l 427 961 l 427 641 l 534 641 l 534 747 l 641 747 l 641 427 l 534 427 l 534 534 l 427 534 l 427 106 l 641 106 l 641 214 l 747 214 l 747 320 l 854 320 l 854 0 l 106 0 z "},"Ή":{"ha":961,"x_min":0,"x_max":854,"o":"m 106 0 l 106 1068 l 0 1068 l 0 1175 l 106 1175 l 106 1282 l 320 1282 l 320 1175 l 214 1175 l 214 1068 l 320 1068 l 320 641 l 641 641 l 641 1068 l 854 1068 l 854 0 l 641 0 l 641 534 l 320 534 l 320 0 l 106 0 z "},"Ί":{"ha":961,"x_min":0,"x_max":747,"o":"m 320 0 l 320 106 l 427 106 l 427 961 l 320 961 l 320 1068 l 747 1068 l 747 961 l 641 961 l 641 106 l 747 106 l 747 0 l 320 0 m 0 1068 l 0 1175 l 106 1175 l 106 1282 l 320 1282 l 320 1175 l 214 1175 l 214 1068 l 0 1068 z "},"Ό":{"ha":961,"x_min":0,"x_max":854,"o":"m 641 106 l 641 961 l 320 961 l 320 106 l 641 106 m 214 0 l 214 106 l 106 106 l 106 961 l 214 961 l 214 1068 l 747 1068 l 747 961 l 854 961 l 854 106 l 747 106 l 747 0 l 214 0 m 0 1068 l 0 1175 l 106 1175 l 106 1282 l 320 1282 l 320 1175 l 214 1175 l 214 1068 l 0 1068 z "},"Ύ":{"ha":961,"x_min":0,"x_max":854,"o":"m 320 0 l 320 106 l 427 106 l 427 534 l 320 534 l 320 641 l 214 641 l 214 1068 l 427 1068 l 427 641 l 641 641 l 641 1068 l 854 1068 l 854 641 l 747 641 l 747 534 l 641 534 l 641 106 l 747 106 l 747 0 l 320 0 m 0 1068 l 0 1175 l 106 1175 l 106 1282 l 320 1282 l 320 1175 l 214 1175 l 214 1068 l 0 1068 z "},"Ώ":{"ha":961,"x_min":0,"x_max":854,"o":"m 106 0 l 106 106 l 214 106 l 214 427 l 106 427 l 106 854 l 214 854 l 214 961 l 320 961 l 320 1068 l 641 1068 l 641 961 l 747 961 l 747 854 l 854 854 l 854 427 l 747 427 l 747 106 l 854 106 l 854 0 l 534 0 l 534 427 l 641 427 l 641 854 l 534 854 l 534 961 l 427 961 l 427 854 l 320 854 l 320 427 l 427 427 l 427 0 l 106 0 m 0 1068 l 0 1175 l 106 1175 l 106 1282 l 320 1282 l 320 1175 l 214 1175 l 214 1068 l 0 1068 z "},"ΐ":{"ha":961,"x_min":0,"x_max":641,"o":"m 534 106 l 534 214 l 641 214 l 641 106 l 534 106 m 320 0 l 320 106 l 214 106 l 214 747 l 427 747 l 427 106 l 534 106 l 534 0 l 320 0 m 0 854 l 0 961 l 214 961 l 214 854 l 0 854 m 427 854 l 427 961 l 641 961 l 641 854 l 427 854 m 214 1068 l 214 1175 l 320 1175 l 320 1282 l 534 1282 l 534 1175 l 427 1175 l 427 1068 l 214 1068 z "},"Α":{"ha":961,"x_min":0,"x_max":747,"o":"m 534 534 l 534 747 l 427 747 l 427 854 l 320 854 l 320 747 l 214 747 l 214 534 l 534 534 m 0 0 l 0 747 l 106 747 l 106 854 l 214 854 l 214 961 l 320 961 l 320 1068 l 427 1068 l 427 961 l 534 961 l 534 854 l 641 854 l 641 747 l 747 747 l 747 0 l 534 0 l 534 427 l 214 427 l 214 0 l 0 0 z "},"Β":{"ha":961,"x_min":0,"x_max":747,"o":"m 534 106 l 534 534 l 320 534 l 320 106 l 534 106 m 534 641 l 534 961 l 320 961 l 320 641 l 534 641 m 0 0 l 0 106 l 106 106 l 106 961 l 0 961 l 0 1068 l 641 1068 l 641 961 l 747 961 l 747 641 l 641 641 l 641 534 l 747 534 l 747 106 l 641 106 l 641 0 l 0 0 z "},"Γ":{"ha":961,"x_min":0,"x_max":747,"o":"m 0 0 l 0 106 l 106 106 l 106 961 l 0 961 l 0 1068 l 747 1068 l 747 747 l 641 747 l 641 854 l 534 854 l 534 961 l 320 961 l 320 106 l 427 106 l 427 0 l 0 0 z "},"Δ":{"ha":961,"x_min":0,"x_max":747,"o":"m 534 106 l 534 427 l 427 427 l 427 641 l 320 641 l 320 427 l 214 427 l 214 106 l 534 106 m 0 0 l 0 427 l 106 427 l 106 641 l 214 641 l 214 854 l 320 854 l 320 1068 l 427 1068 l 427 854 l 534 854 l 534 641 l 641 641 l 641 427 l 747 427 l 747 0 l 0 0 z "},"Ε":{"ha":961,"x_min":0,"x_max":747,"o":"m 0 0 l 0 106 l 106 106 l 106 961 l 0 961 l 0 1068 l 747 1068 l 747 747 l 641 747 l 641 854 l 534 854 l 534 961 l 320 961 l 320 641 l 427 641 l 427 747 l 534 747 l 534 427 l 427 427 l 427 534 l 320 534 l 320 106 l 534 106 l 534 214 l 641 214 l 641 320 l 747 320 l 747 0 l 0 0 z "},"Ζ":{"ha":961,"x_min":0,"x_max":854,"o":"m 0 0 l 0 320 l 106 320 l 106 427 l 214 427 l 214 534 l 320 534 l 320 641 l 427 641 l 427 747 l 534 747 l 534 854 l 641 854 l 641 961 l 214 961 l 214 854 l 106 854 l 106 747 l 0 747 l 0 1068 l 854 1068 l 854 854 l 747 854 l 747 747 l 641 747 l 641 641 l 534 641 l 534 534 l 427 534 l 427 427 l 320 427 l 320 320 l 214 320 l 214 106 l 641 106 l 641 214 l 747 214 l 747 320 l 854 320 l 854 0 l 0 0 z "},"Η":{"ha":961,"x_min":0,"x_max":747,"o":"m 0 0 l 0 1068 l 214 1068 l 214 641 l 534 641 l 534 1068 l 747 1068 l 747 0 l 534 0 l 534 534 l 214 534 l 214 0 l 0 0 z "},"Θ":{"ha":961,"x_min":0,"x_max":747,"o":"m 427 106 l 427 214 l 534 214 l 534 534 l 214 534 l 214 214 l 320 214 l 320 106 l 427 106 m 534 641 l 534 854 l 427 854 l 427 961 l 320 961 l 320 854 l 214 854 l 214 641 l 534 641 m 214 0 l 214 106 l 106 106 l 106 214 l 0 214 l 0 854 l 106 854 l 106 961 l 214 961 l 214 1068 l 534 1068 l 534 961 l 641 961 l 641 854 l 747 854 l 747 214 l 641 214 l 641 106 l 534 106 l 534 0 l 214 0 z "},"Ι":{"ha":961,"x_min":214,"x_max":641,"o":"m 214 0 l 214 106 l 320 106 l 320 961 l 214 961 l 214 1068 l 641 1068 l 641 961 l 534 961 l 534 106 l 641 106 l 641 0 l 214 0 z "},"Κ":{"ha":961,"x_min":0,"x_max":747,"o":"m 0 0 l 0 106 l 106 106 l 106 961 l 0 961 l 0 1068 l 320 1068 l 320 641 l 427 641 l 427 747 l 534 747 l 534 1068 l 747 1068 l 747 747 l 641 747 l 641 641 l 534 641 l 534 427 l 641 427 l 641 320 l 747 320 l 747 0 l 534 0 l 534 320 l 427 320 l 427 427 l 320 427 l 320 0 l 0 0 z "},"Λ":{"ha":961,"x_min":0,"x_max":747,"o":"m 0 0 l 0 427 l 106 427 l 106 641 l 214 641 l 214 854 l 320 854 l 320 1068 l 427 1068 l 427 854 l 534 854 l 534 641 l 641 641 l 641 427 l 747 427 l 747 0 l 534 0 l 534 427 l 427 427 l 427 641 l 320 641 l 320 427 l 214 427 l 214 0 l 0 0 z "},"Μ":{"ha":961,"x_min":0,"x_max":854,"o":"m 0 0 l 0 1068 l 214 1068 l 214 961 l 320 961 l 320 854 l 534 854 l 534 961 l 641 961 l 641 1068 l 854 1068 l 854 0 l 641 0 l 641 641 l 534 641 l 534 534 l 320 534 l 320 641 l 214 641 l 214 0 l 0 0 z "},"Ν":{"ha":961,"x_min":0,"x_max":747,"o":"m 0 0 l 0 1068 l 214 1068 l 214 961 l 320 961 l 320 854 l 427 854 l 427 747 l 534 747 l 534 1068 l 747 1068 l 747 0 l 534 0 l 534 427 l 427 427 l 427 534 l 320 534 l 320 641 l 214 641 l 214 0 l 0 0 z "},"Ξ":{"ha":961,"x_min":0,"x_max":747,"o":"m 0 0 l 0 214 l 214 214 l 214 106 l 534 106 l 534 214 l 747 214 l 747 0 l 0 0 m 106 534 l 106 641 l 641 641 l 641 534 l 106 534 m 0 854 l 0 1068 l 747 1068 l 747 854 l 534 854 l 534 961 l 214 961 l 214 854 l 0 854 z "},"Ο":{"ha":961,"x_min":0,"x_max":747,"o":"m 534 106 l 534 961 l 214 961 l 214 106 l 534 106 m 106 0 l 106 106 l 0 106 l 0 961 l 106 961 l 106 1068 l 641 1068 l 641 961 l 747 961 l 747 106 l 641 106 l 641 0 l 106 0 z "},"Π":{"ha":961,"x_min":0,"x_max":747,"o":"m 0 0 l 0 1068 l 747 1068 l 747 0 l 534 0 l 534 961 l 214 961 l 214 0 l 0 0 z "},"Ρ":{"ha":961,"x_min":0,"x_max":747,"o":"m 534 641 l 534 961 l 320 961 l 320 641 l 534 641 m 0 0 l 0 106 l 106 106 l 106 961 l 0 961 l 0 1068 l 641 1068 l 641 961 l 747 961 l 747 641 l 641 641 l 641 534 l 320 534 l 320 106 l 427 106 l 427 0 l 0 0 z "},"Σ":{"ha":961,"x_min":0,"x_max":747,"o":"m 0 0 l 0 214 l 106 214 l 106 320 l 214 320 l 214 427 l 320 427 l 320 641 l 214 641 l 214 747 l 106 747 l 106 854 l 0 854 l 0 1068 l 747 1068 l 747 747 l 641 747 l 641 854 l 534 854 l 534 961 l 214 961 l 214 854 l 320 854 l 320 747 l 427 747 l 427 641 l 534 641 l 534 427 l 427 427 l 427 320 l 320 320 l 320 214 l 214 214 l 214 106 l 534 106 l 534 214 l 641 214 l 641 320 l 747 320 l 747 0 l 0 0 z "},"Τ":{"ha":961,"x_min":0,"x_max":854,"o":"m 214 0 l 214 106 l 320 106 l 320 961 l 214 961 l 214 854 l 106 854 l 106 747 l 0 747 l 0 1068 l 854 1068 l 854 747 l 747 747 l 747 854 l 641 854 l 641 961 l 534 961 l 534 106 l 641 106 l 641 0 l 214 0 z "},"Υ":{"ha":961,"x_min":0,"x_max":854,"o":"m 214 0 l 214 106 l 320 106 l 320 534 l 214 534 l 214 641 l 106 641 l 106 747 l 0 747 l 0 1068 l 214 1068 l 214 747 l 320 747 l 320 641 l 534 641 l 534 747 l 641 747 l 641 1068 l 854 1068 l 854 747 l 747 747 l 747 641 l 641 641 l 641 534 l 534 534 l 534 106 l 641 106 l 641 0 l 214 0 z "},"Φ":{"ha":961,"x_min":0,"x_max":854,"o":"m 320 320 l 320 747 l 214 747 l 214 320 l 320 320 m 641 320 l 641 747 l 534 747 l 534 320 l 641 320 m 214 0 l 214 106 l 320 106 l 320 214 l 106 214 l 106 320 l 0 320 l 0 747 l 106 747 l 106 854 l 320 854 l 320 961 l 214 961 l 214 1068 l 641 1068 l 641 961 l 534 961 l 534 854 l 747 854 l 747 747 l 854 747 l 854 320 l 747 320 l 747 214 l 534 214 l 534 106 l 641 106 l 641 0 l 214 0 z "},"Χ":{"ha":961,"x_min":0,"x_max":854,"o":"m 0 0 l 0 214 l 106 214 l 106 320 l 214 320 l 214 427 l 320 427 l 320 641 l 214 641 l 214 747 l 106 747 l 106 854 l 0 854 l 0 1068 l 214 1068 l 214 854 l 320 854 l 320 747 l 534 747 l 534 854 l 641 854 l 641 1068 l 854 1068 l 854 854 l 747 854 l 747 747 l 641 747 l 641 641 l 534 641 l 534 427 l 641 427 l 641 320 l 747 320 l 747 214 l 854 214 l 854 0 l 641 0 l 641 214 l 534 214 l 534 320 l 320 320 l 320 214 l 214 214 l 214 0 l 0 0 z "},"Ψ":{"ha":961,"x_min":0,"x_max":854,"o":"m 214 0 l 214 106 l 320 106 l 320 320 l 106 320 l 106 427 l 0 427 l 0 1068 l 214 1068 l 214 427 l 320 427 l 320 1068 l 534 1068 l 534 427 l 641 427 l 641 1068 l 854 1068 l 854 427 l 747 427 l 747 320 l 534 320 l 534 106 l 641 106 l 641 0 l 214 0 z "},"Ω":{"ha":961,"x_min":0,"x_max":747,"o":"m 0 0 l 0 106 l 106 106 l 106 427 l 0 427 l 0 854 l 106 854 l 106 961 l 214 961 l 214 1068 l 534 1068 l 534 961 l 641 961 l 641 854 l 747 854 l 747 427 l 641 427 l 641 106 l 747 106 l 747 0 l 427 0 l 427 427 l 534 427 l 534 854 l 427 854 l 427 961 l 320 961 l 320 854 l 214 854 l 214 427 l 320 427 l 320 0 l 0 0 z "},"Ϊ":{"ha":961,"x_min":106,"x_max":747,"o":"m 214 0 l 214 106 l 320 106 l 320 854 l 214 854 l 214 961 l 641 961 l 641 854 l 534 854 l 534 106 l 641 106 l 641 0 l 214 0 m 106 1068 l 106 1175 l 320 1175 l 320 1068 l 106 1068 m 534 1068 l 534 1175 l 747 1175 l 747 1068 l 534 1068 z "},"Ϋ":{"ha":961,"x_min":0,"x_max":854,"o":"m 214 0 l 214 106 l 320 106 l 320 427 l 214 427 l 214 534 l 106 534 l 106 641 l 0 641 l 0 961 l 214 961 l 214 641 l 320 641 l 320 534 l 534 534 l 534 641 l 641 641 l 641 961 l 854 961 l 854 641 l 747 641 l 747 534 l 641 534 l 641 427 l 534 427 l 534 106 l 641 106 l 641 0 l 214 0 m 0 1068 l 0 1175 l 214 1175 l 214 1068 l 0 1068 m 641 1068 l 641 1175 l 854 1175 l 854 1068 l 641 1068 z "},"ά":{"ha":961,"x_min":0,"x_max":747,"o":"m 106 0 l 106 106 l 0 106 l 0 641 l 106 641 l 106 747 l 427 747 l 427 641 l 214 641 l 214 106 l 427 106 l 427 0 l 106 0 m 534 0 l 534 106 l 427 106 l 427 641 l 534 641 l 534 747 l 641 747 l 641 106 l 747 106 l 747 0 l 534 0 m 320 854 l 320 961 l 427 961 l 427 1068 l 641 1068 l 641 961 l 534 961 l 534 854 l 320 854 z "},"έ":{"ha":961,"x_min":106,"x_max":747,"o":"m 214 0 l 214 106 l 106 106 l 106 320 l 214 320 l 214 427 l 106 427 l 106 641 l 214 641 l 214 747 l 747 747 l 747 641 l 320 641 l 320 427 l 534 427 l 534 320 l 320 320 l 320 106 l 747 106 l 747 0 l 214 0 m 427 854 l 427 961 l 534 961 l 534 1068 l 747 1068 l 747 961 l 641 961 l 641 854 l 427 854 z "},"ή":{"ha":961,"x_min":0,"x_max":747,"o":"m 106 0 l 106 641 l 0 641 l 0 747 l 214 747 l 214 641 l 320 641 l 320 0 l 106 0 m 534 -320 l 534 641 l 320 641 l 320 747 l 641 747 l 641 641 l 747 641 l 747 -320 l 534 -320 m 320 854 l 320 961 l 427 961 l 427 1068 l 641 1068 l 641 961 l 534 961 l 534 854 l 320 854 z "},"ί":{"ha":961,"x_min":214,"x_max":641,"o":"m 534 106 l 534 214 l 641 214 l 641 106 l 534 106 m 320 0 l 320 106 l 214 106 l 214 747 l 427 747 l 427 106 l 534 106 l 534 0 l 320 0 m 320 854 l 320 961 l 427 961 l 427 1068 l 641 1068 l 641 961 l 534 961 l 534 854 l 320 854 z "},"ΰ":{"ha":961,"x_min":0,"x_max":747,"o":"m 106 0 l 106 106 l 0 106 l 0 747 l 214 747 l 214 106 l 427 106 l 427 747 l 747 747 l 747 641 l 641 641 l 641 106 l 534 106 l 534 0 l 106 0 m 0 854 l 0 961 l 214 961 l 214 854 l 0 854 m 427 854 l 427 961 l 641 961 l 641 854 l 427 854 m 214 1068 l 214 1175 l 320 1175 l 320 1282 l 534 1282 l 534 1175 l 427 1175 l 427 1068 l 214 1068 z "},"α":{"ha":961,"x_min":0,"x_max":747,"o":"m 106 0 l 106 106 l 0 106 l 0 641 l 106 641 l 106 747 l 427 747 l 427 641 l 214 641 l 214 106 l 427 106 l 427 0 l 106 0 m 534 0 l 534 106 l 427 106 l 427 641 l 534 641 l 534 747 l 641 747 l 641 106 l 747 106 l 747 0 l 534 0 z "},"β":{"ha":961,"x_min":0,"x_max":747,"o":"m 534 106 l 534 534 l 214 534 l 214 106 l 534 106 m 320 641 l 320 747 l 427 747 l 427 961 l 214 961 l 214 641 l 320 641 m 0 -320 l 0 961 l 106 961 l 106 1068 l 534 1068 l 534 961 l 641 961 l 641 747 l 534 747 l 534 641 l 641 641 l 641 534 l 747 534 l 747 106 l 641 106 l 641 0 l 214 0 l 214 -214 l 106 -214 l 106 -320 l 0 -320 z "},"γ":{"ha":961,"x_min":0,"x_max":747,"o":"m 427 -214 l 427 106 l 320 106 l 320 -214 l 427 -214 m 214 -320 l 214 -214 l 106 -214 l 106 106 l 214 106 l 214 427 l 106 427 l 106 641 l 0 641 l 0 747 l 214 747 l 214 641 l 320 641 l 320 427 l 427 427 l 427 641 l 534 641 l 534 747 l 747 747 l 747 641 l 641 641 l 641 427 l 534 427 l 534 106 l 641 106 l 641 -214 l 534 -214 l 534 -320 l 214 -320 z "},"δ":{"ha":961,"x_min":106,"x_max":747,"o":"m 534 106 l 534 534 l 320 534 l 320 106 l 534 106 m 214 0 l 214 106 l 106 106 l 106 534 l 214 534 l 214 641 l 427 641 l 427 747 l 320 747 l 320 854 l 214 854 l 214 961 l 320 961 l 320 1068 l 747 1068 l 747 961 l 427 961 l 427 854 l 534 854 l 534 747 l 641 747 l 641 641 l 747 641 l 747 106 l 641 106 l 641 0 l 214 0 z "},"ε":{"ha":961,"x_min":106,"x_max":747,"o":"m 214 0 l 214 106 l 106 106 l 106 320 l 214 320 l 214 427 l 106 427 l 106 641 l 214 641 l 214 747 l 747 747 l 747 641 l 320 641 l 320 427 l 534 427 l 534 320 l 320 320 l 320 106 l 747 106 l 747 0 l 214 0 z "},"ζ":{"ha":961,"x_min":0,"x_max":747,"o":"m 320 -214 l 320 -106 l 534 -106 l 534 0 l 214 0 l 214 106 l 106 106 l 106 214 l 0 214 l 0 641 l 106 641 l 106 747 l 214 747 l 214 854 l 106 854 l 106 961 l 0 961 l 0 1068 l 214 1068 l 214 961 l 641 961 l 641 854 l 427 854 l 427 747 l 320 747 l 320 641 l 214 641 l 214 214 l 320 214 l 320 106 l 641 106 l 641 0 l 747 0 l 747 -106 l 641 -106 l 641 -214 l 320 -214 z "},"η":{"ha":961,"x_min":0,"x_max":747,"o":"m 106 0 l 106 641 l 0 641 l 0 747 l 214 747 l 214 641 l 320 641 l 320 0 l 106 0 m 534 -320 l 534 641 l 320 641 l 320 747 l 641 747 l 641 641 l 747 641 l 747 -320 l 534 -320 z "},"θ":{"ha":961,"x_min":0,"x_max":747,"o":"m 534 534 l 534 961 l 320 961 l 320 641 l 427 641 l 427 534 l 534 534 m 214 0 l 214 106 l 106 106 l 106 320 l 0 320 l 0 427 l 214 427 l 214 320 l 320 320 l 320 106 l 534 106 l 534 427 l 320 427 l 320 534 l 214 534 l 214 641 l 106 641 l 106 961 l 214 961 l 214 1068 l 641 1068 l 641 961 l 747 961 l 747 106 l 641 106 l 641 0 l 214 0 z "},"ι":{"ha":961,"x_min":214,"x_max":641,"o":"m 534 106 l 534 214 l 641 214 l 641 106 l 534 106 m 320 0 l 320 106 l 214 106 l 214 747 l 427 747 l 427 106 l 534 106 l 534 0 l 320 0 z "},"κ":{"ha":961,"x_min":0,"x_max":747,"o":"m 0 0 l 0 747 l 214 747 l 214 427 l 320 427 l 320 534 l 427 534 l 427 641 l 534 641 l 534 747 l 747 747 l 747 641 l 641 641 l 641 534 l 534 534 l 534 320 l 641 320 l 641 214 l 747 214 l 747 0 l 534 0 l 534 214 l 427 214 l 427 320 l 320 320 l 320 214 l 214 214 l 214 0 l 0 0 z "},"λ":{"ha":961,"x_min":106,"x_max":747,"o":"m 106 0 l 106 320 l 214 320 l 214 427 l 320 427 l 320 534 l 427 534 l 427 641 l 534 641 l 534 961 l 320 961 l 320 854 l 106 854 l 106 961 l 214 961 l 214 1068 l 641 1068 l 641 961 l 747 961 l 747 0 l 534 0 l 534 427 l 427 427 l 427 320 l 320 320 l 320 0 l 106 0 z "},"μ":{"ha":961,"x_min":0,"x_max":747,"o":"m 641 0 l 641 106 l 747 106 l 747 0 l 641 0 m 0 -320 l 0 747 l 214 747 l 214 214 l 320 214 l 320 106 l 214 106 l 214 -320 l 0 -320 m 320 0 l 320 106 l 427 106 l 427 747 l 641 747 l 641 106 l 534 106 l 534 0 l 320 0 z "},"ν":{"ha":961,"x_min":0,"x_max":747,"o":"m 214 0 l 214 106 l 106 106 l 106 641 l 0 641 l 0 747 l 320 747 l 320 214 l 427 214 l 427 320 l 534 320 l 534 747 l 747 747 l 747 320 l 641 320 l 641 214 l 534 214 l 534 106 l 427 106 l 427 0 l 214 0 z "},"ξ":{"ha":961,"x_min":0,"x_max":747,"o":"m 320 -214 l 320 -106 l 534 -106 l 534 0 l 106 0 l 106 106 l 0 106 l 0 320 l 106 320 l 106 534 l 0 534 l 0 747 l 106 747 l 106 961 l 0 961 l 0 1068 l 214 1068 l 214 961 l 641 961 l 641 854 l 320 854 l 320 747 l 214 747 l 214 534 l 641 534 l 641 427 l 320 427 l 320 320 l 214 320 l 214 106 l 641 106 l 641 0 l 747 0 l 747 -106 l 641 -106 l 641 -214 l 320 -214 z "},"ο":{"ha":961,"x_min":0,"x_max":747,"o":"m 534 106 l 534 641 l 214 641 l 214 106 l 534 106 m 106 0 l 106 106 l 0 106 l 0 641 l 106 641 l 106 747 l 641 747 l 641 641 l 747 641 l 747 106 l 641 106 l 641 0 l 106 0 z "},"π":{"ha":961,"x_min":0,"x_max":747,"o":"m 106 0 l 106 641 l 0 641 l 0 747 l 747 747 l 747 641 l 641 641 l 641 0 l 427 0 l 427 641 l 320 641 l 320 0 l 106 0 z "},"ρ":{"ha":961,"x_min":0,"x_max":747,"o":"m 0 -320 l 0 641 l 106 641 l 106 747 l 641 747 l 641 641 l 747 641 l 747 106 l 641 106 l 641 0 l 320 0 l 320 106 l 534 106 l 534 641 l 214 641 l 214 214 l 320 214 l 320 106 l 214 106 l 214 -320 l 0 -320 z "},"ς":{"ha":961,"x_min":0,"x_max":747,"o":"m 106 -214 l 106 -106 l 534 -106 l 534 106 l 214 106 l 214 214 l 106 214 l 106 320 l 0 320 l 0 641 l 106 641 l 106 747 l 641 747 l 641 641 l 747 641 l 747 534 l 534 534 l 534 641 l 214 641 l 214 320 l 320 320 l 320 214 l 641 214 l 641 106 l 747 106 l 747 -106 l 641 -106 l 641 -214 l 106 -214 z "},"σ":{"ha":961,"x_min":0,"x_max":747,"o":"m 427 106 l 427 641 l 214 641 l 214 106 l 427 106 m 106 0 l 106 106 l 0 106 l 0 641 l 106 641 l 106 747 l 747 747 l 747 641 l 534 641 l 534 534 l 641 534 l 641 106 l 534 106 l 534 0 l 106 0 z "},"τ":{"ha":961,"x_min":106,"x_max":747,"o":"m 641 106 l 641 214 l 747 214 l 747 106 l 641 106 m 427 0 l 427 106 l 320 106 l 320 641 l 106 641 l 106 747 l 747 747 l 747 641 l 534 641 l 534 106 l 641 106 l 641 0 l 427 0 z "},"υ":{"ha":961,"x_min":0,"x_max":747,"o":"m 106 0 l 106 106 l 0 106 l 0 747 l 214 747 l 214 106 l 427 106 l 427 747 l 747 747 l 747 641 l 641 641 l 641 106 l 534 106 l 534 0 l 106 0 z "},"φ":{"ha":961,"x_min":0,"x_max":854,"o":"m 641 106 l 641 641 l 534 641 l 534 106 l 641 106 m 320 -320 l 320 0 l 106 0 l 106 106 l 0 106 l 0 534 l 106 534 l 106 641 l 214 641 l 214 106 l 320 106 l 320 641 l 427 641 l 427 747 l 747 747 l 747 641 l 854 641 l 854 106 l 747 106 l 747 0 l 534 0 l 534 -320 l 320 -320 z "},"χ":{"ha":961,"x_min":0,"x_max":854,"o":"m 0 0 l 0 106 l 106 106 l 106 0 l 0 0 m 641 0 l 641 106 l 534 106 l 534 214 l 320 214 l 320 106 l 106 106 l 106 214 l 214 214 l 214 320 l 320 320 l 320 427 l 214 427 l 214 534 l 106 534 l 106 641 l 0 641 l 0 747 l 214 747 l 214 641 l 320 641 l 320 534 l 534 534 l 534 641 l 747 641 l 747 534 l 641 534 l 641 427 l 534 427 l 534 320 l 641 320 l 641 214 l 747 214 l 747 106 l 854 106 l 854 0 l 641 0 m 747 641 l 747 747 l 854 747 l 854 641 l 747 641 z "},"ψ":{"ha":961,"x_min":0,"x_max":854,"o":"m 320 -320 l 320 0 l 106 0 l 106 106 l 0 106 l 0 747 l 214 747 l 214 106 l 320 106 l 320 641 l 534 641 l 534 106 l 641 106 l 641 747 l 854 747 l 854 106 l 747 106 l 747 0 l 534 0 l 534 -320 l 320 -320 z "},"ω":{"ha":961,"x_min":0,"x_max":747,"o":"m 320 106 l 320 427 l 427 427 l 427 106 l 320 106 m 106 0 l 106 106 l 0 106 l 0 641 l 106 641 l 106 747 l 214 747 l 214 106 l 320 106 l 320 0 l 106 0 m 427 0 l 427 106 l 534 106 l 534 747 l 641 747 l 641 641 l 747 641 l 747 106 l 641 106 l 641 0 l 427 0 z "},"ϊ":{"ha":961,"x_min":0,"x_max":641,"o":"m 534 106 l 534 214 l 641 214 l 641 106 l 534 106 m 320 0 l 320 106 l 214 106 l 214 747 l 427 747 l 427 106 l 534 106 l 534 0 l 320 0 m 0 961 l 0 1068 l 214 1068 l 214 961 l 0 961 m 427 961 l 427 1068 l 641 1068 l 641 961 l 427 961 z "},"ϋ":{"ha":961,"x_min":0,"x_max":747,"o":"m 106 0 l 106 106 l 0 106 l 0 747 l 214 747 l 214 106 l 427 106 l 427 747 l 747 747 l 747 641 l 641 641 l 641 106 l 534 106 l 534 0 l 106 0 m 0 961 l 0 1068 l 214 1068 l 214 961 l 0 961 m 427 961 l 427 1068 l 641 1068 l 641 961 l 427 961 z "},"ό":{"ha":961,"x_min":0,"x_max":747,"o":"m 534 106 l 534 641 l 214 641 l 214 106 l 534 106 m 106 0 l 106 106 l 0 106 l 0 641 l 106 641 l 106 747 l 641 747 l 641 641 l 747 641 l 747 106 l 641 106 l 641 0 l 106 0 m 320 854 l 320 961 l 427 961 l 427 1068 l 641 1068 l 641 961 l 534 961 l 534 854 l 320 854 z "},"ύ":{"ha":961,"x_min":0,"x_max":747,"o":"m 106 0 l 106 106 l 0 106 l 0 747 l 214 747 l 214 106 l 427 106 l 427 747 l 747 747 l 747 641 l 641 641 l 641 106 l 534 106 l 534 0 l 106 0 m 320 854 l 320 961 l 427 961 l 427 1068 l 641 1068 l 641 961 l 534 961 l 534 854 l 320 854 z "},"ώ":{"ha":961,"x_min":0,"x_max":747,"o":"m 320 106 l 320 427 l 427 427 l 427 106 l 320 106 m 106 0 l 106 106 l 0 106 l 0 641 l 106 641 l 106 747 l 214 747 l 214 106 l 320 106 l 320 0 l 106 0 m 427 0 l 427 106 l 534 106 l 534 747 l 641 747 l 641 641 l 747 641 l 747 106 l 641 106 l 641 0 l 427 0 m 320 854 l 320 961 l 427 961 l 427 1068 l 641 1068 l 641 961 l 534 961 l 534 854 l 320 854 z "},"ϐ":{"ha":961,"x_min":0,"x_max":747,"o":"m 0 0 l 0 961 l 106 961 l 106 1068 l 534 1068 l 534 961 l 641 961 l 641 641 l 534 641 l 534 534 l 641 534 l 641 427 l 747 427 l 747 106 l 641 106 l 641 0 l 427 0 l 427 106 l 534 106 l 534 427 l 427 427 l 427 534 l 320 534 l 320 641 l 427 641 l 427 961 l 214 961 l 214 0 l 0 0 z "},"ϑ":{"ha":961,"x_min":0,"x_max":747,"o":"m 427 106 l 427 214 l 534 214 l 534 427 l 214 427 l 214 214 l 320 214 l 320 106 l 427 106 m 534 534 l 534 747 l 427 747 l 427 854 l 320 854 l 320 747 l 214 747 l 214 534 l 534 534 m 214 0 l 214 106 l 106 106 l 106 214 l 0 214 l 0 747 l 106 747 l 106 854 l 214 854 l 214 961 l 534 961 l 534 854 l 641 854 l 641 747 l 747 747 l 747 214 l 641 214 l 641 106 l 534 106 l 534 0 l 214 0 z "},"Ѐ":{"ha":961,"x_min":0,"x_max":747,"o":"m 0 0 l 0 106 l 106 106 l 106 854 l 0 854 l 0 961 l 747 961 l 747 641 l 641 641 l 641 747 l 534 747 l 534 854 l 320 854 l 320 534 l 427 534 l 427 641 l 534 641 l 534 320 l 427 320 l 427 427 l 320 427 l 320 106 l 534 106 l 534 214 l 641 214 l 641 320 l 747 320 l 747 0 l 0 0 m 320 1068 l 320 1175 l 214 1175 l 214 1282 l 427 1282 l 427 1175 l 534 1175 l 534 1068 l 320 1068 z "},"Ё":{"ha":961,"x_min":0,"x_max":747,"o":"m 0 0 l 0 106 l 106 106 l 106 854 l 0 854 l 0 961 l 747 961 l 747 641 l 641 641 l 641 747 l 534 747 l 534 854 l 320 854 l 320 534 l 427 534 l 427 641 l 534 641 l 534 320 l 427 320 l 427 427 l 320 427 l 320 106 l 534 106 l 534 214 l 641 214 l 641 320 l 747 320 l 747 0 l 0 0 m 0 1068 l 0 1175 l 214 1175 l 214 1068 l 0 1068 m 534 1068 l 534 1175 l 747 1175 l 747 1068 l 534 1068 z "},"Ђ":{"ha":961,"x_min":0,"x_max":747,"o":"m 427 -106 l 427 0 l 534 0 l 534 641 l 427 641 l 427 747 l 641 747 l 641 641 l 747 641 l 747 0 l 641 0 l 641 -106 l 427 -106 m 0 0 l 0 106 l 106 106 l 106 961 l 0 961 l 0 1068 l 641 1068 l 641 854 l 534 854 l 534 961 l 320 961 l 320 641 l 427 641 l 427 534 l 320 534 l 320 0 l 0 0 z "},"Ѓ":{"ha":961,"x_min":0,"x_max":747,"o":"m 0 0 l 0 106 l 106 106 l 106 854 l 0 854 l 0 961 l 747 961 l 747 641 l 641 641 l 641 747 l 534 747 l 534 854 l 320 854 l 320 106 l 427 106 l 427 0 l 0 0 m 320 1068 l 320 1175 l 427 1175 l 427 1282 l 641 1282 l 641 1175 l 534 1175 l 534 1068 l 320 1068 z "},"Є":{"ha":961,"x_min":0,"x_max":747,"o":"m 214 0 l 214 106 l 106 106 l 106 214 l 0 214 l 0 854 l 106 854 l 106 961 l 214 961 l 214 1068 l 641 1068 l 641 961 l 747 961 l 747 747 l 641 747 l 641 854 l 534 854 l 534 961 l 320 961 l 320 854 l 214 854 l 214 641 l 427 641 l 427 747 l 534 747 l 534 427 l 427 427 l 427 534 l 214 534 l 214 214 l 320 214 l 320 106 l 534 106 l 534 214 l 641 214 l 641 320 l 747 320 l 747 106 l 641 106 l 641 0 l 214 0 z "},"Ѕ":{"ha":961,"x_min":0,"x_max":747,"o":"m 106 0 l 106 106 l 0 106 l 0 320 l 214 320 l 214 106 l 534 106 l 534 427 l 427 427 l 427 534 l 214 534 l 214 641 l 106 641 l 106 747 l 0 747 l 0 961 l 106 961 l 106 1068 l 641 1068 l 641 961 l 747 961 l 747 747 l 534 747 l 534 961 l 214 961 l 214 747 l 320 747 l 320 641 l 534 641 l 534 534 l 641 534 l 641 427 l 747 427 l 747 106 l 641 106 l 641 0 l 106 0 z "},"І":{"ha":961,"x_min":214,"x_max":641,"o":"m 214 0 l 214 106 l 320 106 l 320 961 l 214 961 l 214 1068 l 641 1068 l 641 961 l 534 961 l 534 106 l 641 106 l 641 0 l 214 0 z "},"Ї":{"ha":961,"x_min":106,"x_max":747,"o":"m 214 0 l 214 106 l 320 106 l 320 961 l 214 961 l 214 1068 l 641 1068 l 641 961 l 534 961 l 534 106 l 641 106 l 641 0 l 214 0 m 106 1175 l 106 1282 l 320 1282 l 320 1175 l 106 1175 m 534 1175 l 534 1282 l 747 1282 l 747 1175 l 534 1175 z "},"Ј":{"ha":961,"x_min":0,"x_max":747,"o":"m 106 0 l 106 106 l 0 106 l 0 427 l 214 427 l 214 106 l 427 106 l 427 961 l 320 961 l 320 1068 l 747 1068 l 747 961 l 641 961 l 641 106 l 534 106 l 534 0 l 106 0 z "},"Љ":{"ha":961,"x_min":0,"x_max":854,"o":"m 641 106 l 641 534 l 534 534 l 534 106 l 641 106 m 0 0 l 0 1068 l 641 1068 l 641 961 l 534 961 l 534 641 l 747 641 l 747 534 l 854 534 l 854 106 l 747 106 l 747 0 l 320 0 l 320 961 l 214 961 l 214 0 l 0 0 z "},"Њ":{"ha":961,"x_min":0,"x_max":854,"o":"m 641 106 l 641 534 l 534 534 l 534 106 l 641 106 m 0 0 l 0 1068 l 214 1068 l 214 641 l 320 641 l 320 1068 l 534 1068 l 534 641 l 747 641 l 747 534 l 854 534 l 854 106 l 747 106 l 747 0 l 320 0 l 320 534 l 214 534 l 214 0 l 0 0 z "},"Ћ":{"ha":961,"x_min":0,"x_max":747,"o":"m 0 0 l 0 106 l 106 106 l 106 961 l 0 961 l 0 1068 l 641 1068 l 641 854 l 534 854 l 534 961 l 320 961 l 320 641 l 641 641 l 641 534 l 747 534 l 747 0 l 534 0 l 534 534 l 320 534 l 320 0 l 0 0 z "},"Ќ":{"ha":961,"x_min":0,"x_max":747,"o":"m 0 0 l 0 106 l 106 106 l 106 854 l 0 854 l 0 961 l 320 961 l 320 534 l 427 534 l 427 641 l 534 641 l 534 961 l 747 961 l 747 641 l 641 641 l 641 534 l 534 534 l 534 427 l 641 427 l 641 320 l 747 320 l 747 0 l 534 0 l 534 320 l 427 320 l 427 427 l 320 427 l 320 0 l 0 0 m 320 1068 l 320 1175 l 427 1175 l 427 1282 l 641 1282 l 641 1175 l 534 1175 l 534 1068 l 320 1068 z "},"Ѝ":{"ha":961,"x_min":0,"x_max":747,"o":"m 0 0 l 0 961 l 214 961 l 214 427 l 320 427 l 320 534 l 427 534 l 427 641 l 534 641 l 534 961 l 747 961 l 747 0 l 534 0 l 534 320 l 427 320 l 427 214 l 320 214 l 320 106 l 214 106 l 214 0 l 0 0 m 320 1068 l 320 1175 l 214 1175 l 214 1282 l 427 1282 l 427 1175 l 534 1175 l 534 1068 l 320 1068 z "},"Ў":{"ha":961,"x_min":0,"x_max":747,"o":"m 106 0 l 106 106 l 0 106 l 0 214 l 214 214 l 214 106 l 534 106 l 534 427 l 106 427 l 106 534 l 0 534 l 0 961 l 214 961 l 214 534 l 534 534 l 534 961 l 747 961 l 747 106 l 641 106 l 641 0 l 106 0 m 214 1068 l 214 1175 l 106 1175 l 106 1282 l 320 1282 l 320 1175 l 427 1175 l 427 1282 l 641 1282 l 641 1175 l 534 1175 l 534 1068 l 214 1068 z "},"Џ":{"ha":961,"x_min":0,"x_max":854,"o":"m 320 -214 l 320 0 l 0 0 l 0 106 l 106 106 l 106 961 l 0 961 l 0 1068 l 320 1068 l 320 106 l 534 106 l 534 1068 l 854 1068 l 854 961 l 747 961 l 747 106 l 854 106 l 854 0 l 534 0 l 534 -214 l 320 -214 z "},"А":{"ha":961,"x_min":0,"x_max":747,"o":"m 534 534 l 534 747 l 427 747 l 427 854 l 320 854 l 320 747 l 214 747 l 214 534 l 534 534 m 0 0 l 0 747 l 106 747 l 106 854 l 214 854 l 214 961 l 320 961 l 320 1068 l 427 1068 l 427 961 l 534 961 l 534 854 l 641 854 l 641 747 l 747 747 l 747 0 l 534 0 l 534 427 l 214 427 l 214 0 l 0 0 z "},"Б":{"ha":961,"x_min":0,"x_max":747,"o":"m 534 106 l 534 534 l 320 534 l 320 106 l 534 106 m 0 0 l 0 106 l 106 106 l 106 961 l 0 961 l 0 1068 l 747 1068 l 747 747 l 641 747 l 641 854 l 534 854 l 534 961 l 320 961 l 320 641 l 641 641 l 641 534 l 747 534 l 747 106 l 641 106 l 641 0 l 0 0 z "},"В":{"ha":961,"x_min":0,"x_max":747,"o":"m 534 106 l 534 534 l 320 534 l 320 106 l 534 106 m 534 641 l 534 961 l 320 961 l 320 641 l 534 641 m 0 0 l 0 106 l 106 106 l 106 961 l 0 961 l 0 1068 l 641 1068 l 641 961 l 747 961 l 747 641 l 641 641 l 641 534 l 747 534 l 747 106 l 641 106 l 641 0 l 0 0 z "},"Г":{"ha":961,"x_min":0,"x_max":747,"o":"m 0 0 l 0 106 l 106 106 l 106 961 l 0 961 l 0 1068 l 747 1068 l 747 747 l 641 747 l 641 854 l 534 854 l 534 961 l 320 961 l 320 106 l 427 106 l 427 0 l 0 0 z "},"Д":{"ha":961,"x_min":0,"x_max":854,"o":"m 534 106 l 534 961 l 427 961 l 427 854 l 320 854 l 320 106 l 534 106 m 0 -214 l 0 106 l 106 106 l 106 854 l 214 854 l 214 961 l 320 961 l 320 1068 l 747 1068 l 747 106 l 854 106 l 854 -214 l 747 -214 l 747 -106 l 641 -106 l 641 0 l 214 0 l 214 -106 l 106 -106 l 106 -214 l 0 -214 z "},"Е":{"ha":961,"x_min":0,"x_max":747,"o":"m 0 0 l 0 106 l 106 106 l 106 961 l 0 961 l 0 1068 l 747 1068 l 747 747 l 641 747 l 641 854 l 534 854 l 534 961 l 320 961 l 320 641 l 427 641 l 427 747 l 534 747 l 534 427 l 427 427 l 427 534 l 320 534 l 320 106 l 534 106 l 534 214 l 641 214 l 641 320 l 747 320 l 747 0 l 0 0 z "},"Ж":{"ha":961,"x_min":0,"x_max":854,"o":"m 0 0 l 0 427 l 106 427 l 106 534 l 214 534 l 214 641 l 106 641 l 106 747 l 0 747 l 0 1068 l 214 1068 l 214 747 l 320 747 l 320 1068 l 534 1068 l 534 747 l 641 747 l 641 1068 l 854 1068 l 854 747 l 747 747 l 747 641 l 641 641 l 641 534 l 747 534 l 747 427 l 854 427 l 854 0 l 641 0 l 641 427 l 534 427 l 534 0 l 320 0 l 320 427 l 214 427 l 214 0 l 0 0 z "},"З":{"ha":961,"x_min":0,"x_max":747,"o":"m 106 0 l 106 106 l 0 106 l 0 320 l 106 320 l 106 214 l 214 214 l 214 106 l 534 106 l 534 534 l 214 534 l 214 641 l 534 641 l 534 961 l 214 961 l 214 854 l 106 854 l 106 747 l 0 747 l 0 961 l 106 961 l 106 1068 l 641 1068 l 641 961 l 747 961 l 747 641 l 641 641 l 641 534 l 747 534 l 747 106 l 641 106 l 641 0 l 106 0 z "},"И":{"ha":961,"x_min":0,"x_max":747,"o":"m 0 0 l 0 1068 l 214 1068 l 214 534 l 320 534 l 320 641 l 427 641 l 427 747 l 534 747 l 534 1068 l 747 1068 l 747 0 l 534 0 l 534 427 l 427 427 l 427 320 l 320 320 l 320 214 l 214 214 l 214 0 l 0 0 z "},"Й":{"ha":961,"x_min":0,"x_max":747,"o":"m 0 0 l 0 961 l 214 961 l 214 427 l 320 427 l 320 534 l 427 534 l 427 641 l 534 641 l 534 961 l 747 961 l 747 0 l 534 0 l 534 320 l 427 320 l 427 214 l 320 214 l 320 106 l 214 106 l 214 0 l 0 0 m 214 1068 l 214 1175 l 106 1175 l 106 1282 l 320 1282 l 320 1175 l 427 1175 l 427 1282 l 641 1282 l 641 1175 l 534 1175 l 534 1068 l 214 1068 z "},"К":{"ha":961,"x_min":0,"x_max":747,"o":"m 0 0 l 0 106 l 106 106 l 106 961 l 0 961 l 0 1068 l 320 1068 l 320 641 l 427 641 l 427 747 l 534 747 l 534 1068 l 747 1068 l 747 747 l 641 747 l 641 641 l 534 641 l 534 427 l 641 427 l 641 320 l 747 320 l 747 0 l 534 0 l 534 320 l 427 320 l 427 427 l 320 427 l 320 0 l 0 0 z "},"Л":{"ha":961,"x_min":0,"x_max":747,"o":"m 0 0 l 0 106 l 106 106 l 106 854 l 214 854 l 214 961 l 320 961 l 320 1068 l 747 1068 l 747 0 l 534 0 l 534 961 l 427 961 l 427 854 l 320 854 l 320 106 l 214 106 l 214 0 l 0 0 z "},"М":{"ha":961,"x_min":0,"x_max":854,"o":"m 0 0 l 0 1068 l 214 1068 l 214 961 l 320 961 l 320 854 l 534 854 l 534 961 l 641 961 l 641 1068 l 854 1068 l 854 0 l 641 0 l 641 641 l 534 641 l 534 534 l 320 534 l 320 641 l 214 641 l 214 0 l 0 0 z "},"Н":{"ha":961,"x_min":0,"x_max":747,"o":"m 0 0 l 0 1068 l 214 1068 l 214 641 l 534 641 l 534 1068 l 747 1068 l 747 0 l 534 0 l 534 534 l 214 534 l 214 0 l 0 0 z "},"О":{"ha":961,"x_min":0,"x_max":747,"o":"m 534 106 l 534 961 l 214 961 l 214 106 l 534 106 m 106 0 l 106 106 l 0 106 l 0 961 l 106 961 l 106 1068 l 641 1068 l 641 961 l 747 961 l 747 106 l 641 106 l 641 0 l 106 0 z "},"П":{"ha":961,"x_min":0,"x_max":747,"o":"m 0 0 l 0 1068 l 747 1068 l 747 0 l 534 0 l 534 961 l 214 961 l 214 0 l 0 0 z "},"Р":{"ha":961,"x_min":0,"x_max":747,"o":"m 534 641 l 534 961 l 320 961 l 320 641 l 534 641 m 0 0 l 0 106 l 106 106 l 106 961 l 0 961 l 0 1068 l 641 1068 l 641 961 l 747 961 l 747 641 l 641 641 l 641 534 l 320 534 l 320 106 l 427 106 l 427 0 l 0 0 z "},"С":{"ha":961,"x_min":0,"x_max":747,"o":"m 214 0 l 214 106 l 106 106 l 106 214 l 0 214 l 0 854 l 106 854 l 106 961 l 214 961 l 214 1068 l 641 1068 l 641 961 l 747 961 l 747 747 l 641 747 l 641 854 l 534 854 l 534 961 l 320 961 l 320 854 l 214 854 l 214 214 l 320 214 l 320 106 l 534 106 l 534 214 l 641 214 l 641 320 l 747 320 l 747 106 l 641 106 l 641 0 l 214 0 z "},"Т":{"ha":961,"x_min":0,"x_max":854,"o":"m 214 0 l 214 106 l 320 106 l 320 961 l 214 961 l 214 854 l 106 854 l 106 747 l 0 747 l 0 1068 l 854 1068 l 854 747 l 747 747 l 747 854 l 641 854 l 641 961 l 534 961 l 534 106 l 641 106 l 641 0 l 214 0 z "},"У":{"ha":961,"x_min":0,"x_max":747,"o":"m 106 0 l 106 106 l 0 106 l 0 214 l 214 214 l 214 106 l 534 106 l 534 427 l 106 427 l 106 534 l 0 534 l 0 1068 l 214 1068 l 214 534 l 534 534 l 534 1068 l 747 1068 l 747 106 l 641 106 l 641 0 l 106 0 z "},"Ф":{"ha":961,"x_min":0,"x_max":854,"o":"m 320 320 l 320 747 l 214 747 l 214 320 l 320 320 m 641 320 l 641 747 l 534 747 l 534 320 l 641 320 m 214 0 l 214 106 l 320 106 l 320 214 l 106 214 l 106 320 l 0 320 l 0 747 l 106 747 l 106 854 l 320 854 l 320 961 l 214 961 l 214 1068 l 641 1068 l 641 961 l 534 961 l 534 854 l 747 854 l 747 747 l 854 747 l 854 320 l 747 320 l 747 214 l 534 214 l 534 106 l 641 106 l 641 0 l 214 0 z "},"Х":{"ha":961,"x_min":0,"x_max":854,"o":"m 0 0 l 0 214 l 106 214 l 106 320 l 214 320 l 214 427 l 320 427 l 320 641 l 214 641 l 214 747 l 106 747 l 106 854 l 0 854 l 0 1068 l 214 1068 l 214 854 l 320 854 l 320 747 l 534 747 l 534 854 l 641 854 l 641 1068 l 854 1068 l 854 854 l 747 854 l 747 747 l 641 747 l 641 641 l 534 641 l 534 427 l 641 427 l 641 320 l 747 320 l 747 214 l 854 214 l 854 0 l 641 0 l 641 214 l 534 214 l 534 320 l 320 320 l 320 214 l 214 214 l 214 0 l 0 0 z "},"Ц":{"ha":961,"x_min":0,"x_max":747,"o":"m 641 -214 l 641 -106 l 534 -106 l 534 0 l 0 0 l 0 1068 l 214 1068 l 214 106 l 427 106 l 427 1068 l 641 1068 l 641 106 l 747 106 l 747 -214 l 641 -214 z "},"Ч":{"ha":961,"x_min":0,"x_max":747,"o":"m 534 0 l 534 427 l 106 427 l 106 534 l 0 534 l 0 1068 l 214 1068 l 214 534 l 534 534 l 534 1068 l 747 1068 l 747 0 l 534 0 z "},"Ш":{"ha":961,"x_min":0,"x_max":854,"o":"m 0 0 l 0 1068 l 214 1068 l 214 106 l 320 106 l 320 1068 l 534 1068 l 534 106 l 641 106 l 641 1068 l 854 1068 l 854 0 l 0 0 z "},"Щ":{"ha":961,"x_min":0,"x_max":854,"o":"m 747 -214 l 747 -106 l 641 -106 l 641 0 l 0 0 l 0 1068 l 214 1068 l 214 106 l 320 106 l 320 1068 l 534 1068 l 534 106 l 641 106 l 641 1068 l 854 1068 l 854 -214 l 747 -214 z "},"Ъ":{"ha":961,"x_min":0,"x_max":854,"o":"m 641 106 l 641 534 l 427 534 l 427 106 l 641 106 m 106 0 l 106 106 l 214 106 l 214 961 l 106 961 l 106 747 l 0 747 l 0 1068 l 427 1068 l 427 641 l 747 641 l 747 534 l 854 534 l 854 106 l 747 106 l 747 0 l 106 0 z "},"Ы":{"ha":961,"x_min":0,"x_max":854,"o":"m 320 106 l 320 534 l 214 534 l 214 106 l 320 106 m 0 0 l 0 1068 l 214 1068 l 214 641 l 427 641 l 427 534 l 534 534 l 534 106 l 427 106 l 427 0 l 0 0 m 641 0 l 641 1068 l 854 1068 l 854 0 l 641 0 z "},"Ь":{"ha":961,"x_min":0,"x_max":747,"o":"m 534 106 l 534 534 l 320 534 l 320 106 l 534 106 m 0 0 l 0 106 l 106 106 l 106 961 l 0 961 l 0 1068 l 427 1068 l 427 961 l 320 961 l 320 641 l 641 641 l 641 534 l 747 534 l 747 106 l 641 106 l 641 0 l 0 0 z "},"Э":{"ha":961,"x_min":0,"x_max":747,"o":"m 106 0 l 106 106 l 0 106 l 0 320 l 106 320 l 106 214 l 214 214 l 214 106 l 427 106 l 427 214 l 534 214 l 534 534 l 320 534 l 320 427 l 214 427 l 214 747 l 320 747 l 320 641 l 534 641 l 534 854 l 427 854 l 427 961 l 214 961 l 214 854 l 106 854 l 106 747 l 0 747 l 0 961 l 106 961 l 106 1068 l 534 1068 l 534 961 l 641 961 l 641 854 l 747 854 l 747 214 l 641 214 l 641 106 l 534 106 l 534 0 l 106 0 z "},"Ю":{"ha":961,"x_min":0,"x_max":854,"o":"m 641 106 l 641 961 l 534 961 l 534 106 l 641 106 m 0 0 l 0 1068 l 214 1068 l 214 641 l 320 641 l 320 961 l 427 961 l 427 1068 l 747 1068 l 747 961 l 854 961 l 854 106 l 747 106 l 747 0 l 427 0 l 427 106 l 320 106 l 320 534 l 214 534 l 214 0 l 0 0 z "},"Я":{"ha":961,"x_min":0,"x_max":854,"o":"m 534 641 l 534 961 l 320 961 l 320 641 l 534 641 m 0 0 l 0 106 l 106 106 l 106 427 l 214 427 l 214 641 l 106 641 l 106 961 l 214 961 l 214 1068 l 854 1068 l 854 961 l 747 961 l 747 106 l 854 106 l 854 0 l 534 0 l 534 534 l 427 534 l 427 427 l 320 427 l 320 0 l 0 0 z "},"а":{"ha":961,"x_min":0,"x_max":747,"o":"m 106 0 l 106 106 l 0 106 l 0 427 l 106 427 l 106 534 l 427 534 l 427 641 l 106 641 l 106 747 l 534 747 l 534 641 l 641 641 l 641 106 l 747 106 l 747 0 l 534 0 l 534 106 l 427 106 l 427 427 l 214 427 l 214 106 l 427 106 l 427 0 l 106 0 z "},"б":{"ha":961,"x_min":0,"x_max":747,"o":"m 534 106 l 534 427 l 214 427 l 214 106 l 534 106 m 106 0 l 106 106 l 0 106 l 0 747 l 106 747 l 106 854 l 427 854 l 427 961 l 641 961 l 641 854 l 534 854 l 534 747 l 214 747 l 214 534 l 641 534 l 641 427 l 747 427 l 747 106 l 641 106 l 641 0 l 106 0 z "},"в":{"ha":961,"x_min":0,"x_max":747,"o":"m 534 106 l 534 320 l 320 320 l 320 106 l 534 106 m 534 427 l 534 641 l 320 641 l 320 427 l 534 427 m 0 0 l 0 106 l 106 106 l 106 641 l 0 641 l 0 747 l 641 747 l 641 641 l 747 641 l 747 427 l 641 427 l 641 320 l 747 320 l 747 106 l 641 106 l 641 0 l 0 0 z "},"г":{"ha":961,"x_min":0,"x_max":747,"o":"m 0 0 l 0 106 l 106 106 l 106 641 l 0 641 l 0 747 l 747 747 l 747 427 l 641 427 l 641 534 l 534 534 l 534 641 l 320 641 l 320 106 l 427 106 l 427 0 l 0 0 z "},"д":{"ha":961,"x_min":0,"x_max":854,"o":"m 534 106 l 534 534 l 427 534 l 427 427 l 320 427 l 320 106 l 534 106 m 0 -214 l 0 106 l 106 106 l 106 427 l 214 427 l 214 534 l 320 534 l 320 747 l 747 747 l 747 106 l 854 106 l 854 -214 l 747 -214 l 747 -106 l 641 -106 l 641 0 l 214 0 l 214 -106 l 106 -106 l 106 -214 l 0 -214 z "},"е":{"ha":961,"x_min":0,"x_max":747,"o":"m 534 534 l 534 641 l 214 641 l 214 534 l 534 534 m 106 0 l 106 106 l 0 106 l 0 641 l 106 641 l 106 747 l 641 747 l 641 641 l 747 641 l 747 427 l 214 427 l 214 106 l 534 106 l 534 214 l 747 214 l 747 106 l 641 106 l 641 0 l 106 0 z "},"ж":{"ha":961,"x_min":0,"x_max":854,"o":"m 0 0 l 0 320 l 106 320 l 106 427 l 0 427 l 0 747 l 214 747 l 214 427 l 320 427 l 320 747 l 534 747 l 534 427 l 641 427 l 641 747 l 854 747 l 854 427 l 747 427 l 747 320 l 854 320 l 854 0 l 641 0 l 641 320 l 534 320 l 534 0 l 320 0 l 320 320 l 214 320 l 214 0 l 0 0 z "},"з":{"ha":961,"x_min":0,"x_max":747,"o":"m 106 0 l 106 106 l 0 106 l 0 214 l 214 214 l 214 106 l 534 106 l 534 320 l 320 320 l 320 427 l 534 427 l 534 641 l 214 641 l 214 534 l 0 534 l 0 641 l 106 641 l 106 747 l 641 747 l 641 641 l 747 641 l 747 427 l 641 427 l 641 320 l 747 320 l 747 106 l 641 106 l 641 0 l 106 0 z "},"и":{"ha":961,"x_min":0,"x_max":747,"o":"m 0 0 l 0 747 l 214 747 l 214 320 l 320 320 l 320 427 l 427 427 l 427 534 l 534 534 l 534 747 l 747 747 l 747 0 l 534 0 l 534 320 l 427 320 l 427 214 l 320 214 l 320 106 l 214 106 l 214 0 l 0 0 z "},"й":{"ha":961,"x_min":0,"x_max":747,"o":"m 0 0 l 0 747 l 214 747 l 214 320 l 320 320 l 320 427 l 427 427 l 427 534 l 534 534 l 534 747 l 747 747 l 747 0 l 534 0 l 534 320 l 427 320 l 427 214 l 320 214 l 320 106 l 214 106 l 214 0 l 0 0 m 214 854 l 214 961 l 106 961 l 106 1068 l 320 1068 l 320 961 l 427 961 l 427 1068 l 641 1068 l 641 961 l 534 961 l 534 854 l 214 854 z "},"к":{"ha":961,"x_min":0,"x_max":747,"o":"m 0 0 l 0 106 l 106 106 l 106 641 l 0 641 l 0 747 l 320 747 l 320 427 l 427 427 l 427 534 l 534 534 l 534 747 l 747 747 l 747 534 l 641 534 l 641 427 l 534 427 l 534 320 l 641 320 l 641 214 l 747 214 l 747 0 l 534 0 l 534 214 l 427 214 l 427 320 l 320 320 l 320 0 l 0 0 z "},"л":{"ha":961,"x_min":0,"x_max":747,"o":"m 0 0 l 0 106 l 106 106 l 106 534 l 214 534 l 214 641 l 320 641 l 320 747 l 747 747 l 747 0 l 534 0 l 534 641 l 427 641 l 427 534 l 320 534 l 320 106 l 214 106 l 214 0 l 0 0 z "},"м":{"ha":961,"x_min":0,"x_max":854,"o":"m 0 0 l 0 747 l 214 747 l 214 641 l 320 641 l 320 534 l 534 534 l 534 641 l 641 641 l 641 747 l 854 747 l 854 0 l 641 0 l 641 427 l 534 427 l 534 320 l 320 320 l 320 427 l 214 427 l 214 0 l 0 0 z "},"н":{"ha":961,"x_min":0,"x_max":747,"o":"m 0 0 l 0 747 l 214 747 l 214 427 l 534 427 l 534 747 l 747 747 l 747 0 l 534 0 l 534 320 l 214 320 l 214 0 l 0 0 z "},"о":{"ha":961,"x_min":0,"x_max":747,"o":"m 534 106 l 534 641 l 214 641 l 214 106 l 534 106 m 106 0 l 106 106 l 0 106 l 0 641 l 106 641 l 106 747 l 641 747 l 641 641 l 747 641 l 747 106 l 641 106 l 641 0 l 106 0 z "},"п":{"ha":961,"x_min":0,"x_max":747,"o":"m 0 0 l 0 747 l 747 747 l 747 0 l 534 0 l 534 641 l 214 641 l 214 0 l 0 0 z "},"р":{"ha":961,"x_min":0,"x_max":747,"o":"m 0 -320 l 0 -214 l 106 -214 l 106 641 l 0 641 l 0 747 l 214 747 l 214 641 l 320 641 l 320 106 l 534 106 l 534 641 l 320 641 l 320 747 l 641 747 l 641 641 l 747 641 l 747 106 l 641 106 l 641 0 l 320 0 l 320 -214 l 427 -214 l 427 -320 l 0 -320 z "},"с":{"ha":961,"x_min":0,"x_max":747,"o":"m 106 0 l 106 106 l 0 106 l 0 641 l 106 641 l 106 747 l 641 747 l 641 641 l 747 641 l 747 534 l 534 534 l 534 641 l 214 641 l 214 106 l 534 106 l 534 214 l 747 214 l 747 106 l 641 106 l 641 0 l 106 0 z "},"т":{"ha":961,"x_min":0,"x_max":854,"o":"m 214 0 l 214 106 l 320 106 l 320 641 l 106 641 l 106 534 l 0 534 l 0 747 l 854 747 l 854 534 l 747 534 l 747 641 l 534 641 l 534 106 l 641 106 l 641 0 l 214 0 z "},"у":{"ha":961,"x_min":0,"x_max":747,"o":"m 0 -320 l 0 -214 l 427 -214 l 427 -106 l 534 -106 l 534 0 l 106 0 l 106 106 l 0 106 l 0 747 l 214 747 l 214 106 l 534 106 l 534 747 l 747 747 l 747 -106 l 641 -106 l 641 -214 l 534 -214 l 534 -320 l 0 -320 z "},"ф":{"ha":961,"x_min":0,"x_max":854,"o":"m 320 106 l 320 641 l 214 641 l 214 106 l 320 106 m 641 106 l 641 641 l 534 641 l 534 106 l 641 106 m 320 -320 l 320 0 l 106 0 l 106 106 l 0 106 l 0 641 l 106 641 l 106 747 l 320 747 l 320 1068 l 534 1068 l 534 747 l 747 747 l 747 641 l 854 641 l 854 106 l 747 106 l 747 0 l 534 0 l 534 -320 l 320 -320 z "},"х":{"ha":961,"x_min":0,"x_max":854,"o":"m 0 0 l 0 106 l 106 106 l 106 214 l 214 214 l 214 320 l 320 320 l 320 427 l 214 427 l 214 534 l 106 534 l 106 641 l 0 641 l 0 747 l 214 747 l 214 641 l 320 641 l 320 534 l 534 534 l 534 641 l 641 641 l 641 747 l 854 747 l 854 641 l 747 641 l 747 534 l 641 534 l 641 427 l 534 427 l 534 320 l 641 320 l 641 214 l 747 214 l 747 106 l 854 106 l 854 0 l 641 0 l 641 106 l 534 106 l 534 214 l 320 214 l 320 106 l 214 106 l 214 0 l 0 0 z "},"ц":{"ha":961,"x_min":0,"x_max":747,"o":"m 641 -214 l 641 -106 l 534 -106 l 534 0 l 0 0 l 0 747 l 214 747 l 214 106 l 427 106 l 427 747 l 641 747 l 641 106 l 747 106 l 747 -214 l 641 -214 z "},"ч":{"ha":961,"x_min":0,"x_max":747,"o":"m 534 0 l 534 320 l 106 320 l 106 427 l 0 427 l 0 747 l 214 747 l 214 427 l 534 427 l 534 747 l 747 747 l 747 0 l 534 0 z "},"ш":{"ha":961,"x_min":0,"x_max":854,"o":"m 0 0 l 0 747 l 214 747 l 214 106 l 320 106 l 320 747 l 534 747 l 534 106 l 641 106 l 641 747 l 854 747 l 854 0 l 0 0 z "},"щ":{"ha":961,"x_min":0,"x_max":854,"o":"m 747 -214 l 747 -106 l 641 -106 l 641 0 l 0 0 l 0 747 l 214 747 l 214 106 l 320 106 l 320 747 l 534 747 l 534 106 l 641 106 l 641 747 l 854 747 l 854 -214 l 747 -214 z "},"ъ":{"ha":961,"x_min":0,"x_max":747,"o":"m 534 106 l 534 320 l 427 320 l 427 106 l 534 106 m 106 0 l 106 106 l 214 106 l 214 641 l 106 641 l 106 534 l 0 534 l 0 747 l 427 747 l 427 427 l 641 427 l 641 320 l 747 320 l 747 106 l 641 106 l 641 0 l 106 0 z "},"ы":{"ha":961,"x_min":0,"x_max":854,"o":"m 320 106 l 320 320 l 214 320 l 214 106 l 320 106 m 0 0 l 0 747 l 214 747 l 214 427 l 427 427 l 427 320 l 534 320 l 534 106 l 427 106 l 427 0 l 0 0 m 641 0 l 641 747 l 854 747 l 854 0 l 641 0 z "},"ь":{"ha":961,"x_min":106,"x_max":747,"o":"m 534 106 l 534 320 l 427 320 l 427 106 l 534 106 m 106 0 l 106 106 l 214 106 l 214 641 l 106 641 l 106 747 l 534 747 l 534 641 l 427 641 l 427 427 l 641 427 l 641 320 l 747 320 l 747 106 l 641 106 l 641 0 l 106 0 z "},"э":{"ha":961,"x_min":0,"x_max":747,"o":"m 106 0 l 106 106 l 0 106 l 0 214 l 214 214 l 214 106 l 534 106 l 534 320 l 214 320 l 214 427 l 534 427 l 534 641 l 214 641 l 214 534 l 0 534 l 0 641 l 106 641 l 106 747 l 641 747 l 641 641 l 747 641 l 747 106 l 641 106 l 641 0 l 106 0 z "},"ю":{"ha":961,"x_min":0,"x_max":854,"o":"m 641 106 l 641 641 l 534 641 l 534 106 l 641 106 m 0 0 l 0 747 l 214 747 l 214 427 l 320 427 l 320 641 l 427 641 l 427 747 l 747 747 l 747 641 l 854 641 l 854 106 l 747 106 l 747 0 l 427 0 l 427 106 l 320 106 l 320 320 l 214 320 l 214 0 l 0 0 z "},"я":{"ha":961,"x_min":0,"x_max":854,"o":"m 534 427 l 534 641 l 320 641 l 320 427 l 534 427 m 0 0 l 0 106 l 106 106 l 106 320 l 214 320 l 214 427 l 106 427 l 106 641 l 214 641 l 214 747 l 854 747 l 854 641 l 747 641 l 747 106 l 854 106 l 854 0 l 534 0 l 534 320 l 320 320 l 320 0 l 0 0 z "},"ѐ":{"ha":961,"x_min":0,"x_max":747,"o":"m 534 534 l 534 641 l 214 641 l 214 534 l 534 534 m 106 0 l 106 106 l 0 106 l 0 641 l 106 641 l 106 747 l 641 747 l 641 641 l 747 641 l 747 427 l 214 427 l 214 106 l 534 106 l 534 214 l 747 214 l 747 106 l 641 106 l 641 0 l 106 0 m 320 854 l 320 961 l 214 961 l 214 1068 l 106 1068 l 106 1175 l 320 1175 l 320 1068 l 427 1068 l 427 961 l 534 961 l 534 854 l 320 854 z "},"ё":{"ha":961,"x_min":0,"x_max":747,"o":"m 534 534 l 534 641 l 214 641 l 214 534 l 534 534 m 106 0 l 106 106 l 0 106 l 0 641 l 106 641 l 106 747 l 641 747 l 641 641 l 747 641 l 747 427 l 214 427 l 214 106 l 534 106 l 534 214 l 747 214 l 747 106 l 641 106 l 641 0 l 106 0 m 0 961 l 0 1068 l 214 1068 l 214 961 l 0 961 m 534 961 l 534 1068 l 747 1068 l 747 961 l 534 961 z "},"ђ":{"ha":961,"x_min":0,"x_max":747,"o":"m 427 -320 l 427 -214 l 534 -214 l 534 641 l 427 641 l 427 747 l 641 747 l 641 641 l 747 641 l 747 -214 l 641 -214 l 641 -320 l 427 -320 m 0 0 l 0 106 l 106 106 l 106 854 l 0 854 l 0 961 l 106 961 l 106 1068 l 320 1068 l 320 961 l 534 961 l 534 854 l 320 854 l 320 641 l 427 641 l 427 534 l 320 534 l 320 0 l 0 0 z "},"ѓ":{"ha":961,"x_min":0,"x_max":747,"o":"m 0 0 l 0 106 l 106 106 l 106 641 l 0 641 l 0 747 l 747 747 l 747 427 l 641 427 l 641 534 l 534 534 l 534 641 l 320 641 l 320 106 l 427 106 l 427 0 l 0 0 m 214 854 l 214 961 l 320 961 l 320 1068 l 427 1068 l 427 1175 l 641 1175 l 641 1068 l 534 1068 l 534 961 l 427 961 l 427 854 l 214 854 z "},"є":{"ha":961,"x_min":0,"x_max":747,"o":"m 106 0 l 106 106 l 0 106 l 0 641 l 106 641 l 106 747 l 641 747 l 641 641 l 747 641 l 747 534 l 534 534 l 534 641 l 214 641 l 214 427 l 534 427 l 534 320 l 214 320 l 214 106 l 534 106 l 534 214 l 747 214 l 747 106 l 641 106 l 641 0 l 106 0 z "},"ѕ":{"ha":961,"x_min":0,"x_max":747,"o":"m 106 0 l 106 106 l 0 106 l 0 214 l 214 214 l 214 106 l 534 106 l 534 214 l 427 214 l 427 320 l 214 320 l 214 427 l 106 427 l 106 534 l 0 534 l 0 641 l 106 641 l 106 747 l 641 747 l 641 641 l 747 641 l 747 534 l 534 534 l 534 641 l 214 641 l 214 534 l 320 534 l 320 427 l 534 427 l 534 320 l 641 320 l 641 214 l 747 214 l 747 106 l 641 106 l 641 0 l 106 0 z "},"і":{"ha":961,"x_min":214,"x_max":641,"o":"m 214 0 l 214 106 l 320 106 l 320 641 l 214 641 l 214 747 l 534 747 l 534 106 l 641 106 l 641 0 l 214 0 m 320 854 l 320 1068 l 534 1068 l 534 854 l 320 854 z "},"ї":{"ha":961,"x_min":106,"x_max":747,"o":"m 214 0 l 214 106 l 320 106 l 320 641 l 214 641 l 214 747 l 534 747 l 534 106 l 641 106 l 641 0 l 214 0 m 106 961 l 106 1068 l 320 1068 l 320 961 l 106 961 m 534 961 l 534 1068 l 747 1068 l 747 961 l 534 961 z "},"ј":{"ha":961,"x_min":0,"x_max":641,"o":"m 106 -320 l 106 -214 l 0 -214 l 0 0 l 214 0 l 214 -214 l 427 -214 l 427 641 l 320 641 l 320 747 l 641 747 l 641 -214 l 534 -214 l 534 -320 l 106 -320 m 427 854 l 427 1068 l 641 1068 l 641 854 l 427 854 z "},"љ":{"ha":961,"x_min":0,"x_max":854,"o":"m 641 106 l 641 320 l 534 320 l 534 106 l 641 106 m 0 0 l 0 747 l 641 747 l 641 641 l 534 641 l 534 427 l 747 427 l 747 320 l 854 320 l 854 106 l 747 106 l 747 0 l 320 0 l 320 641 l 214 641 l 214 0 l 0 0 z "},"њ":{"ha":961,"x_min":0,"x_max":854,"o":"m 641 106 l 641 320 l 534 320 l 534 106 l 641 106 m 0 0 l 0 747 l 214 747 l 214 427 l 320 427 l 320 747 l 534 747 l 534 427 l 747 427 l 747 320 l 854 320 l 854 106 l 747 106 l 747 0 l 320 0 l 320 320 l 214 320 l 214 0 l 0 0 z "},"ћ":{"ha":961,"x_min":0,"x_max":747,"o":"m 0 0 l 0 106 l 106 106 l 106 854 l 0 854 l 0 961 l 106 961 l 106 1068 l 320 1068 l 320 961 l 534 961 l 534 854 l 320 854 l 320 747 l 641 747 l 641 641 l 747 641 l 747 0 l 534 0 l 534 641 l 320 641 l 320 0 l 0 0 z "},"ќ":{"ha":961,"x_min":0,"x_max":747,"o":"m 0 0 l 0 106 l 106 106 l 106 641 l 0 641 l 0 747 l 320 747 l 320 427 l 427 427 l 427 534 l 534 534 l 534 747 l 747 747 l 747 534 l 641 534 l 641 427 l 534 427 l 534 320 l 641 320 l 641 214 l 747 214 l 747 0 l 534 0 l 534 214 l 427 214 l 427 320 l 320 320 l 320 0 l 0 0 m 214 854 l 214 961 l 320 961 l 320 1068 l 427 1068 l 427 1175 l 641 1175 l 641 1068 l 534 1068 l 534 961 l 427 961 l 427 854 l 214 854 z "},"ѝ":{"ha":961,"x_min":0,"x_max":747,"o":"m 0 0 l 0 747 l 214 747 l 214 320 l 320 320 l 320 427 l 427 427 l 427 534 l 534 534 l 534 747 l 747 747 l 747 0 l 534 0 l 534 320 l 427 320 l 427 214 l 320 214 l 320 106 l 214 106 l 214 0 l 0 0 m 320 854 l 320 961 l 214 961 l 214 1068 l 106 1068 l 106 1175 l 320 1175 l 320 1068 l 427 1068 l 427 961 l 534 961 l 534 854 l 320 854 z "},"ў":{"ha":961,"x_min":0,"x_max":747,"o":"m 0 -320 l 0 -214 l 427 -214 l 427 -106 l 534 -106 l 534 0 l 106 0 l 106 106 l 0 106 l 0 747 l 214 747 l 214 106 l 534 106 l 534 747 l 747 747 l 747 -106 l 641 -106 l 641 -214 l 534 -214 l 534 -320 l 0 -320 m 214 854 l 214 961 l 106 961 l 106 1068 l 320 1068 l 320 961 l 427 961 l 427 1068 l 641 1068 l 641 961 l 534 961 l 534 854 l 214 854 z "},"џ":{"ha":961,"x_min":0,"x_max":854,"o":"m 320 -214 l 320 0 l 0 0 l 0 106 l 106 106 l 106 641 l 0 641 l 0 747 l 320 747 l 320 106 l 534 106 l 534 747 l 854 747 l 854 641 l 747 641 l 747 106 l 854 106 l 854 0 l 534 0 l 534 -214 l 320 -214 z "},"Ґ":{"ha":961,"x_min":0,"x_max":747,"o":"m 0 0 l 0 106 l 106 106 l 106 961 l 0 961 l 0 1068 l 534 1068 l 534 1175 l 641 1175 l 641 1282 l 747 1282 l 747 961 l 320 961 l 320 106 l 427 106 l 427 0 l 0 0 z "},"ґ":{"ha":961,"x_min":0,"x_max":747,"o":"m 0 0 l 0 106 l 106 106 l 106 641 l 0 641 l 0 747 l 534 747 l 534 854 l 641 854 l 641 961 l 747 961 l 747 641 l 320 641 l 320 106 l 427 106 l 427 0 l 0 0 z "},"־":{"ha":961,"x_min":106,"x_max":747,"o":"m 106 747 l 106 854 l 747 854 l 747 747 l 106 747 z "},"א":{"ha":961,"x_min":0,"x_max":747,"o":"m 0 0 l 0 427 l 106 427 l 106 641 l 0 641 l 0 854 l 214 854 l 214 641 l 320 641 l 320 534 l 427 534 l 427 427 l 534 427 l 534 854 l 747 854 l 747 427 l 641 427 l 641 214 l 747 214 l 747 0 l 534 0 l 534 214 l 427 214 l 427 320 l 320 320 l 320 427 l 214 427 l 214 0 l 0 0 z "},"ב":{"ha":961,"x_min":0,"x_max":747,"o":"m 0 0 l 0 106 l 427 106 l 427 747 l 0 747 l 0 854 l 534 854 l 534 747 l 641 747 l 641 106 l 747 106 l 747 0 l 0 0 z "},"ג":{"ha":961,"x_min":0,"x_max":747,"o":"m 0 0 l 0 106 l 214 106 l 214 214 l 320 214 l 320 320 l 427 320 l 427 747 l 214 747 l 214 854 l 534 854 l 534 747 l 641 747 l 641 214 l 747 214 l 747 0 l 534 0 l 534 214 l 427 214 l 427 106 l 320 106 l 320 0 l 0 0 z "},"ד":{"ha":961,"x_min":0,"x_max":747,"o":"m 427 0 l 427 747 l 0 747 l 0 854 l 747 854 l 747 747 l 641 747 l 641 0 l 427 0 z "},"ה":{"ha":961,"x_min":0,"x_max":747,"o":"m 0 0 l 0 427 l 214 427 l 214 0 l 0 0 m 534 0 l 534 747 l 0 747 l 0 854 l 641 854 l 641 747 l 747 747 l 747 0 l 534 0 z "},"ו":{"ha":961,"x_min":106,"x_max":534,"o":"m 320 0 l 320 747 l 106 747 l 106 854 l 427 854 l 427 747 l 534 747 l 534 0 l 320 0 z "},"ז":{"ha":961,"x_min":0,"x_max":641,"o":"m 106 0 l 106 106 l 214 106 l 214 214 l 320 214 l 320 427 l 214 427 l 214 747 l 0 747 l 0 854 l 641 854 l 641 747 l 427 747 l 427 427 l 534 427 l 534 214 l 427 214 l 427 106 l 320 106 l 320 0 l 106 0 z "},"ח":{"ha":961,"x_min":0,"x_max":747,"o":"m 0 0 l 0 641 l 106 641 l 106 747 l 0 747 l 0 854 l 641 854 l 641 747 l 747 747 l 747 0 l 534 0 l 534 747 l 320 747 l 320 641 l 214 641 l 214 0 l 0 0 z "},"ט":{"ha":961,"x_min":0,"x_max":747,"o":"m 320 427 l 320 641 l 427 641 l 427 427 l 320 427 m 106 0 l 106 106 l 0 106 l 0 747 l 214 747 l 214 106 l 534 106 l 534 641 l 427 641 l 427 747 l 641 747 l 641 641 l 747 641 l 747 106 l 641 106 l 641 0 l 106 0 z "},"י":{"ha":961,"x_min":106,"x_max":534,"o":"m 214 320 l 214 427 l 320 427 l 320 747 l 106 747 l 106 854 l 427 854 l 427 747 l 534 747 l 534 427 l 427 427 l 427 320 l 214 320 z "},"ך":{"ha":961,"x_min":0,"x_max":747,"o":"m 427 -320 l 427 427 l 534 427 l 534 747 l 0 747 l 0 854 l 641 854 l 641 747 l 747 747 l 747 427 l 641 427 l 641 -214 l 747 -214 l 747 -320 l 427 -320 z "},"כ":{"ha":961,"x_min":0,"x_max":747,"o":"m 0 0 l 0 106 l 534 106 l 534 747 l 0 747 l 0 854 l 641 854 l 641 747 l 747 747 l 747 106 l 641 106 l 641 0 l 0 0 z "},"ל":{"ha":961,"x_min":0,"x_max":747,"o":"m 320 0 l 320 214 l 427 214 l 427 320 l 534 320 l 534 747 l 0 747 l 0 1068 l 214 1068 l 214 854 l 641 854 l 641 747 l 747 747 l 747 320 l 641 320 l 641 214 l 534 214 l 534 0 l 320 0 z "},"ם":{"ha":961,"x_min":0,"x_max":747,"o":"m 534 106 l 534 747 l 320 747 l 320 641 l 214 641 l 214 106 l 534 106 m 0 0 l 0 641 l 106 641 l 106 747 l 0 747 l 0 854 l 641 854 l 641 747 l 747 747 l 747 0 l 0 0 z "},"מ":{"ha":961,"x_min":0,"x_max":747,"o":"m 0 0 l 0 534 l 106 534 l 106 747 l 0 747 l 0 854 l 214 854 l 214 747 l 320 747 l 320 854 l 641 854 l 641 747 l 747 747 l 747 0 l 320 0 l 320 106 l 534 106 l 534 747 l 427 747 l 427 641 l 320 641 l 320 534 l 214 534 l 214 0 l 0 0 z "},"ן":{"ha":961,"x_min":214,"x_max":641,"o":"m 320 -320 l 320 534 l 427 534 l 427 747 l 214 747 l 214 854 l 534 854 l 534 747 l 641 747 l 641 534 l 534 534 l 534 -214 l 641 -214 l 641 -320 l 320 -320 z "},"נ":{"ha":961,"x_min":106,"x_max":641,"o":"m 106 0 l 106 106 l 427 106 l 427 747 l 214 747 l 214 854 l 534 854 l 534 747 l 641 747 l 641 0 l 106 0 z "},"ס":{"ha":961,"x_min":0,"x_max":747,"o":"m 427 106 l 427 214 l 534 214 l 534 747 l 320 747 l 320 641 l 214 641 l 214 106 l 427 106 m 106 0 l 106 106 l 0 106 l 0 641 l 106 641 l 106 747 l 0 747 l 0 854 l 641 854 l 641 747 l 747 747 l 747 214 l 641 214 l 641 106 l 534 106 l 534 0 l 106 0 z "},"ע":{"ha":961,"x_min":0,"x_max":747,"o":"m 0 0 l 0 106 l 214 106 l 214 214 l 106 214 l 106 747 l 0 747 l 0 854 l 320 854 l 320 106 l 427 106 l 427 214 l 534 214 l 534 747 l 427 747 l 427 854 l 747 854 l 747 214 l 641 214 l 641 106 l 534 106 l 534 0 l 0 0 z "},"ף":{"ha":961,"x_min":0,"x_max":747,"o":"m 427 -320 l 427 747 l 214 747 l 214 427 l 320 427 l 320 320 l 0 320 l 0 641 l 106 641 l 106 747 l 0 747 l 0 854 l 534 854 l 534 747 l 641 747 l 641 -214 l 747 -214 l 747 -320 l 427 -320 z "},"פ":{"ha":961,"x_min":0,"x_max":747,"o":"m 0 0 l 0 106 l 534 106 l 534 747 l 320 747 l 320 641 l 214 641 l 214 427 l 320 427 l 320 320 l 0 320 l 0 641 l 106 641 l 106 747 l 0 747 l 0 854 l 641 854 l 641 747 l 747 747 l 747 0 l 0 0 z "},"ץ":{"ha":961,"x_min":0,"x_max":747,"o":"m 106 -320 l 106 747 l 0 747 l 0 854 l 320 854 l 320 427 l 427 427 l 427 534 l 534 534 l 534 747 l 427 747 l 427 854 l 747 854 l 747 534 l 641 534 l 641 427 l 534 427 l 534 320 l 320 320 l 320 -214 l 427 -214 l 427 -320 l 106 -320 z "},"צ":{"ha":961,"x_min":0,"x_max":747,"o":"m 0 0 l 0 106 l 534 106 l 534 214 l 427 214 l 427 320 l 320 320 l 320 427 l 214 427 l 214 534 l 106 534 l 106 747 l 0 747 l 0 854 l 320 854 l 320 534 l 427 534 l 427 427 l 534 427 l 534 320 l 641 320 l 641 214 l 747 214 l 747 0 l 0 0 m 534 427 l 534 747 l 427 747 l 427 854 l 747 854 l 747 534 l 641 534 l 641 427 l 534 427 z "},"ק":{"ha":961,"x_min":0,"x_max":747,"o":"m 106 -320 l 106 534 l 320 534 l 320 -320 l 106 -320 m 427 106 l 427 320 l 534 320 l 534 747 l 0 747 l 0 854 l 641 854 l 641 747 l 747 747 l 747 427 l 641 427 l 641 214 l 747 214 l 747 106 l 427 106 z "},"ר":{"ha":961,"x_min":0,"x_max":747,"o":"m 534 0 l 534 747 l 0 747 l 0 854 l 641 854 l 641 747 l 747 747 l 747 0 l 534 0 z "},"ש":{"ha":961,"x_min":0,"x_max":747,"o":"m 106 0 l 106 106 l 0 106 l 0 747 l 214 747 l 214 320 l 320 320 l 320 747 l 427 747 l 427 214 l 214 214 l 214 106 l 534 106 l 534 0 l 106 0 m 534 106 l 534 747 l 747 747 l 747 106 l 534 106 z "},"ת":{"ha":961,"x_min":0,"x_max":747,"o":"m 0 0 l 0 214 l 106 214 l 106 747 l 0 747 l 0 854 l 641 854 l 641 747 l 747 747 l 747 0 l 534 0 l 534 747 l 320 747 l 320 0 l 0 0 z "},"װ":{"ha":961,"x_min":0,"x_max":747,"o":"m 106 0 l 106 747 l 0 747 l 0 854 l 214 854 l 214 747 l 320 747 l 320 0 l 106 0 m 534 0 l 534 747 l 427 747 l 427 854 l 641 854 l 641 747 l 747 747 l 747 0 l 534 0 z "},"ױ":{"ha":961,"x_min":0,"x_max":747,"o":"m 106 427 l 106 747 l 0 747 l 0 854 l 214 854 l 214 747 l 320 747 l 320 427 l 106 427 m 534 0 l 534 747 l 427 747 l 427 854 l 641 854 l 641 747 l 747 747 l 747 0 l 534 0 z "},"ײ":{"ha":961,"x_min":0,"x_max":747,"o":"m 106 427 l 106 747 l 0 747 l 0 854 l 214 854 l 214 747 l 320 747 l 320 427 l 106 427 m 534 427 l 534 747 l 427 747 l 427 854 l 641 854 l 641 747 l 747 747 l 747 427 l 534 427 z "},"׳":{"ha":961,"x_min":214,"x_max":534,"o":"m 214 641 l 214 747 l 320 747 l 320 961 l 534 961 l 534 747 l 427 747 l 427 641 l 214 641 z "},"״":{"ha":961,"x_min":0,"x_max":747,"o":"m 0 641 l 0 747 l 106 747 l 106 961 l 320 961 l 320 747 l 214 747 l 214 641 l 0 641 m 427 641 l 427 747 l 534 747 l 534 961 l 747 961 l 747 747 l 641 747 l 641 641 l 427 641 z "},"‐":{"ha":961,"x_min":106,"x_max":747,"o":"m 106 427 l 106 534 l 747 534 l 747 427 l 106 427 z "},"‒":{"ha":961,"x_min":106,"x_max":641,"o":"m 106 427 l 106 534 l 641 534 l 641 427 l 106 427 z "},"–":{"ha":961,"x_min":106,"x_max":641,"o":"m 106 427 l 106 534 l 641 534 l 641 427 l 106 427 z "},"—":{"ha":961,"x_min":0,"x_max":854,"o":"m 0 427 l 0 534 l 854 534 l 854 427 l 0 427 z "},"―":{"ha":961,"x_min":0,"x_max":854,"o":"m 0 427 l 0 534 l 854 534 l 854 427 l 0 427 z "},"‗":{"ha":961,"x_min":0,"x_max":854,"o":"m 0 -320 l 0 -214 l 854 -214 l 854 -320 l 0 -320 m 0 -106 l 0 0 l 854 0 l 854 -106 l 0 -106 z "},"‘":{"ha":961,"x_min":214,"x_max":534,"o":"m 214 854 l 214 1068 l 320 1068 l 320 1175 l 534 1175 l 534 1068 l 427 1068 l 427 854 l 214 854 z "},"’":{"ha":961,"x_min":214,"x_max":534,"o":"m 214 854 l 214 961 l 320 961 l 320 1175 l 534 1175 l 534 961 l 427 961 l 427 854 l 214 854 z "},"‚":{"ha":961,"x_min":214,"x_max":534,"o":"m 214 -320 l 214 -214 l 320 -214 l 320 0 l 534 0 l 534 -214 l 427 -214 l 427 -320 l 214 -320 z "},"‛":{"ha":961,"x_min":214,"x_max":534,"o":"m 320 854 l 320 961 l 214 961 l 214 1175 l 427 1175 l 427 961 l 534 961 l 534 854 l 320 854 z "},"“":{"ha":961,"x_min":0,"x_max":747,"o":"m 0 854 l 0 1068 l 106 1068 l 106 1175 l 320 1175 l 320 1068 l 214 1068 l 214 854 l 0 854 m 427 854 l 427 1068 l 534 1068 l 534 1175 l 747 1175 l 747 1068 l 641 1068 l 641 854 l 427 854 z "},"”":{"ha":961,"x_min":0,"x_max":747,"o":"m 0 854 l 0 961 l 106 961 l 106 1175 l 320 1175 l 320 961 l 214 961 l 214 854 l 0 854 m 427 854 l 427 961 l 534 961 l 534 1175 l 747 1175 l 747 961 l 641 961 l 641 854 l 427 854 z "},"„":{"ha":961,"x_min":0,"x_max":747,"o":"m 0 -320 l 0 -214 l 106 -214 l 106 0 l 320 0 l 320 -214 l 214 -214 l 214 -320 l 0 -320 m 427 -320 l 427 -214 l 534 -214 l 534 0 l 747 0 l 747 -214 l 641 -214 l 641 -320 l 427 -320 z "},"‟":{"ha":961,"x_min":0,"x_max":747,"o":"m 106 854 l 106 961 l 0 961 l 0 1175 l 214 1175 l 214 961 l 320 961 l 320 854 l 106 854 m 534 854 l 534 961 l 427 961 l 427 1175 l 641 1175 l 641 961 l 747 961 l 747 854 l 534 854 z "},"†":{"ha":961,"x_min":106,"x_max":747,"o":"m 320 -214 l 320 641 l 106 641 l 106 747 l 320 747 l 320 1175 l 534 1175 l 534 747 l 747 747 l 747 641 l 534 641 l 534 -214 l 320 -214 z "},"‡":{"ha":961,"x_min":106,"x_max":747,"o":"m 320 -214 l 320 214 l 106 214 l 106 320 l 320 320 l 320 641 l 106 641 l 106 747 l 320 747 l 320 1175 l 534 1175 l 534 747 l 747 747 l 747 641 l 534 641 l 534 320 l 747 320 l 747 214 l 534 214 l 534 -214 l 320 -214 z "},"•":{"ha":961,"x_min":214,"x_max":641,"o":"m 320 214 l 320 320 l 214 320 l 214 534 l 320 534 l 320 641 l 534 641 l 534 534 l 641 534 l 641 320 l 534 320 l 534 214 l 320 214 z "},"…":{"ha":961,"x_min":0,"x_max":854,"o":"m 0 0 l 0 214 l 214 214 l 214 0 l 0 0 m 320 0 l 320 214 l 534 214 l 534 0 l 320 0 m 641 0 l 641 214 l 854 214 l 854 0 l 641 0 z "},"‧":{"ha":961,"x_min":320,"x_max":534,"o":"m 320 320 l 320 534 l 534 534 l 534 320 l 320 320 z "},"‰":{"ha":961,"x_min":0,"x_max":854,"o":"m 320 0 l 320 214 l 534 214 l 534 0 l 320 0 m 641 0 l 641 214 l 854 214 l 854 0 l 641 0 m 0 534 l 0 747 l 214 747 l 214 534 l 0 534 m 0 106 l 0 214 l 106 214 l 106 320 l 214 320 l 214 427 l 320 427 l 320 534 l 427 534 l 427 641 l 534 641 l 534 747 l 747 747 l 747 641 l 641 641 l 641 534 l 534 534 l 534 427 l 427 427 l 427 320 l 320 320 l 320 214 l 214 214 l 214 106 l 0 106 z "},"′":{"ha":961,"x_min":214,"x_max":641,"o":"m 214 854 l 214 961 l 320 961 l 320 1068 l 427 1068 l 427 1175 l 641 1175 l 641 1068 l 534 1068 l 534 961 l 427 961 l 427 854 l 214 854 z "},"″":{"ha":961,"x_min":0,"x_max":747,"o":"m 0 854 l 0 961 l 106 961 l 106 1068 l 214 1068 l 214 1175 l 427 1175 l 427 1068 l 320 1068 l 320 961 l 214 961 l 214 854 l 0 854 m 320 854 l 320 961 l 427 961 l 427 1068 l 534 1068 l 534 1175 l 747 1175 l 747 1068 l 641 1068 l 641 961 l 534 961 l 534 854 l 320 854 z "},"‵":{"ha":961,"x_min":214,"x_max":641,"o":"m 427 854 l 427 961 l 320 961 l 320 1068 l 214 1068 l 214 1175 l 427 1175 l 427 1068 l 534 1068 l 534 961 l 641 961 l 641 854 l 427 854 z "},"‶":{"ha":961,"x_min":0,"x_max":747,"o":"m 214 854 l 214 961 l 106 961 l 106 1068 l 0 1068 l 0 1175 l 214 1175 l 214 1068 l 320 1068 l 320 961 l 427 961 l 427 854 l 214 854 m 534 854 l 534 961 l 427 961 l 427 1068 l 320 1068 l 320 1175 l 534 1175 l 534 1068 l 641 1068 l 641 961 l 747 961 l 747 854 l 534 854 z "},"‹":{"ha":961,"x_min":214,"x_max":641,"o":"m 427 214 l 427 320 l 320 320 l 320 427 l 214 427 l 214 534 l 320 534 l 320 641 l 427 641 l 427 747 l 641 747 l 641 641 l 534 641 l 534 534 l 427 534 l 427 427 l 534 427 l 534 320 l 641 320 l 641 214 l 427 214 z "},"›":{"ha":961,"x_min":214,"x_max":641,"o":"m 214 214 l 214 320 l 320 320 l 320 427 l 427 427 l 427 534 l 320 534 l 320 641 l 214 641 l 214 747 l 427 747 l 427 641 l 534 641 l 534 534 l 641 534 l 641 427 l 534 427 l 534 320 l 427 320 l 427 214 l 214 214 z "},"‼":{"ha":961,"x_min":106,"x_max":747,"o":"m 106 0 l 106 214 l 320 214 l 320 0 l 106 0 m 534 0 l 534 214 l 747 214 l 747 0 l 534 0 m 106 320 l 106 1068 l 320 1068 l 320 320 l 106 320 m 534 320 l 534 1068 l 747 1068 l 747 320 l 534 320 z "},"‾":{"ha":961,"x_min":106,"x_max":747,"o":"m 106 1068 l 106 1175 l 747 1175 l 747 1068 l 106 1068 z "},"‿":{"ha":961,"x_min":0,"x_max":747,"o":"m 106 -320 l 106 -214 l 0 -214 l 0 -106 l 214 -106 l 214 -214 l 534 -214 l 534 -106 l 747 -106 l 747 -214 l 641 -214 l 641 -320 l 106 -320 z "},"⁀":{"ha":961,"x_min":0,"x_max":747,"o":"m 0 961 l 0 1068 l 106 1068 l 106 1175 l 641 1175 l 641 1068 l 747 1068 l 747 961 l 534 961 l 534 1068 l 214 1068 l 214 961 l 0 961 z "},"⁄":{"ha":961,"x_min":0,"x_max":747,"o":"m 0 0 l 0 214 l 106 214 l 106 320 l 214 320 l 214 427 l 320 427 l 320 534 l 427 534 l 427 641 l 534 641 l 534 747 l 641 747 l 641 854 l 747 854 l 747 641 l 641 641 l 641 534 l 534 534 l 534 427 l 427 427 l 427 320 l 320 320 l 320 214 l 214 214 l 214 106 l 106 106 l 106 0 l 0 0 z "},"⁔":{"ha":961,"x_min":0,"x_max":747,"o":"m 0 -320 l 0 -214 l 106 -214 l 106 -106 l 641 -106 l 641 -214 l 747 -214 l 747 -320 l 534 -320 l 534 -214 l 214 -214 l 214 -320 l 0 -320 z "},"⁴":{"ha":961,"x_min":0,"x_max":534,"o":"m 320 534 l 320 747 l 0 747 l 0 854 l 106 854 l 106 961 l 214 961 l 214 854 l 320 854 l 320 961 l 214 961 l 214 1068 l 320 1068 l 320 1175 l 534 1175 l 534 534 l 320 534 z "},"⁵":{"ha":961,"x_min":0,"x_max":534,"o":"m 0 534 l 0 641 l 320 641 l 320 854 l 0 854 l 0 1175 l 534 1175 l 534 1068 l 214 1068 l 214 961 l 427 961 l 427 854 l 534 854 l 534 641 l 427 641 l 427 534 l 0 534 z "},"⁶":{"ha":961,"x_min":0,"x_max":534,"o":"m 320 641 l 320 854 l 214 854 l 214 641 l 320 641 m 106 534 l 106 641 l 0 641 l 0 1068 l 106 1068 l 106 1175 l 427 1175 l 427 1068 l 214 1068 l 214 961 l 427 961 l 427 854 l 534 854 l 534 641 l 427 641 l 427 534 l 106 534 z "},"⁷":{"ha":961,"x_min":0,"x_max":534,"o":"m 106 534 l 106 854 l 214 854 l 214 961 l 320 961 l 320 1068 l 106 1068 l 106 961 l 0 961 l 0 1175 l 534 1175 l 534 961 l 427 961 l 427 854 l 320 854 l 320 534 l 106 534 z "},"⁸":{"ha":961,"x_min":0,"x_max":534,"o":"m 320 641 l 320 854 l 214 854 l 214 641 l 320 641 m 320 961 l 320 1068 l 214 1068 l 214 961 l 320 961 m 106 534 l 106 641 l 0 641 l 0 854 l 106 854 l 106 961 l 0 961 l 0 1068 l 106 1068 l 106 1175 l 427 1175 l 427 1068 l 534 1068 l 534 961 l 427 961 l 427 854 l 534 854 l 534 641 l 427 641 l 427 534 l 106 534 z "},"⁹":{"ha":961,"x_min":0,"x_max":534,"o":"m 320 854 l 320 1068 l 214 1068 l 214 854 l 320 854 m 106 534 l 106 641 l 320 641 l 320 747 l 106 747 l 106 854 l 0 854 l 0 1068 l 106 1068 l 106 1175 l 427 1175 l 427 1068 l 534 1068 l 534 641 l 427 641 l 427 534 l 106 534 z "},"⁺":{"ha":961,"x_min":0,"x_max":641,"o":"m 214 641 l 214 854 l 0 854 l 0 961 l 214 961 l 214 1175 l 427 1175 l 427 961 l 641 961 l 641 854 l 427 854 l 427 641 l 214 641 z "},"⁻":{"ha":961,"x_min":106,"x_max":641,"o":"m 106 854 l 106 961 l 641 961 l 641 854 l 106 854 z "},"ⁿ":{"ha":961,"x_min":0,"x_max":641,"o":"m 106 534 l 106 1068 l 0 1068 l 0 1175 l 214 1175 l 214 1068 l 320 1068 l 320 534 l 106 534 m 427 534 l 427 1068 l 320 1068 l 320 1175 l 534 1175 l 534 1068 l 641 1068 l 641 534 l 427 534 z "},"₀":{"ha":961,"x_min":106,"x_max":641,"o":"m 427 -214 l 427 214 l 320 214 l 320 -214 l 427 -214 m 214 -320 l 214 -214 l 106 -214 l 106 214 l 214 214 l 214 320 l 534 320 l 534 214 l 641 214 l 641 -214 l 534 -214 l 534 -320 l 214 -320 z "},"₁":{"ha":961,"x_min":106,"x_max":534,"o":"m 106 -320 l 106 -214 l 214 -214 l 214 106 l 106 106 l 106 214 l 214 214 l 214 320 l 427 320 l 427 -214 l 534 -214 l 534 -320 l 106 -320 z "},"₂":{"ha":961,"x_min":0,"x_max":534,"o":"m 0 -320 l 0 -106 l 106 -106 l 106 0 l 214 0 l 214 106 l 320 106 l 320 214 l 214 214 l 214 106 l 0 106 l 0 214 l 106 214 l 106 320 l 427 320 l 427 214 l 534 214 l 534 106 l 427 106 l 427 0 l 320 0 l 320 -106 l 214 -106 l 214 -214 l 427 -214 l 427 -106 l 534 -106 l 534 -320 l 0 -320 z "},"₃":{"ha":961,"x_min":0,"x_max":534,"o":"m 0 -320 l 0 -214 l 320 -214 l 320 0 l 106 0 l 106 106 l 320 106 l 320 214 l 0 214 l 0 320 l 427 320 l 427 214 l 534 214 l 534 106 l 427 106 l 427 0 l 534 0 l 534 -214 l 427 -214 l 427 -320 l 0 -320 z "},"₄":{"ha":961,"x_min":0,"x_max":534,"o":"m 320 -320 l 320 -106 l 0 -106 l 0 0 l 106 0 l 106 106 l 214 106 l 214 0 l 320 0 l 320 106 l 214 106 l 214 214 l 320 214 l 320 320 l 534 320 l 534 -320 l 320 -320 z "},"₅":{"ha":961,"x_min":0,"x_max":534,"o":"m 0 -320 l 0 -214 l 320 -214 l 320 0 l 0 0 l 0 320 l 534 320 l 534 214 l 214 214 l 214 106 l 427 106 l 427 0 l 534 0 l 534 -214 l 427 -214 l 427 -320 l 0 -320 z "},"₆":{"ha":961,"x_min":0,"x_max":534,"o":"m 320 -214 l 320 0 l 214 0 l 214 -214 l 320 -214 m 106 -320 l 106 -214 l 0 -214 l 0 214 l 106 214 l 106 320 l 427 320 l 427 214 l 214 214 l 214 106 l 427 106 l 427 0 l 534 0 l 534 -214 l 427 -214 l 427 -320 l 106 -320 z "},"₇":{"ha":961,"x_min":0,"x_max":534,"o":"m 106 -320 l 106 0 l 214 0 l 214 106 l 320 106 l 320 214 l 106 214 l 106 106 l 0 106 l 0 320 l 534 320 l 534 106 l 427 106 l 427 0 l 320 0 l 320 -320 l 106 -320 z "},"₈":{"ha":961,"x_min":0,"x_max":534,"o":"m 320 -214 l 320 0 l 214 0 l 214 -214 l 320 -214 m 320 106 l 320 214 l 214 214 l 214 106 l 320 106 m 106 -320 l 106 -214 l 0 -214 l 0 0 l 106 0 l 106 106 l 0 106 l 0 214 l 106 214 l 106 320 l 427 320 l 427 214 l 534 214 l 534 106 l 427 106 l 427 0 l 534 0 l 534 -214 l 427 -214 l 427 -320 l 106 -320 z "},"₉":{"ha":961,"x_min":0,"x_max":534,"o":"m 320 0 l 320 214 l 214 214 l 214 0 l 320 0 m 106 -320 l 106 -214 l 320 -214 l 320 -106 l 106 -106 l 106 0 l 0 0 l 0 214 l 106 214 l 106 320 l 427 320 l 427 214 l 534 214 l 534 -214 l 427 -214 l 427 -320 l 106 -320 z "},"₊":{"ha":961,"x_min":0,"x_max":641,"o":"m 214 -320 l 214 -106 l 0 -106 l 0 0 l 214 0 l 214 214 l 427 214 l 427 0 l 641 0 l 641 -106 l 427 -106 l 427 -320 l 214 -320 z "},"₋":{"ha":961,"x_min":106,"x_max":641,"o":"m 106 -106 l 106 0 l 641 0 l 641 -106 l 106 -106 z "},"₣":{"ha":961,"x_min":0,"x_max":747,"o":"m 0 0 l 0 106 l 106 106 l 106 214 l 0 214 l 0 320 l 106 320 l 106 961 l 0 961 l 0 1068 l 747 1068 l 747 747 l 641 747 l 641 854 l 534 854 l 534 961 l 320 961 l 320 641 l 427 641 l 427 747 l 534 747 l 534 427 l 427 427 l 427 534 l 320 534 l 320 320 l 427 320 l 427 214 l 320 214 l 320 106 l 427 106 l 427 0 l 0 0 z "},"₤":{"ha":961,"x_min":0,"x_max":747,"o":"m 0 0 l 0 214 l 106 214 l 106 427 l 0 427 l 0 534 l 106 534 l 106 641 l 0 641 l 0 747 l 106 747 l 106 961 l 214 961 l 214 1068 l 534 1068 l 534 961 l 641 961 l 641 747 l 534 747 l 534 854 l 427 854 l 427 961 l 320 961 l 320 747 l 427 747 l 427 641 l 320 641 l 320 534 l 427 534 l 427 427 l 320 427 l 320 106 l 534 106 l 534 214 l 747 214 l 747 106 l 641 106 l 641 0 l 0 0 z "},"₧":{"ha":961,"x_min":0,"x_max":854,"o":"m 641 0 l 641 106 l 534 106 l 534 320 l 427 320 l 427 427 l 534 427 l 534 534 l 641 534 l 641 641 l 747 641 l 747 427 l 854 427 l 854 320 l 747 320 l 747 106 l 854 106 l 854 0 l 641 0 m 534 747 l 534 961 l 320 961 l 320 747 l 534 747 m 0 0 l 0 106 l 106 106 l 106 961 l 0 961 l 0 1068 l 641 1068 l 641 961 l 747 961 l 747 747 l 641 747 l 641 641 l 320 641 l 320 106 l 427 106 l 427 0 l 0 0 z "},"₪":{"ha":961,"x_min":0,"x_max":747,"o":"m 0 106 l 0 854 l 534 854 l 534 320 l 427 320 l 427 747 l 106 747 l 106 106 l 0 106 m 214 106 l 214 641 l 320 641 l 320 214 l 641 214 l 641 854 l 747 854 l 747 106 l 214 106 z "},"€":{"ha":961,"x_min":0,"x_max":854,"o":"m 320 0 l 320 106 l 214 106 l 214 214 l 106 214 l 106 320 l 0 320 l 0 427 l 106 427 l 106 534 l 0 534 l 0 641 l 106 641 l 106 747 l 214 747 l 214 854 l 320 854 l 320 961 l 747 961 l 747 854 l 854 854 l 854 747 l 641 747 l 641 854 l 427 854 l 427 747 l 320 747 l 320 641 l 747 641 l 747 534 l 320 534 l 320 427 l 641 427 l 641 320 l 320 320 l 320 214 l 427 214 l 427 106 l 641 106 l 641 214 l 854 214 l 854 106 l 747 106 l 747 0 l 320 0 z "},"℅":{"ha":961,"x_min":0,"x_max":747,"o":"m 534 -106 l 534 214 l 427 214 l 427 -106 l 534 -106 m 320 -214 l 320 -106 l 214 -106 l 214 214 l 320 214 l 320 320 l 641 320 l 641 214 l 747 214 l 747 -106 l 641 -106 l 641 -214 l 320 -214 m 320 747 l 320 854 l 427 854 l 427 747 l 320 747 m 0 106 l 0 320 l 106 320 l 106 427 l 214 427 l 214 534 l 320 534 l 320 641 l 427 641 l 427 747 l 534 747 l 534 854 l 641 854 l 641 961 l 747 961 l 747 747 l 641 747 l 641 641 l 534 641 l 534 534 l 427 534 l 427 427 l 320 427 l 320 320 l 214 320 l 214 214 l 106 214 l 106 106 l 0 106 m 320 961 l 320 1068 l 427 1068 l 427 961 l 320 961 m 106 641 l 106 747 l 0 747 l 0 1068 l 106 1068 l 106 1175 l 320 1175 l 320 1068 l 214 1068 l 214 747 l 320 747 l 320 641 l 106 641 z "},"ℓ":{"ha":961,"x_min":106,"x_max":747,"o":"m 106 106 l 106 214 l 214 214 l 214 106 l 106 106 m 641 106 l 641 214 l 747 214 l 747 106 l 641 106 m 427 427 l 427 854 l 320 854 l 320 427 l 427 427 m 427 0 l 427 106 l 320 106 l 320 214 l 214 214 l 214 427 l 106 427 l 106 854 l 214 854 l 214 961 l 320 961 l 320 1068 l 427 1068 l 427 961 l 534 961 l 534 854 l 641 854 l 641 427 l 534 427 l 534 320 l 427 320 l 427 214 l 534 214 l 534 106 l 641 106 l 641 0 l 427 0 z "},"№":{"ha":961,"x_min":0,"x_max":854,"o":"m 747 747 l 747 961 l 641 961 l 641 747 l 747 747 m 0 0 l 0 1068 l 106 1068 l 106 961 l 214 961 l 214 854 l 320 854 l 320 747 l 427 747 l 427 1068 l 854 1068 l 854 641 l 641 641 l 641 534 l 854 534 l 854 427 l 641 427 l 641 0 l 427 0 l 427 427 l 320 427 l 320 534 l 214 534 l 214 0 l 0 0 z "},"℠":{"ha":961,"x_min":0,"x_max":854,"o":"m 0 641 l 0 747 l 214 747 l 214 641 l 0 641 m 106 854 l 106 961 l 214 961 l 214 854 l 106 854 m 534 854 l 534 961 l 641 961 l 641 854 l 534 854 m 0 961 l 0 1068 l 106 1068 l 106 961 l 0 961 m 320 641 l 320 747 l 214 747 l 214 854 l 320 854 l 320 1068 l 106 1068 l 106 1175 l 427 1175 l 427 1068 l 534 1068 l 534 961 l 427 961 l 427 641 l 320 641 m 747 641 l 747 961 l 641 961 l 641 1068 l 747 1068 l 747 1175 l 854 1175 l 854 641 l 747 641 z "},"™":{"ha":961,"x_min":0,"x_max":854,"o":"m 534 854 l 534 961 l 641 961 l 641 854 l 534 854 m 106 641 l 106 1068 l 0 1068 l 0 1175 l 427 1175 l 427 1068 l 534 1068 l 534 961 l 427 961 l 427 641 l 320 641 l 320 1068 l 214 1068 l 214 641 l 106 641 m 747 641 l 747 961 l 641 961 l 641 1068 l 747 1068 l 747 1175 l 854 1175 l 854 641 l 747 641 z "},"Ω":{"ha":961,"x_min":0,"x_max":747,"o":"m 0 0 l 0 106 l 106 106 l 106 534 l 0 534 l 0 854 l 106 854 l 106 961 l 214 961 l 214 1068 l 534 1068 l 534 961 l 641 961 l 641 854 l 747 854 l 747 534 l 641 534 l 641 106 l 747 106 l 747 0 l 427 0 l 427 534 l 534 534 l 534 854 l 427 854 l 427 961 l 320 961 l 320 854 l 214 854 l 214 534 l 320 534 l 320 0 l 0 0 z "},"℮":{"ha":961,"x_min":0,"x_max":747,"o":"m 534 534 l 534 641 l 214 641 l 214 534 l 534 534 m 106 0 l 106 106 l 0 106 l 0 641 l 106 641 l 106 747 l 641 747 l 641 641 l 747 641 l 747 427 l 214 427 l 214 106 l 534 106 l 534 214 l 747 214 l 747 106 l 641 106 l 641 0 l 106 0 z "},"⅐":{"ha":961,"x_min":0,"x_max":854,"o":"m 320 -214 l 320 -106 l 427 -106 l 427 0 l 534 0 l 534 106 l 641 106 l 641 214 l 320 214 l 320 320 l 854 320 l 854 106 l 747 106 l 747 0 l 641 0 l 641 -106 l 534 -106 l 534 -214 l 320 -214 m 0 106 l 0 320 l 106 320 l 106 427 l 214 427 l 214 534 l 320 534 l 320 641 l 427 641 l 427 747 l 534 747 l 534 854 l 641 854 l 641 961 l 747 961 l 747 747 l 641 747 l 641 641 l 534 641 l 534 534 l 427 534 l 427 427 l 320 427 l 320 320 l 214 320 l 214 214 l 106 214 l 106 106 l 0 106 m 0 641 l 0 1175 l 214 1175 l 214 641 l 0 641 z "},"⅑":{"ha":961,"x_min":0,"x_max":854,"o":"m 641 106 l 641 214 l 534 214 l 534 106 l 641 106 m 427 -214 l 427 -106 l 641 -106 l 641 0 l 427 0 l 427 106 l 320 106 l 320 214 l 427 214 l 427 320 l 747 320 l 747 214 l 854 214 l 854 -106 l 747 -106 l 747 -214 l 427 -214 m 0 106 l 0 320 l 106 320 l 106 427 l 214 427 l 214 534 l 320 534 l 320 641 l 427 641 l 427 747 l 534 747 l 534 854 l 641 854 l 641 961 l 747 961 l 747 747 l 641 747 l 641 641 l 534 641 l 534 534 l 427 534 l 427 427 l 320 427 l 320 320 l 214 320 l 214 214 l 106 214 l 106 106 l 0 106 m 0 641 l 0 1175 l 214 1175 l 214 641 l 0 641 z "},"⅓":{"ha":961,"x_min":0,"x_max":854,"o":"m 427 -214 l 427 -106 l 641 -106 l 641 0 l 427 0 l 427 106 l 641 106 l 641 214 l 427 214 l 427 320 l 747 320 l 747 214 l 854 214 l 854 106 l 747 106 l 747 0 l 854 0 l 854 -106 l 747 -106 l 747 -214 l 427 -214 m 0 106 l 0 320 l 106 320 l 106 427 l 214 427 l 214 534 l 320 534 l 320 641 l 427 641 l 427 747 l 534 747 l 534 854 l 641 854 l 641 961 l 747 961 l 747 747 l 641 747 l 641 641 l 534 641 l 534 534 l 427 534 l 427 427 l 320 427 l 320 320 l 214 320 l 214 214 l 106 214 l 106 106 l 0 106 m 0 641 l 0 1175 l 214 1175 l 214 641 l 0 641 z "},"⅔":{"ha":961,"x_min":0,"x_max":854,"o":"m 427 -214 l 427 -106 l 641 -106 l 641 0 l 427 0 l 427 106 l 641 106 l 641 214 l 427 214 l 427 320 l 747 320 l 747 214 l 854 214 l 854 106 l 747 106 l 747 0 l 854 0 l 854 -106 l 747 -106 l 747 -214 l 427 -214 m 106 106 l 106 320 l 214 320 l 214 427 l 320 427 l 320 534 l 427 534 l 427 641 l 0 641 l 0 747 l 106 747 l 106 854 l 214 854 l 214 961 l 320 961 l 320 1068 l 214 1068 l 214 961 l 0 961 l 0 1068 l 106 1068 l 106 1175 l 427 1175 l 427 1068 l 534 1068 l 534 961 l 427 961 l 427 854 l 320 854 l 320 747 l 641 747 l 641 854 l 747 854 l 747 961 l 854 961 l 854 747 l 747 747 l 747 641 l 641 641 l 641 534 l 534 534 l 534 427 l 427 427 l 427 320 l 320 320 l 320 214 l 214 214 l 214 106 l 106 106 z "},"⅕":{"ha":961,"x_min":0,"x_max":854,"o":"m 427 -214 l 427 -106 l 641 -106 l 641 0 l 427 0 l 427 320 l 854 320 l 854 214 l 641 214 l 641 106 l 747 106 l 747 0 l 854 0 l 854 -106 l 747 -106 l 747 -214 l 427 -214 m 0 106 l 0 320 l 106 320 l 106 427 l 214 427 l 214 534 l 320 534 l 320 641 l 427 641 l 427 747 l 534 747 l 534 854 l 641 854 l 641 961 l 747 961 l 747 747 l 641 747 l 641 641 l 534 641 l 534 534 l 427 534 l 427 427 l 320 427 l 320 320 l 214 320 l 214 214 l 106 214 l 106 106 l 0 106 m 0 641 l 0 1175 l 214 1175 l 214 641 l 0 641 z "},"⅖":{"ha":961,"x_min":0,"x_max":854,"o":"m 427 -214 l 427 -106 l 641 -106 l 641 0 l 427 0 l 427 320 l 854 320 l 854 214 l 641 214 l 641 106 l 747 106 l 747 0 l 854 0 l 854 -106 l 747 -106 l 747 -214 l 427 -214 m 106 106 l 106 320 l 214 320 l 214 427 l 320 427 l 320 534 l 427 534 l 427 641 l 0 641 l 0 747 l 106 747 l 106 854 l 214 854 l 214 961 l 320 961 l 320 1068 l 214 1068 l 214 961 l 0 961 l 0 1068 l 106 1068 l 106 1175 l 427 1175 l 427 1068 l 534 1068 l 534 961 l 427 961 l 427 854 l 320 854 l 320 747 l 641 747 l 641 854 l 747 854 l 747 961 l 854 961 l 854 747 l 747 747 l 747 641 l 641 641 l 641 534 l 534 534 l 534 427 l 427 427 l 427 320 l 320 320 l 320 214 l 214 214 l 214 106 l 106 106 z "},"⅗":{"ha":961,"x_min":0,"x_max":854,"o":"m 427 -214 l 427 -106 l 641 -106 l 641 0 l 427 0 l 427 320 l 854 320 l 854 214 l 641 214 l 641 106 l 747 106 l 747 0 l 854 0 l 854 -106 l 747 -106 l 747 -214 l 427 -214 m 0 106 l 0 320 l 106 320 l 106 427 l 214 427 l 214 534 l 320 534 l 320 641 l 427 641 l 427 747 l 534 747 l 534 854 l 641 854 l 641 961 l 747 961 l 747 747 l 641 747 l 641 641 l 534 641 l 534 534 l 427 534 l 427 427 l 320 427 l 320 320 l 214 320 l 214 214 l 106 214 l 106 106 l 0 106 m 0 641 l 0 747 l 214 747 l 214 854 l 0 854 l 0 961 l 214 961 l 214 1068 l 0 1068 l 0 1175 l 320 1175 l 320 1068 l 427 1068 l 427 961 l 320 961 l 320 854 l 427 854 l 427 747 l 320 747 l 320 641 l 0 641 z "},"⅘":{"ha":961,"x_min":0,"x_max":854,"o":"m 427 -214 l 427 -106 l 641 -106 l 641 0 l 427 0 l 427 320 l 854 320 l 854 214 l 641 214 l 641 106 l 747 106 l 747 0 l 854 0 l 854 -106 l 747 -106 l 747 -214 l 427 -214 m 106 106 l 106 320 l 214 320 l 214 427 l 320 427 l 320 534 l 427 534 l 427 641 l 320 641 l 320 747 l 0 747 l 0 854 l 106 854 l 106 961 l 214 961 l 214 854 l 320 854 l 320 961 l 214 961 l 214 1068 l 320 1068 l 320 1175 l 534 1175 l 534 747 l 641 747 l 641 854 l 747 854 l 747 961 l 854 961 l 854 747 l 747 747 l 747 641 l 641 641 l 641 534 l 534 534 l 534 427 l 427 427 l 427 320 l 320 320 l 320 214 l 214 214 l 214 106 l 106 106 z "},"⅙":{"ha":961,"x_min":0,"x_max":854,"o":"m 641 -106 l 641 0 l 534 0 l 534 -106 l 641 -106 m 427 -214 l 427 -106 l 320 -106 l 320 214 l 427 214 l 427 320 l 747 320 l 747 214 l 534 214 l 534 106 l 747 106 l 747 0 l 854 0 l 854 -106 l 747 -106 l 747 -214 l 427 -214 m 0 106 l 0 320 l 106 320 l 106 427 l 214 427 l 214 534 l 320 534 l 320 641 l 427 641 l 427 747 l 534 747 l 534 854 l 641 854 l 641 961 l 747 961 l 747 747 l 641 747 l 641 641 l 534 641 l 534 534 l 427 534 l 427 427 l 320 427 l 320 320 l 214 320 l 214 214 l 106 214 l 106 106 l 0 106 m 0 641 l 0 1175 l 214 1175 l 214 641 l 0 641 z "},"⅚":{"ha":961,"x_min":0,"x_max":854,"o":"m 641 -106 l 641 0 l 534 0 l 534 -106 l 641 -106 m 427 -214 l 427 -106 l 320 -106 l 320 214 l 427 214 l 427 320 l 747 320 l 747 214 l 534 214 l 534 106 l 747 106 l 747 0 l 854 0 l 854 -106 l 747 -106 l 747 -214 l 427 -214 m 0 106 l 0 320 l 106 320 l 106 427 l 214 427 l 214 534 l 320 534 l 320 641 l 427 641 l 427 747 l 534 747 l 534 854 l 641 854 l 641 961 l 747 961 l 747 747 l 641 747 l 641 641 l 534 641 l 534 534 l 427 534 l 427 427 l 320 427 l 320 320 l 214 320 l 214 214 l 106 214 l 106 106 l 0 106 m 0 641 l 0 747 l 214 747 l 214 854 l 0 854 l 0 1175 l 427 1175 l 427 1068 l 214 1068 l 214 961 l 320 961 l 320 854 l 427 854 l 427 747 l 320 747 l 320 641 l 0 641 z "},"⅛":{"ha":961,"x_min":0,"x_max":854,"o":"m 641 -106 l 641 0 l 534 0 l 534 -106 l 641 -106 m 641 106 l 641 214 l 534 214 l 534 106 l 641 106 m 427 -214 l 427 -106 l 320 -106 l 320 0 l 427 0 l 427 106 l 320 106 l 320 214 l 427 214 l 427 320 l 747 320 l 747 214 l 854 214 l 854 106 l 747 106 l 747 0 l 854 0 l 854 -106 l 747 -106 l 747 -214 l 427 -214 m 0 106 l 0 320 l 106 320 l 106 427 l 214 427 l 214 534 l 320 534 l 320 641 l 427 641 l 427 747 l 534 747 l 534 854 l 641 854 l 641 961 l 747 961 l 747 747 l 641 747 l 641 641 l 534 641 l 534 534 l 427 534 l 427 427 l 320 427 l 320 320 l 214 320 l 214 214 l 106 214 l 106 106 l 0 106 m 0 641 l 0 1175 l 214 1175 l 214 641 l 0 641 z "},"⅜":{"ha":961,"x_min":0,"x_max":854,"o":"m 641 -106 l 641 0 l 534 0 l 534 -106 l 641 -106 m 641 106 l 641 214 l 534 214 l 534 106 l 641 106 m 427 -214 l 427 -106 l 320 -106 l 320 0 l 427 0 l 427 106 l 320 106 l 320 214 l 427 214 l 427 320 l 747 320 l 747 214 l 854 214 l 854 106 l 747 106 l 747 0 l 854 0 l 854 -106 l 747 -106 l 747 -214 l 427 -214 m 0 106 l 0 320 l 106 320 l 106 427 l 214 427 l 214 534 l 320 534 l 320 641 l 427 641 l 427 747 l 534 747 l 534 854 l 641 854 l 641 961 l 747 961 l 747 747 l 641 747 l 641 641 l 534 641 l 534 534 l 427 534 l 427 427 l 320 427 l 320 320 l 214 320 l 214 214 l 106 214 l 106 106 l 0 106 m 0 641 l 0 747 l 214 747 l 214 854 l 0 854 l 0 961 l 214 961 l 214 1068 l 0 1068 l 0 1175 l 320 1175 l 320 1068 l 427 1068 l 427 961 l 320 961 l 320 854 l 427 854 l 427 747 l 320 747 l 320 641 l 0 641 z "},"⅝":{"ha":961,"x_min":0,"x_max":854,"o":"m 641 -106 l 641 0 l 534 0 l 534 -106 l 641 -106 m 641 106 l 641 214 l 534 214 l 534 106 l 641 106 m 427 -214 l 427 -106 l 320 -106 l 320 0 l 427 0 l 427 106 l 320 106 l 320 214 l 427 214 l 427 320 l 747 320 l 747 214 l 854 214 l 854 106 l 747 106 l 747 0 l 854 0 l 854 -106 l 747 -106 l 747 -214 l 427 -214 m 0 106 l 0 320 l 106 320 l 106 427 l 214 427 l 214 534 l 320 534 l 320 641 l 427 641 l 427 747 l 534 747 l 534 854 l 641 854 l 641 961 l 747 961 l 747 747 l 641 747 l 641 641 l 534 641 l 534 534 l 427 534 l 427 427 l 320 427 l 320 320 l 214 320 l 214 214 l 106 214 l 106 106 l 0 106 m 0 641 l 0 747 l 214 747 l 214 854 l 0 854 l 0 1175 l 427 1175 l 427 1068 l 214 1068 l 214 961 l 320 961 l 320 854 l 427 854 l 427 747 l 320 747 l 320 641 l 0 641 z "},"⅞":{"ha":961,"x_min":0,"x_max":854,"o":"m 641 -106 l 641 0 l 534 0 l 534 -106 l 641 -106 m 641 106 l 641 214 l 534 214 l 534 106 l 641 106 m 427 -214 l 427 -106 l 320 -106 l 320 0 l 427 0 l 427 106 l 320 106 l 320 214 l 427 214 l 427 320 l 747 320 l 747 214 l 854 214 l 854 106 l 747 106 l 747 0 l 854 0 l 854 -106 l 747 -106 l 747 -214 l 427 -214 m 0 106 l 0 320 l 106 320 l 106 427 l 214 427 l 214 534 l 320 534 l 320 641 l 427 641 l 427 747 l 534 747 l 534 854 l 641 854 l 641 961 l 747 961 l 747 747 l 641 747 l 641 641 l 534 641 l 534 534 l 427 534 l 427 427 l 320 427 l 320 320 l 214 320 l 214 214 l 106 214 l 106 106 l 0 106 m 0 641 l 0 747 l 106 747 l 106 854 l 214 854 l 214 961 l 320 961 l 320 1068 l 0 1068 l 0 1175 l 534 1175 l 534 961 l 427 961 l 427 854 l 320 854 l 320 747 l 214 747 l 214 641 l 0 641 z "},"←":{"ha":961,"x_min":0,"x_max":747,"o":"m 214 214 l 214 320 l 106 320 l 106 427 l 0 427 l 0 534 l 106 534 l 106 641 l 214 641 l 214 747 l 427 747 l 427 641 l 320 641 l 320 534 l 747 534 l 747 427 l 320 427 l 320 320 l 427 320 l 427 214 l 214 214 z "},"↑":{"ha":961,"x_min":106,"x_max":747,"o":"m 320 0 l 320 747 l 106 747 l 106 854 l 214 854 l 214 961 l 320 961 l 320 1068 l 534 1068 l 534 961 l 641 961 l 641 854 l 747 854 l 747 747 l 534 747 l 534 0 l 320 0 z "},"→":{"ha":961,"x_min":0,"x_max":747,"o":"m 320 214 l 320 320 l 427 320 l 427 427 l 0 427 l 0 534 l 427 534 l 427 641 l 320 641 l 320 747 l 534 747 l 534 641 l 641 641 l 641 534 l 747 534 l 747 427 l 641 427 l 641 320 l 534 320 l 534 214 l 320 214 z "},"↓":{"ha":961,"x_min":106,"x_max":747,"o":"m 320 0 l 320 106 l 214 106 l 214 214 l 106 214 l 106 320 l 320 320 l 320 1068 l 534 1068 l 534 320 l 747 320 l 747 214 l 641 214 l 641 106 l 534 106 l 534 0 l 320 0 z "},"↔":{"ha":961,"x_min":0,"x_max":854,"o":"m 214 214 l 214 320 l 106 320 l 106 427 l 0 427 l 0 534 l 106 534 l 106 641 l 214 641 l 214 747 l 320 747 l 320 534 l 534 534 l 534 747 l 641 747 l 641 641 l 747 641 l 747 534 l 854 534 l 854 427 l 747 427 l 747 320 l 641 320 l 641 214 l 534 214 l 534 427 l 320 427 l 320 214 l 214 214 z "}}}
